<svg width="11" height="48" viewBox="0 0 11 48" fill="none" xmlns="http://www.w3.org/2000/svg">
<path d="M0.372615 2.53397C0.280088 2.56322 0.21197 2.73699 0.21197 2.82092C-0.08555 17.1274 -0.0635463 31.4401 0.236895 45.7465C0.248698 46.3076 0.278861 46.918 0.644558 47.3437C1.2834 47.1445 1.39901 46.3042 1.39652 45.6351C1.38581 42.7763 1.3651 39.9176 1.33442 37.059C1.30371 34.2004 1.26304 31.3419 1.21239 28.4836C1.16174 25.6253 1.10107 22.7671 1.03043 19.9093C0.959788 17.0514 0.879167 14.1937 0.788559 11.3364C0.69798 8.4804 0.53883 5.62212 0.486808 2.76546C0.484803 2.65492 0.530151 2.49209 0.376951 2.53274C0.375462 2.53311 0.374047 2.53354 0.372615 2.53397Z" fill="url(#paint0_linear_1967_18771)"/>
<path d="M8.16622 30.449C8.18123 30.1707 8.15143 29.8884 8.0787 29.6233C7.55636 27.7194 5.58013 26.396 3.79037 25.8529C3.34145 25.7167 2.76007 25.6645 2.49329 26.0504C2.44066 26.1265 2.40778 26.2338 2.46273 26.3083C2.49679 26.3545 2.55511 26.3745 2.60994 26.3913C3.06894 26.5323 3.54057 26.6303 3.99688 26.7797C5.31211 27.2105 6.49944 28.1023 7.14917 29.3243C7.33514 29.6741 7.47828 30.0561 7.48814 30.4522C7.49799 30.8482 7.35972 31.2607 7.05959 31.5193C6.64686 31.8749 6.02864 31.8704 5.50553 31.7183C4.02659 31.2883 3.01737 29.9112 2.40448 28.4982C2.36062 28.3971 2.25636 28.2749 2.16664 28.3389C2.10557 28.3825 2.11909 28.4755 2.14026 28.5475C2.6092 30.1418 3.70612 31.6375 5.27831 32.1761C5.95258 32.4071 6.74293 32.4388 7.3384 32.047C7.86337 31.7016 8.13187 31.0854 8.16622 30.449Z" fill="url(#paint1_linear_1967_18771)"/>
<path d="M2.65655 39.0139C2.72871 37.9024 2.76669 36.7813 3.13236 35.7344C3.33558 35.1526 3.6614 34.5806 4.19052 34.2646C4.91026 33.8349 5.93497 34.0206 6.45802 34.6757C7.01542 35.3738 6.9589 36.3932 6.64479 37.2295C5.96826 39.0306 4.3329 40.2752 2.71576 41.3176C2.71284 41.4284 2.88392 41.4255 2.98458 41.379C4.28486 40.7788 5.43282 39.852 6.29356 38.7074C6.83511 37.9872 7.27171 37.157 7.35951 36.2602C7.52127 34.6079 6.10857 32.8829 4.34998 33.5554C3.67358 33.814 3.14689 34.3809 2.81692 35.0255C2.48697 35.6701 2.3358 36.391 2.24001 37.1088C2.1168 38.0321 2.07961 38.9644 2.04257 39.8951C2.03945 39.974 2.03794 40.0589 2.08223 40.1242C2.16679 40.2488 2.37396 40.22 2.47305 40.1065C2.57214 39.9931 2.59221 39.8328 2.60585 39.6828C2.62616 39.4607 2.64206 39.2375 2.65655 39.0139Z" fill="url(#paint2_linear_1967_18771)"/>
<path d="M2.38507 21.2952C2.39274 21.3971 2.43761 21.4937 2.52392 21.5458C2.73186 21.6713 2.98003 21.4744 3.14744 21.2985C3.75497 20.6598 4.44911 20.085 5.2586 19.7361C6.06808 19.3871 7.00502 19.2799 7.83719 19.5707C8.66936 19.8614 9.36759 20.5881 9.50085 21.4595C9.62968 22.3018 9.22212 23.1679 8.5844 23.733C7.94668 24.2982 7.10804 24.5933 6.26615 24.7248C5.27548 24.8795 4.25238 24.8234 3.28457 24.5611C3.16761 24.6256 3.3126 24.7919 3.44025 24.8312C4.50431 25.1583 5.65168 25.2104 6.74098 24.9809C7.90525 24.7356 9.04847 24.1227 9.65024 23.0963C10.2476 22.0774 10.1214 20.8362 9.3582 19.9584C8.49635 18.9671 7.10788 18.6717 5.84822 18.946C4.65244 19.2063 3.59925 19.9181 2.69858 20.7466C2.58136 20.8544 2.46228 20.9702 2.40848 21.1202C2.38869 21.1752 2.38063 21.2361 2.38507 21.2952Z" fill="url(#paint3_linear_1967_18771)"/>
<path d="M2.45007 19.2697C2.47273 19.3762 2.63212 19.3517 2.72745 19.2991C4.34852 18.4048 5.61012 16.8788 6.18376 15.1185C6.44051 14.3306 6.56189 13.4711 6.33716 12.6734C6.11243 11.8757 5.48815 11.1573 4.67597 10.9925C3.9607 10.8473 3.20427 11.1495 2.67746 11.6546C2.15066 12.1598 1.82822 12.8443 1.62053 13.5439C1.2695 14.7265 1.21894 15.9969 1.4749 17.2037C1.49515 17.2991 1.54476 17.4168 1.64227 17.4132C1.78364 17.2984 1.81059 17.0966 1.82489 16.9151C1.93956 15.4597 1.92682 13.9224 2.65217 12.6555C2.92999 12.1703 3.34421 11.7225 3.88768 11.5913C4.69857 11.3954 5.5447 12.004 5.84508 12.7822C6.14549 13.5604 6.0095 14.4419 5.73794 15.2307C5.16175 16.9043 3.97803 18.3773 2.45007 19.2697Z" fill="url(#paint4_linear_1967_18771)"/>
<path d="M4.9026 46.8723C4.9853 46.8731 5.06783 46.8718 5.14995 46.8684C6.20388 46.824 7.25858 46.4516 8.03931 45.7422C8.43686 45.381 8.76391 44.9279 8.90949 44.4108C9.05668 43.8881 9.00914 43.3151 8.78988 42.8183C8.12684 41.3158 6.21697 40.8968 4.74272 41.2268C3.74495 41.4502 2.83171 42.0332 2.20914 42.8442C2.16895 42.8966 2.12798 42.956 2.13199 43.0218C2.13597 43.0876 2.18478 43.1428 2.24004 43.1786C2.40656 43.2867 2.63209 43.2577 2.80755 43.1648C2.98301 43.0719 3.12223 42.9249 3.26893 42.7911C3.94065 42.1786 4.83216 41.8124 5.74048 41.7759C6.33915 41.7518 6.95381 41.8724 7.46226 42.1894C7.9707 42.5063 8.36161 43.0325 8.44628 43.6256C8.53918 44.2763 8.25639 44.9443 7.79868 45.416C7.341 45.8877 6.72613 46.1813 6.09383 46.3608C5.42064 46.5519 4.70293 46.6229 4.01843 46.4775C3.33393 46.332 2.68518 45.9563 2.28654 45.3811C2.23262 45.3034 2.16715 45.213 2.0725 45.2132C2.09714 45.4998 2.26887 45.754 2.47002 45.9596C3.09216 46.5954 4.00749 46.863 4.9026 46.8723Z" fill="url(#paint5_linear_1967_18771)"/>
<path d="M2.56313 9.79546C2.56282 9.79589 2.56252 9.79629 2.56221 9.79672C3.04937 9.13485 3.63671 8.61292 4.04729 7.87771C4.46498 7.12979 4.76803 6.31802 4.94538 5.48003C5.28705 3.8657 5.27839 1.92421 4.11022 0.627969C3.73725 0.214089 3.17908 -0.0739826 2.62939 0.0167685C2.1919 0.0889856 1.81713 0.391691 1.57295 0.7618C1.3288 1.13194 1.2002 1.56576 1.10472 1.99878C0.837623 3.20991 0.805773 4.47243 1.01142 5.69548C1.08926 6.15846 1.20527 6.62639 1.46406 7.01807C1.66633 5.26077 1.13549 3.42756 1.65943 1.73804C1.7568 1.42402 1.89343 1.11504 2.11584 0.872923C2.33825 0.630805 2.65705 0.462221 2.9854 0.47852C3.50298 0.504216 3.8926 0.957883 4.14114 1.41261C4.86202 2.7316 4.94019 4.33753 4.58034 5.79694C4.2206 7.25586 3.45371 8.58522 2.56313 9.79546Z" fill="url(#paint6_linear_1967_18771)"/>
<defs>
<linearGradient id="paint0_linear_1967_18771" x1="1.39653" y1="24.935" x2="-0.000165349" y2="24.935" gradientUnits="userSpaceOnUse">
<stop stop-color="#C9A33D"/>
<stop offset="0.1066" stop-color="#D2AC47"/>
<stop offset="0.2879" stop-color="#E9C362"/>
<stop offset="0.3394" stop-color="#F1CB6B"/>
<stop offset="0.6269" stop-color="#F8DD97"/>
<stop offset="0.6866" stop-color="#FAE1A1"/>
<stop offset="0.7936" stop-color="#F5D47B"/>
<stop offset="1" stop-color="#EBB829"/>
</linearGradient>
<linearGradient id="paint1_linear_1967_18771" x1="8.17001" y1="29.0492" x2="2.12236" y2="29.0492" gradientUnits="userSpaceOnUse">
<stop stop-color="#C9A33D"/>
<stop offset="0.1066" stop-color="#D2AC47"/>
<stop offset="0.2879" stop-color="#E9C362"/>
<stop offset="0.3394" stop-color="#F1CB6B"/>
<stop offset="0.6269" stop-color="#F8DD97"/>
<stop offset="0.6866" stop-color="#FAE1A1"/>
<stop offset="0.7936" stop-color="#F5D47B"/>
<stop offset="1" stop-color="#EBB829"/>
</linearGradient>
<linearGradient id="paint2_linear_1967_18771" x1="7.37221" y1="37.4079" x2="2.04128" y2="37.4079" gradientUnits="userSpaceOnUse">
<stop stop-color="#C9A33D"/>
<stop offset="0.1066" stop-color="#D2AC47"/>
<stop offset="0.2879" stop-color="#E9C362"/>
<stop offset="0.3394" stop-color="#F1CB6B"/>
<stop offset="0.6269" stop-color="#F8DD97"/>
<stop offset="0.6866" stop-color="#FAE1A1"/>
<stop offset="0.7936" stop-color="#F5D47B"/>
<stop offset="1" stop-color="#EBB829"/>
</linearGradient>
<linearGradient id="paint3_linear_1967_18771" x1="10.0264" y1="21.9851" x2="2.38389" y2="21.9851" gradientUnits="userSpaceOnUse">
<stop stop-color="#C9A33D"/>
<stop offset="0.1066" stop-color="#D2AC47"/>
<stop offset="0.2879" stop-color="#E9C362"/>
<stop offset="0.3394" stop-color="#F1CB6B"/>
<stop offset="0.6269" stop-color="#F8DD97"/>
<stop offset="0.6866" stop-color="#FAE1A1"/>
<stop offset="0.7936" stop-color="#F5D47B"/>
<stop offset="1" stop-color="#EBB829"/>
</linearGradient>
<linearGradient id="paint4_linear_1967_18771" x1="6.45515" y1="15.15" x2="1.31415" y2="15.15" gradientUnits="userSpaceOnUse">
<stop stop-color="#C9A33D"/>
<stop offset="0.1066" stop-color="#D2AC47"/>
<stop offset="0.2879" stop-color="#E9C362"/>
<stop offset="0.3394" stop-color="#F1CB6B"/>
<stop offset="0.6269" stop-color="#F8DD97"/>
<stop offset="0.6866" stop-color="#FAE1A1"/>
<stop offset="0.7936" stop-color="#F5D47B"/>
<stop offset="1" stop-color="#EBB829"/>
</linearGradient>
<linearGradient id="paint5_linear_1967_18771" x1="8.99421" y1="43.9968" x2="2.07253" y2="43.9968" gradientUnits="userSpaceOnUse">
<stop stop-color="#C9A33D"/>
<stop offset="0.1066" stop-color="#D2AC47"/>
<stop offset="0.2879" stop-color="#E9C362"/>
<stop offset="0.3394" stop-color="#F1CB6B"/>
<stop offset="0.6269" stop-color="#F8DD97"/>
<stop offset="0.6866" stop-color="#FAE1A1"/>
<stop offset="0.7936" stop-color="#F5D47B"/>
<stop offset="1" stop-color="#EBB829"/>
</linearGradient>
<linearGradient id="paint6_linear_1967_18771" x1="5.14067" y1="4.89834" x2="0.877636" y2="4.89834" gradientUnits="userSpaceOnUse">
<stop stop-color="#C9A33D"/>
<stop offset="0.1066" stop-color="#D2AC47"/>
<stop offset="0.2879" stop-color="#E9C362"/>
<stop offset="0.3394" stop-color="#F1CB6B"/>
<stop offset="0.6269" stop-color="#F8DD97"/>
<stop offset="0.6866" stop-color="#FAE1A1"/>
<stop offset="0.7936" stop-color="#F5D47B"/>
<stop offset="1" stop-color="#EBB829"/>
</linearGradient>
</defs>
</svg>
