<svg width="11" height="48" viewBox="0 0 11 48" fill="none" xmlns="http://www.w3.org/2000/svg">
<path d="M9.65369 2.53299C9.74622 2.56224 9.81434 2.73601 9.81434 2.81995C10.1119 17.1264 10.0899 31.4392 9.78941 45.7456C9.77761 46.3066 9.74745 46.917 9.38175 47.3427C8.74291 47.1436 8.62729 46.3033 8.62978 45.6341C8.6405 42.7754 8.66121 39.9167 8.69189 37.0581C8.7226 34.1995 8.76327 31.341 8.81391 28.4826C8.86456 25.6243 8.92524 22.7662 8.99588 19.9083C9.06652 17.0504 9.14714 14.1927 9.23775 11.3354C9.32833 8.47943 9.48748 5.62114 9.5395 2.76449C9.5415 2.65394 9.49615 2.49111 9.64935 2.53176C9.65084 2.53214 9.65226 2.53256 9.65369 2.53299Z" fill="url(#paint0_linear_183_4011)"/>
<path d="M1.86048 30.449C1.84547 30.1707 1.87527 29.8884 1.948 29.6233C2.47034 27.7194 4.44658 26.396 6.23633 25.8529C6.68525 25.7167 7.26663 25.6645 7.53341 26.0504C7.58604 26.1265 7.61892 26.2338 7.56398 26.3083C7.52992 26.3545 7.47159 26.3745 7.41676 26.3913C6.95776 26.5323 6.48613 26.6303 6.02982 26.7797C4.71459 27.2105 3.52726 28.1023 2.87754 29.3243C2.69157 29.6741 2.54842 30.0561 2.53857 30.4522C2.52871 30.8482 2.66699 31.2607 2.96711 31.5193C3.37985 31.8749 3.99806 31.8705 4.52117 31.7183C6.00012 31.2883 7.00934 29.9112 7.62222 28.4982C7.66608 28.3971 7.77034 28.2749 7.86006 28.3389C7.92114 28.3825 7.90761 28.4755 7.88644 28.5475C7.4175 30.1418 6.32059 31.6375 4.7484 32.1761C4.07412 32.4071 3.28377 32.4388 2.6883 32.0471C2.16333 31.7016 1.89483 31.0854 1.86048 30.449Z" fill="url(#paint1_linear_183_4011)"/>
<path d="M7.36941 39.0139C7.29725 37.9024 7.25927 36.7813 6.8936 35.7344C6.69039 35.1526 6.36457 34.5806 5.83544 34.2646C5.1157 33.8349 4.09099 34.0206 3.56794 34.6757C3.01054 35.3738 3.06706 36.3932 3.38117 37.2295C4.05771 39.0306 5.69307 40.2752 7.3102 41.3176C7.31313 41.4284 7.14204 41.4255 7.04138 41.379C5.7411 40.7788 4.59314 39.852 3.73241 38.7074C3.19085 37.9872 2.75425 37.157 2.66645 36.2602C2.50469 34.6079 3.91739 32.8829 5.67598 33.5554C6.35238 33.814 6.87907 34.3809 7.20905 35.0255C7.53899 35.6701 7.69016 36.391 7.78596 37.1088C7.90916 38.0321 7.94635 38.9644 7.98339 39.8951C7.98651 39.974 7.98802 40.0589 7.94374 40.1242C7.85917 40.2488 7.652 40.22 7.55291 40.1065C7.45383 39.9931 7.43375 39.8328 7.42012 39.6828C7.39981 39.4607 7.38391 39.2375 7.36941 39.0139Z" fill="url(#paint2_linear_183_4011)"/>
<path d="M7.64138 21.2952C7.6337 21.3971 7.58883 21.4937 7.50252 21.5458C7.29458 21.6713 7.04642 21.4744 6.87901 21.2985C6.27148 20.6598 5.57733 20.085 4.76785 19.7361C3.95836 19.3871 3.02142 19.28 2.18925 19.5707C1.35708 19.8614 0.658852 20.5881 0.525589 21.4595C0.396767 22.3018 0.804322 23.1679 1.44204 23.733C2.07977 24.2982 2.91841 24.5933 3.76029 24.7248C4.75096 24.8795 5.77406 24.8234 6.74187 24.5611C6.85884 24.6256 6.71384 24.7919 6.58619 24.8312C5.52213 25.1583 4.37476 25.2104 3.28546 24.9809C2.12119 24.7356 0.977975 24.1227 0.376204 23.0963C-0.221184 22.0774 -0.094917 20.8362 0.668247 19.9584C1.5301 18.9671 2.91856 18.6717 4.17822 18.946C5.374 19.2063 6.4272 19.9181 7.32786 20.7466C7.44508 20.8544 7.56416 20.9702 7.61796 21.1202C7.63776 21.1752 7.64582 21.2361 7.64138 21.2952Z" fill="url(#paint3_linear_183_4011)"/>
<path d="M7.57592 19.2697C7.55326 19.3762 7.39387 19.3517 7.29853 19.2991C5.67747 18.4048 4.41587 16.8788 3.84223 15.1185C3.58547 14.3306 3.4641 13.4711 3.68883 12.6734C3.91356 11.8757 4.53784 11.1573 5.35002 10.9925C6.06528 10.8473 6.82172 11.1495 7.34852 11.6546C7.87533 12.1598 8.19777 12.8443 8.40545 13.5439C8.75648 14.7265 8.80704 15.9969 8.55109 17.2037C8.53084 17.2991 8.48123 17.4168 8.38372 17.4132C8.24235 17.2984 8.21539 17.0966 8.2011 16.9151C8.08643 15.4597 8.09916 13.9224 7.37381 12.6555C7.096 12.1703 6.68178 11.7225 6.1383 11.5913C5.32742 11.3954 4.48129 12.004 4.18091 12.7822C3.88049 13.5604 4.01648 14.4419 4.28805 15.2307C4.86424 16.9043 6.04796 18.3773 7.57592 19.2697Z" fill="url(#paint4_linear_183_4011)"/>
<path d="M5.12377 46.8723C5.04107 46.8731 4.95855 46.8718 4.87642 46.8684C3.8225 46.824 2.76779 46.4516 1.98707 45.7422C1.58952 45.381 1.26246 44.9279 1.11688 44.4108C0.9697 43.8881 1.01723 43.3151 1.23649 42.8183C1.89954 41.3158 3.8094 40.8968 5.28365 41.2268C6.28143 41.4502 7.19466 42.0332 7.81723 42.8442C7.85742 42.8966 7.8984 42.956 7.89439 43.0218C7.8904 43.0876 7.84159 43.1428 7.78633 43.1786C7.61981 43.2867 7.39428 43.2577 7.21882 43.1648C7.04336 43.0719 6.90414 42.9249 6.75745 42.7911C6.08572 42.1786 5.19421 41.8124 4.2859 41.7759C3.68722 41.7518 3.07256 41.8724 2.56412 42.1894C2.05568 42.5063 1.66477 43.0325 1.58009 43.6256C1.48719 44.2763 1.76998 44.9443 2.22769 45.416C2.68537 45.8878 3.30024 46.1813 3.93255 46.3608C4.60574 46.5519 5.32344 46.6229 6.00795 46.4775C6.69245 46.332 7.3412 45.9563 7.73984 45.3811C7.79375 45.3034 7.85923 45.213 7.95387 45.2132C7.92924 45.4998 7.75751 45.754 7.55635 45.9596C6.93421 46.5954 6.01888 46.863 5.12377 46.8723Z" fill="url(#paint5_linear_183_4011)"/>
<path d="M7.46324 9.79547C7.46356 9.7959 7.46385 9.7963 7.46417 9.79673C6.97701 9.13486 6.38967 8.61292 5.97908 7.87772C5.56139 7.12979 5.25834 6.31802 5.08099 5.48003C4.73933 3.8657 4.74799 1.92421 5.91615 0.627969C6.28913 0.214089 6.84729 -0.0739826 7.39698 0.0167685C7.83447 0.0889856 8.20925 0.391692 8.45343 0.761801C8.69758 1.13194 8.82618 1.56576 8.92165 1.99878C9.18875 3.20991 9.2206 4.47243 9.01495 5.69548C8.93712 6.15846 8.82111 6.62639 8.56232 7.01807C8.36005 5.26077 8.89088 3.42756 8.36694 1.73804C8.26957 1.42402 8.13294 1.11504 7.91053 0.872924C7.68812 0.630806 7.36932 0.462221 7.04098 0.478521C6.5234 0.504216 6.13377 0.957884 5.88524 1.41261C5.16436 2.7316 5.08618 4.33753 5.44603 5.79694C5.80577 7.25587 6.57266 8.58522 7.46324 9.79547Z" fill="url(#paint6_linear_183_4011)"/>
<defs>
<linearGradient id="paint0_linear_183_4011" x1="8.62977" y1="24.934" x2="10.0265" y2="24.934" gradientUnits="userSpaceOnUse">
<stop stop-color="#C9A33D"/>
<stop offset="0.1066" stop-color="#D2AC47"/>
<stop offset="0.2879" stop-color="#E9C362"/>
<stop offset="0.3394" stop-color="#F1CB6B"/>
<stop offset="0.6269" stop-color="#F8DD97"/>
<stop offset="0.6866" stop-color="#FAE1A1"/>
<stop offset="0.7936" stop-color="#F5D47B"/>
<stop offset="1" stop-color="#EBB829"/>
</linearGradient>
<linearGradient id="paint1_linear_183_4011" x1="1.85669" y1="29.0492" x2="7.90434" y2="29.0492" gradientUnits="userSpaceOnUse">
<stop stop-color="#C9A33D"/>
<stop offset="0.1066" stop-color="#D2AC47"/>
<stop offset="0.2879" stop-color="#E9C362"/>
<stop offset="0.3394" stop-color="#F1CB6B"/>
<stop offset="0.6269" stop-color="#F8DD97"/>
<stop offset="0.6866" stop-color="#FAE1A1"/>
<stop offset="0.7936" stop-color="#F5D47B"/>
<stop offset="1" stop-color="#EBB829"/>
</linearGradient>
<linearGradient id="paint2_linear_183_4011" x1="2.65376" y1="37.4079" x2="7.98468" y2="37.4079" gradientUnits="userSpaceOnUse">
<stop stop-color="#C9A33D"/>
<stop offset="0.1066" stop-color="#D2AC47"/>
<stop offset="0.2879" stop-color="#E9C362"/>
<stop offset="0.3394" stop-color="#F1CB6B"/>
<stop offset="0.6269" stop-color="#F8DD97"/>
<stop offset="0.6866" stop-color="#FAE1A1"/>
<stop offset="0.7936" stop-color="#F5D47B"/>
<stop offset="1" stop-color="#EBB829"/>
</linearGradient>
<linearGradient id="paint3_linear_183_4011" x1="-3.2332e-06" y1="21.9851" x2="7.64256" y2="21.9851" gradientUnits="userSpaceOnUse">
<stop stop-color="#C9A33D"/>
<stop offset="0.1066" stop-color="#D2AC47"/>
<stop offset="0.2879" stop-color="#E9C362"/>
<stop offset="0.3394" stop-color="#F1CB6B"/>
<stop offset="0.6269" stop-color="#F8DD97"/>
<stop offset="0.6866" stop-color="#FAE1A1"/>
<stop offset="0.7936" stop-color="#F5D47B"/>
<stop offset="1" stop-color="#EBB829"/>
</linearGradient>
<linearGradient id="paint4_linear_183_4011" x1="3.57083" y1="15.15" x2="8.71183" y2="15.15" gradientUnits="userSpaceOnUse">
<stop stop-color="#C9A33D"/>
<stop offset="0.1066" stop-color="#D2AC47"/>
<stop offset="0.2879" stop-color="#E9C362"/>
<stop offset="0.3394" stop-color="#F1CB6B"/>
<stop offset="0.6269" stop-color="#F8DD97"/>
<stop offset="0.6866" stop-color="#FAE1A1"/>
<stop offset="0.7936" stop-color="#F5D47B"/>
<stop offset="1" stop-color="#EBB829"/>
</linearGradient>
<linearGradient id="paint5_linear_183_4011" x1="1.03216" y1="43.9968" x2="7.95384" y2="43.9968" gradientUnits="userSpaceOnUse">
<stop stop-color="#C9A33D"/>
<stop offset="0.1066" stop-color="#D2AC47"/>
<stop offset="0.2879" stop-color="#E9C362"/>
<stop offset="0.3394" stop-color="#F1CB6B"/>
<stop offset="0.6269" stop-color="#F8DD97"/>
<stop offset="0.6866" stop-color="#FAE1A1"/>
<stop offset="0.7936" stop-color="#F5D47B"/>
<stop offset="1" stop-color="#EBB829"/>
</linearGradient>
<linearGradient id="paint6_linear_183_4011" x1="4.88571" y1="4.89835" x2="9.14874" y2="4.89835" gradientUnits="userSpaceOnUse">
<stop stop-color="#C9A33D"/>
<stop offset="0.1066" stop-color="#D2AC47"/>
<stop offset="0.2879" stop-color="#E9C362"/>
<stop offset="0.3394" stop-color="#F1CB6B"/>
<stop offset="0.6269" stop-color="#F8DD97"/>
<stop offset="0.6866" stop-color="#FAE1A1"/>
<stop offset="0.7936" stop-color="#F5D47B"/>
<stop offset="1" stop-color="#EBB829"/>
</linearGradient>
</defs>
</svg>
