<svg width="67" height="57" viewBox="0 0 67 57" fill="none" xmlns="http://www.w3.org/2000/svg">
<path d="M55.7377 25.7716C51.5542 25.0517 47.3122 24.7267 43.0679 24.8007C38.7893 24.8881 35.442 25.4445 35.4508 25.7354C35.4596 26.0263 38.793 26.0466 42.9116 26.3677C47.0218 26.6848 51.1129 27.2136 55.1687 27.952C57.7291 28.4076 59.1528 28.6752 60.0014 28.7264L59.16 29.3057L57.0648 30.6669C55.7155 31.5278 54.4988 32.3117 53.4853 32.9887C51.4554 34.3372 50.2416 35.2637 50.3601 35.4753C50.4786 35.6869 51.9115 35.1497 54.1151 34.0631C55.2141 33.5213 56.5044 32.85 57.9265 32.059C58.6436 31.6819 59.3705 31.2276 60.1257 30.7585C60.5031 30.5168 60.8919 30.2691 61.2857 29.99C61.5246 29.8139 62.6394 29.0691 62.4309 28.2202C62.4116 28.115 62.4066 28.0095 62.3787 27.9016L62.2935 27.6437C62.2312 27.5251 62.1807 27.4291 62.1582 27.304C62.0483 27.0951 61.9726 26.8826 61.8773 26.6877C61.6725 26.2981 61.4765 25.9254 61.2835 25.5584C60.8976 24.8243 60.4533 24.1714 60.0438 23.5434C59.2192 22.2904 58.4293 21.1994 57.7403 20.3003C56.3568 18.5051 55.363 17.4925 55.1433 17.6368C54.9237 17.7811 55.5148 19.056 56.5938 21.0257C57.1445 22.0047 57.8016 23.1584 58.5243 24.4505C58.8657 25.0999 59.2645 25.7623 59.6383 26.4595L59.76 26.691C58.4448 26.3053 57.1073 26 55.7549 25.777" fill="#FF19CD"/>
<path d="M32.4172 25.9976C32.4037 25.6155 31.338 25.4119 30.0434 25.5953C28.7488 25.7787 26.2526 26.5146 26.3119 26.9014C26.3712 27.2883 28.8935 27.1369 30.1572 26.9769C31.421 26.817 32.4337 26.3854 32.4172 25.9976Z" fill="#FF19CD"/>
<path d="M23.2887 27.5394C23.2398 27.2408 22.1098 27.2439 20.7759 27.5993C19.442 27.9547 16.9291 28.9877 17.0208 29.2855C17.1125 29.5832 19.7146 29.0078 21.0233 28.6729C22.3319 28.338 23.3462 27.8407 23.3056 27.5305" fill="#FF19CD"/>
<path d="M14.8084 30.0816C14.7384 29.8662 13.6125 30.069 12.3163 30.592C11.02 31.115 8.59262 32.4202 8.69683 32.6321C8.80103 32.844 11.332 31.8591 12.6089 31.3679C13.8859 30.8766 14.8785 30.2971 14.8141 30.0786" fill="#FF19CD"/>
<path d="M4.10399 35.3563C5.2993 34.6413 6.23964 34.0171 6.16839 33.8816C6.09713 33.7461 5.03267 34.1616 3.81478 34.8885C3.06624 35.3337 2.34175 35.8181 1.64433 36.3397C1.19959 36.6189 0.808663 36.9759 0.490188 37.3934C0.978551 37.2119 1.44159 36.9684 1.86793 36.669L4.10132 35.3649" fill="#FF19CD"/>
</svg>
