<svg width="33" height="21" viewBox="0 0 33 21" fill="none" xmlns="http://www.w3.org/2000/svg">
<path d="M31.4401 19.3554C31.3896 18.0455 31.5896 16.711 31.5998 15.3994C31.6164 13.2731 31.4341 11.1444 31.4887 9.01883C30.2743 10.0186 29.1863 11.1784 27.9539 12.1562C26.5622 13.2603 24.9865 14.3222 23.788 15.6384C23.7241 12.4751 23.6661 9.3102 23.6207 6.14613C21.1082 8.12384 18.487 10.1965 16.1629 12.3782L15.5368 2.95302C12.6997 4.75737 10.1852 7.08784 7.32916 8.8972C7.40278 6.20608 7.22495 3.41593 7.43353 0.749798C5.10965 2.30822 2.8821 4.3738 0.750199 6.17923" stroke="#FF2525" stroke-width="1.5" stroke-miterlimit="1.5" stroke-linecap="round" stroke-linejoin="round"/>
</svg>
