<svg width="70" height="66" viewBox="0 0 70 66" fill="none" xmlns="http://www.w3.org/2000/svg">
<path d="M45.7296 13.0403C42.7129 16.0268 39.9835 19.2903 37.5775 22.7876C35.1625 26.3206 33.6704 29.3681 33.9122 29.53C34.1541 29.6918 36.1075 26.9907 38.762 23.8253C41.4083 20.6644 44.2159 17.6421 47.1736 14.7703C49.0321 12.9512 50.0772 11.9481 50.6119 11.2872L50.5945 12.3086L50.4849 14.8048C50.4014 16.4031 50.3325 17.8488 50.2946 19.067C50.2125 21.5026 50.2613 23.0288 50.5024 23.0554C50.7434 23.0819 51.1388 21.6036 51.5349 19.1788C51.7325 17.9695 51.936 16.5293 52.1185 14.9123C52.2283 14.1096 52.281 13.254 52.3379 12.3668C52.3605 11.9192 52.3849 11.4589 52.3865 10.9762C52.382 10.6794 52.4237 9.33936 51.6116 9.01579C51.5148 8.97035 51.426 8.91314 51.322 8.87315L51.0626 8.79261C50.9299 8.77445 50.8224 8.75974 50.7075 8.70539C50.4737 8.6734 50.2568 8.61153 50.0427 8.57581C49.6066 8.51616 49.1895 8.45909 48.7786 8.40289C47.9569 8.29049 47.1674 8.27263 46.4184 8.24099C44.9194 8.18405 43.5725 8.19297 42.4405 8.23128C40.1755 8.31422 38.7739 8.53458 38.7637 8.79718C38.7535 9.05979 40.1346 9.31953 42.3646 9.58595C43.4814 9.70652 44.8021 9.84212 46.2737 10.0048C47.0005 10.1042 47.7714 10.1646 48.556 10.2655L48.8152 10.3009C47.737 11.1472 46.7114 12.0584 45.744 13.0294" fill="#2E2E2E"/>
</svg>
