<svg width="151" height="85" viewBox="0 0 151 85" fill="none" xmlns="http://www.w3.org/2000/svg">
<path d="M141.32 85H9.27823C4.15405 85 0 80.8459 0 75.7217V9.27824C0 4.15407 4.15394 0 9.27823 0H141.32C146.444 0 150.598 4.15395 150.598 9.27824V75.7217C150.598 80.8459 146.444 85 141.32 85Z" fill="#E39AEB"/>
<path d="M72.2997 37.4749H48.2435L40.0075 43.3927L41.185 37.4749C38.1428 37.4749 35.6766 35.0088 35.6766 31.9665V22.8502C35.6766 19.808 38.1428 17.3418 41.185 17.3418H72.2999C75.3421 17.3418 77.8083 19.808 77.8083 22.8502V31.9665C77.8081 35.0087 75.342 37.4749 72.2997 37.4749Z" fill="white"/>
<path d="M51.0527 27.8867C51.3173 26.2561 50.21 24.7197 48.5794 24.4551C46.9488 24.1904 45.4124 25.2978 45.1477 26.9284C44.8831 28.559 45.9904 30.0954 47.621 30.36C49.2516 30.6247 50.788 29.5173 51.0527 27.8867Z" fill="#000300"/>
<path d="M60.1872 27.8867C60.4518 26.2561 59.3445 24.7197 57.7139 24.4551C56.0833 24.1905 54.5469 25.2978 54.2823 26.9284C54.0176 28.559 55.125 30.0954 56.7556 30.36C58.3862 30.6247 59.9225 29.5173 60.1872 27.8867Z" fill="#000300"/>
<path d="M67.5041 29.5241C68.6721 28.3561 68.6721 26.4623 67.5041 25.2942C66.336 24.1261 64.4422 24.1261 63.2741 25.2942C62.1061 26.4623 62.1061 28.3561 63.2741 29.5241C64.4422 30.6922 66.336 30.6922 67.5041 29.5241Z" fill="#000300"/>
<path d="M88.974 60.6135H104.86L113.093 65.9028L111.916 60.6135H111.331C114.372 60.6135 116.837 58.4091 116.837 55.69V47.5416C116.837 44.8225 114.372 42.6182 111.331 42.6182H88.974C85.9331 42.6182 83.4681 44.8225 83.4681 47.5416V55.69C83.4681 58.4092 85.9331 60.6135 88.974 60.6135Z" fill="white"/>
<path d="M100.201 47.3393C100.201 47.3393 98.8975 45.4984 96.8083 45.8501C94.719 46.2018 93.7288 48.4592 94.0309 49.9023C94.3332 51.3453 94.4325 53.5248 100.201 57.5786C100.201 57.5786 105.552 54.0031 106.147 51.0347C106.742 48.0663 105.798 46.7983 104.277 46.0178C102.756 45.2374 100.733 46.4194 100.201 47.3393Z" fill="#FF1300"/>
<path d="M20.0215 54.5346C27.046 54.5346 32.7405 48.8402 32.7405 41.8157C32.7405 34.7912 27.046 29.0967 20.0215 29.0967C12.997 29.0967 7.30255 34.7912 7.30255 41.8157C7.30255 48.8402 12.997 54.5346 20.0215 54.5346Z" fill="#FFC816"/>
<path d="M21.5444 42.0443C23.5594 41.2097 24.5162 38.8996 23.6816 36.8847C22.8469 34.8697 20.5369 33.9129 18.5219 34.7475C16.507 35.5822 15.5501 37.8922 16.3848 39.9072C17.2194 41.9221 19.5295 42.879 21.5444 42.0443Z" fill="#EEFCFF"/>
<path d="M26.0145 49.1849H14.0294C14.0294 45.8754 16.7124 43.1924 20.0219 43.1924C23.3315 43.1924 26.0145 45.8754 26.0145 49.1849Z" fill="#EEFCFF"/>
<path d="M132.983 78.6225C140.007 78.6225 145.702 72.928 145.702 65.9036C145.702 58.8791 140.007 53.1846 132.983 53.1846C125.958 53.1846 120.264 58.8791 120.264 65.9036C120.264 72.928 125.958 78.6225 132.983 78.6225Z" fill="#FFC816"/>
<path d="M135.771 65.2766C137.313 63.7345 137.313 61.2342 135.771 59.6921C134.229 58.15 131.728 58.15 130.186 59.6921C128.644 61.2342 128.644 63.7345 130.186 65.2767C131.728 66.8188 134.229 66.8188 135.771 65.2766Z" fill="#EEFCFF"/>
<path d="M138.976 73.2728H126.99C126.99 69.9633 129.673 67.2803 132.983 67.2803C136.293 67.2803 138.976 69.9633 138.976 73.2728Z" fill="#EEFCFF"/>
<mask id="mask0_565_2750" style="mask-type:luminance" maskUnits="userSpaceOnUse" x="0" y="0" width="151" height="85">
<path d="M141.32 85H9.27823C4.15405 85 0 80.8459 0 75.7217V9.27824C0 4.15407 4.15394 0 9.27823 0H141.32C146.444 0 150.598 4.15395 150.598 9.27824V75.7217C150.598 80.8459 146.444 85 141.32 85Z" fill="white"/>
</mask>
<g mask="url(#mask0_565_2750)">
<path d="M157.083 -7.2666H-9.02509V12.277H157.083V-7.2666Z" fill="#FAD7FF"/>
</g>
<path d="M11.4144 7.05326C11.7642 5.57194 10.8469 4.08755 9.36557 3.73777C7.88425 3.38799 6.39986 4.30528 6.05008 5.78659C5.7003 7.26791 6.61759 8.7523 8.0989 9.10208C9.58022 9.45186 11.0646 8.53457 11.4144 7.05326Z" fill="#FF1300"/>
<path d="M19.4724 7.05424C19.8222 5.57292 18.9049 4.08853 17.4236 3.73875C15.9422 3.38897 14.4578 4.30626 14.1081 5.78757C13.7583 7.26889 14.6756 8.75328 16.1569 9.10306C17.6382 9.45284 19.1226 8.53555 19.4724 7.05424Z" fill="#FFC816"/>
<path d="M27.531 7.05424C27.8807 5.57292 26.9635 4.08853 25.4821 3.73875C24.0008 3.38897 22.5164 4.30626 22.1667 5.78757C21.8169 7.26889 22.7342 8.75328 24.2155 9.10306C25.6968 9.45284 27.1812 8.53555 27.531 7.05424Z" fill="#583B68"/>
</svg>
