<svg width="46" height="32" viewBox="0 0 46 32" fill="none" xmlns="http://www.w3.org/2000/svg">
<path d="M7.69356 9.04661L13.4502 29.2422L9.60342 30.3387L11.5071 27.8972L5.71718 27.6488L8.93824 24.3571L3.62919 23.9716L9.50477 20.8727L4.55143 19.9111L8.12818 16.0433L3.78083 15.3837L5.20364 13.0793L1.69284 11.7065L7.69356 9.04661Z" fill="#1B7EFF"/>
<rect width="23" height="21" transform="translate(7.6936 9.0459) rotate(-15.9099)" fill="#1B7EFF"/>
<path d="M16.5908 22.107L14.4132 14.4673L15.5441 14.145L17.7218 21.7847L16.5908 22.107ZM11.917 15.4284L11.6276 14.4129L17.8824 12.6299L18.1719 13.6455L11.917 15.4284ZM21.2933 20.7666L19.5367 14.6041L20.4137 14.3541L21.1374 16.893L21.0913 16.9061C20.8347 16.006 20.8434 15.2923 21.1173 14.765C21.3968 14.2278 21.9327 13.8462 22.7251 13.6204L22.9329 13.5612L23.2158 14.5536L22.8234 14.6655C22.2079 14.8409 21.7819 15.1412 21.5454 15.5663C21.3067 15.9837 21.275 16.5002 21.4505 17.1157L22.4011 20.4508L21.2933 20.7666ZM26.4982 21.8784L26.2153 20.8859L27.1039 20.6326C27.3655 20.5581 27.5749 20.461 27.7321 20.3413C27.8992 20.2271 28.0185 20.0766 28.0901 19.8899C28.1693 19.7009 28.2112 19.4685 28.2158 19.1927L28.2927 12.1082L29.3775 11.799L29.2674 19.2049C29.2606 19.6477 29.1817 20.0279 29.031 20.3454C28.8825 20.6706 28.6631 20.9369 28.3728 21.1444C28.0925 21.3574 27.7407 21.5242 27.3176 21.6448L26.4982 21.8784ZM27.6556 18.8033L27.3924 17.8801L28.7311 17.4985L28.9943 18.4218L27.6556 18.8033ZM27.5402 18.8362L23.6189 13.4405L24.7498 13.1181L28.5788 18.5402L27.5402 18.8362Z" fill="white"/>
<path d="M35.5691 22.9368L29.8125 2.74121L39.4294 -4.42266e-05L32.5922 3.373L37.4204 3.89557L34.4299 6.17211L39.6138 6.11859L34.6999 8.94338L38.8167 10.6181L35.6406 14.0676L40.3184 15.8866L37.0974 19.1782L40.6082 20.551L35.5691 22.9368Z" fill="#1B7EFF"/>
</svg>
