<svg width="256" height="197" viewBox="0 0 256 197" fill="none" xmlns="http://www.w3.org/2000/svg">
<path d="M233.798 55.2413H174.146C174.001 55.2428 173.863 55.3009 173.761 55.4031C173.659 55.5054 173.601 55.6436 173.599 55.7882V100.414C173.601 100.558 173.66 100.696 173.762 100.798C173.864 100.9 174.002 100.958 174.146 100.961H233.798C233.943 100.959 234.081 100.901 234.183 100.799C234.285 100.697 234.343 100.558 234.345 100.414C234.617 65.6632 234.536 57.7788 234.378 55.9719C234.362 55.7795 234.355 55.2326 233.798 55.2413ZM179.905 95.4878C179.079 96.0274 178.279 96.6003 177.508 97.2151C176.963 97.6491 176.186 96.8809 176.736 96.4426C177.578 95.7675 178.451 95.1343 179.353 94.5431C179.944 94.1569 180.491 95.1059 179.905 95.4878ZM179.237 61.8975C178.268 61.0071 177.351 60.0628 176.488 59.0692C176.028 58.5412 176.798 57.7672 177.261 58.2967C178.123 59.2903 179.041 60.2345 180.009 61.1249C180.523 61.6009 179.747 62.372 179.237 61.8975ZM214.986 81.5317H193.285C193.14 81.5317 193.001 81.4741 192.899 81.3716C192.796 81.269 192.739 81.1299 192.739 80.9849C192.739 80.8399 192.796 80.7008 192.899 80.5982C193.001 80.4957 193.14 80.438 193.285 80.438H214.986C215.131 80.438 215.27 80.4957 215.372 80.5982C215.475 80.7008 215.532 80.8399 215.532 80.9849C215.532 81.1299 215.475 81.269 215.372 81.3716C215.27 81.4741 215.131 81.5317 214.986 81.5317ZM193.582 76.7953H214.825C214.965 76.8025 215.097 76.8632 215.193 76.9648C215.29 77.0665 215.344 77.2013 215.344 77.3414C215.344 77.4816 215.29 77.6164 215.193 77.718C215.097 77.8197 214.965 77.8804 214.825 77.8876H193.573C193.433 77.8804 193.302 77.8197 193.205 77.718C193.108 77.6164 193.055 77.4816 193.055 77.3414C193.055 77.2013 193.108 77.0665 193.205 76.9648C193.302 76.8632 193.433 76.8025 193.573 76.7953H193.582ZM214.986 73.7891H193.575C193.435 73.7819 193.303 73.7212 193.206 73.6196C193.11 73.518 193.056 73.3832 193.056 73.243C193.056 73.1028 193.11 72.968 193.206 72.8664C193.303 72.7648 193.435 72.7041 193.575 72.6969H214.978C215.118 72.7041 215.25 72.7648 215.347 72.8664C215.443 72.968 215.497 73.1028 215.497 73.243C215.497 73.3832 215.443 73.518 215.347 73.6196C215.25 73.7212 215.118 73.7819 214.978 73.7891H214.986ZM227.164 61.4779L230.451 58.3878C230.963 57.9061 231.737 58.6772 231.223 59.1604L227.936 62.2504C227.411 62.7322 226.643 61.9597 227.156 61.4779H227.164ZM230.916 97.0806L228.168 94.5894C227.645 94.1164 228.421 93.3453 228.94 93.8169L231.689 96.3081C232.204 96.7826 231.429 97.5522 230.909 97.0806H230.916Z" fill="#78B5FF"/>
<path d="M255.143 55.7885C255.142 55.6439 255.083 55.5057 254.981 55.4035C254.879 55.3012 254.741 55.2431 254.596 55.2416C241.903 55.1505 238.179 55.1404 237.019 55.2416C236.723 55.2662 236.281 55.3024 236.296 55.7928V100.418C236.298 100.563 236.356 100.701 236.458 100.803C236.56 100.905 236.698 100.963 236.843 100.965H254.603C254.748 100.963 254.886 100.905 254.988 100.803C255.09 100.701 255.148 100.563 255.15 100.418C255.205 92.3908 255.199 63.8899 255.143 55.7885ZM241.316 87.7962H249.625C249.765 87.8034 249.897 87.864 249.994 87.9657C250.09 88.0673 250.144 88.2021 250.144 88.3423C250.144 88.4824 250.09 88.6173 249.994 88.7189C249.897 88.8205 249.765 88.8812 249.625 88.8884H241.316C241.176 88.8812 241.044 88.8205 240.947 88.7189C240.851 88.6173 240.797 88.4824 240.797 88.3423C240.797 88.2021 240.851 88.0673 240.947 87.9657C241.044 87.864 241.176 87.8034 241.316 87.7962ZM249.625 65.594H241.316C241.171 65.594 241.032 65.5364 240.929 65.4339C240.826 65.3313 240.769 65.1922 240.769 65.0472C240.769 64.9022 240.826 64.7631 240.929 64.6605C241.032 64.558 241.171 64.5003 241.316 64.5003H249.625C249.77 64.5003 249.91 64.558 250.012 64.6605C250.115 64.7631 250.172 64.9022 250.172 65.0472C250.172 65.1922 250.115 65.3313 250.012 65.4339C249.91 65.5364 249.77 65.594 249.625 65.594ZM249.625 77.8908H241.316C241.171 77.8908 241.032 77.8332 240.929 77.7306C240.826 77.628 240.769 77.489 240.769 77.3439C240.769 77.1989 240.826 77.0598 240.929 76.9573C241.032 76.8547 241.171 76.7971 241.316 76.7971H249.625C249.751 76.8231 249.864 76.8917 249.945 76.9913C250.026 77.0909 250.071 77.2155 250.071 77.3439C250.071 77.4724 250.026 77.5969 249.945 77.6965C249.864 77.7962 249.751 77.8648 249.625 77.8908ZM249.625 84.7929H241.316C241.176 84.7856 241.044 84.725 240.947 84.6233C240.851 84.5217 240.797 84.3869 240.797 84.2467C240.797 84.1066 240.851 83.9718 240.947 83.8701C241.044 83.7685 241.176 83.7078 241.316 83.7006H249.625C249.755 83.7208 249.874 83.7868 249.96 83.8867C250.045 83.9865 250.092 84.1138 250.092 84.2453C250.092 84.3768 250.045 84.504 249.96 84.6039C249.874 84.7038 249.755 84.7698 249.625 84.79V84.7929ZM249.625 73.7981H241.316C241.176 73.7909 241.044 73.7302 240.947 73.6286C240.851 73.527 240.797 73.3922 240.797 73.252C240.797 73.1118 240.851 72.977 240.947 72.8754C241.044 72.7738 241.176 72.7131 241.316 72.7059H249.625C249.699 72.7021 249.774 72.7134 249.843 72.7391C249.913 72.7648 249.976 72.8044 250.03 72.8555C250.084 72.9066 250.127 72.9681 250.156 73.0363C250.185 73.1044 250.2 73.1778 250.2 73.252C250.2 73.3262 250.185 73.3996 250.156 73.4678C250.127 73.5359 250.084 73.5974 250.03 73.6485C249.976 73.6996 249.913 73.7392 249.843 73.7649C249.774 73.7906 249.699 73.8019 249.625 73.7981ZM249.625 69.772H241.316C241.171 69.772 241.032 69.7144 240.929 69.6119C240.826 69.5093 240.769 69.3702 240.769 69.2252C240.769 69.0802 240.826 68.9411 240.929 68.8385C241.032 68.736 241.171 68.6783 241.316 68.6783H249.625C249.751 68.7028 249.865 68.7703 249.946 68.8693C250.028 68.9683 250.073 69.0926 250.073 69.2208C250.073 69.3491 250.028 69.4734 249.946 69.5724C249.865 69.6714 249.751 69.7389 249.625 69.7634V69.772Z" fill="#78B5FF"/>
<path d="M255.142 103.149C255.14 103.005 255.082 102.867 254.98 102.765C254.878 102.663 254.74 102.604 254.595 102.603H174.146C174.001 102.604 173.863 102.662 173.761 102.764C173.658 102.867 173.6 103.005 173.599 103.149C173.495 117.827 173.797 119.633 173.02 123.15C172.487 125.662 171.401 128.025 169.84 130.065C168.28 132.105 166.284 133.771 163.999 134.943C161.278 136.424 158.285 137.336 155.201 137.624C151.897 138.137 148.458 138.722 145.765 140.842C138.62 146.467 139.75 155.599 137.292 163.01C137.27 163.091 137.268 163.176 137.284 163.258C137.301 163.341 137.336 163.418 137.387 163.485C137.437 163.551 137.503 163.606 137.578 163.643C137.653 163.681 137.736 163.701 137.82 163.701H218.269C218.388 163.7 218.504 163.66 218.599 163.588C218.694 163.516 218.763 163.415 218.796 163.301C221.077 156.477 220.232 148.14 225.727 142.706C230.485 137.997 237.461 139.62 244.244 136.283C248.802 134.082 252.302 130.165 253.976 125.389C255.278 121.58 255.146 117.597 255.146 113.633C255.142 108.532 255.187 110.341 255.142 103.149ZM247.928 107.038L251.737 104.937C252.353 104.596 252.904 105.541 252.288 105.881L248.479 107.981C247.862 108.323 247.311 107.378 247.928 107.038ZM225.053 116.472C224.603 116.228 224.099 116.103 223.587 116.109C223.076 116.114 222.575 116.25 222.13 116.504C221.51 116.951 221.066 117.601 220.873 118.341C219.861 121.505 221.354 124.12 219.085 126.982C218.628 127.551 218.01 127.971 217.312 128.186C216.614 128.402 215.868 128.403 215.169 128.19C214.532 127.95 213.954 127.575 213.475 127.09C212.997 126.606 212.629 126.024 212.397 125.383C211.345 122.523 212.901 118.565 210.712 116.537C210.258 116.131 209.706 115.851 209.11 115.726C208.514 115.601 207.895 115.634 207.316 115.824C204.336 116.739 205.01 120.342 204.817 122.706C204.623 125.069 203.327 127.958 200.54 127.749C199.363 127.627 198.276 127.064 197.497 126.173C196.719 125.282 196.307 124.128 196.345 122.946C196.02 120.387 195.989 117.8 196.252 115.235C196.325 114.54 197.418 114.536 197.346 115.235C197.045 118.249 197.161 121.29 197.692 124.272C198.5 126.876 201.849 127.568 203.017 125.187C204.341 122.849 203.332 120.058 204.158 117.587C204.491 116.649 205.126 115.847 205.963 115.307C206.8 114.768 207.793 114.522 208.785 114.606C209.777 114.691 210.713 115.103 211.447 115.776C212.18 116.45 212.67 117.348 212.838 118.329C213.075 119.857 213.15 121.405 213.064 122.949C213.021 123.689 213.159 124.43 213.467 125.105C213.776 125.78 214.245 126.369 214.833 126.821C215.122 127.008 215.445 127.135 215.784 127.196C216.122 127.258 216.469 127.251 216.805 127.178C217.141 127.105 217.46 126.966 217.742 126.769C218.024 126.573 218.265 126.323 218.45 126.033C219.726 124.044 219.215 122.306 219.428 120.102C219.411 119.224 219.6 118.354 219.979 117.562C220.358 116.77 220.917 116.078 221.611 115.54C222.144 115.261 222.729 115.097 223.328 115.056C223.928 115.015 224.53 115.099 225.096 115.303C225.661 115.507 226.178 115.827 226.614 116.241C227.049 116.655 227.394 117.156 227.626 117.71C228.189 119.024 228.448 120.448 228.383 121.877C228.332 123.57 228.198 125.26 227.981 126.94C227.89 127.63 226.803 127.637 226.887 126.94C226.99 126.088 227.091 125.234 227.168 124.379C227.398 121.809 227.736 117.934 225.053 116.472ZM219.309 142.267H150.913C150.774 142.26 150.642 142.2 150.545 142.098C150.449 141.996 150.395 141.862 150.395 141.721C150.395 141.581 150.449 141.446 150.545 141.345C150.642 141.243 150.774 141.182 150.913 141.175H219.309C219.449 141.182 219.581 141.243 219.678 141.345C219.774 141.446 219.828 141.581 219.828 141.721C219.828 141.862 219.774 141.996 219.678 142.098C219.581 142.2 219.449 142.26 219.309 142.267ZM183.143 149.031H204.77C204.91 149.038 205.042 149.099 205.139 149.2C205.235 149.302 205.289 149.437 205.289 149.577C205.289 149.717 205.235 149.852 205.139 149.953C205.042 150.055 204.91 150.116 204.77 150.123H183.143C183.003 150.116 182.871 150.055 182.774 149.953C182.678 149.852 182.624 149.717 182.624 149.577C182.624 149.437 182.678 149.302 182.774 149.2C182.871 149.099 183.003 149.038 183.143 149.031ZM207.088 147.15H184.3C184.155 147.15 184.016 147.092 183.913 146.99C183.811 146.887 183.753 146.748 183.753 146.603C183.753 146.458 183.811 146.319 183.913 146.216C184.016 146.114 184.155 146.056 184.3 146.056H207.085C207.23 146.056 207.369 146.114 207.472 146.216C207.574 146.319 207.632 146.458 207.632 146.603C207.632 146.748 207.574 146.887 207.472 146.99C207.369 147.092 207.23 147.15 207.085 147.15H207.088ZM151.379 149.031H164.13C164.27 149.038 164.402 149.099 164.499 149.2C164.595 149.302 164.649 149.437 164.649 149.577C164.649 149.717 164.595 149.852 164.499 149.953C164.402 150.055 164.27 150.116 164.13 150.123H151.379C151.251 150.042 151.158 149.915 151.118 149.768C151.079 149.621 151.096 149.465 151.167 149.33C151.23 149.224 151.3 149.121 151.376 149.023L151.379 149.031ZM165.496 147.15H152.064C151.919 147.15 151.779 147.092 151.677 146.99C151.574 146.887 151.517 146.748 151.517 146.603C151.517 146.458 151.574 146.319 151.677 146.216C151.779 146.114 151.919 146.056 152.064 146.056H165.493C165.638 146.056 165.777 146.114 165.88 146.216C165.982 146.319 166.04 146.458 166.04 146.603C166.04 146.748 165.982 146.887 165.88 146.99C165.777 147.092 165.638 147.15 165.493 147.15H165.496ZM161.704 138.704L167.925 137.268C168.611 137.109 168.901 138.163 168.214 138.321L161.994 139.757C161.306 139.911 161.017 138.856 161.701 138.699L161.704 138.704ZM177.473 105.181C178.917 105.728 180.323 106.372 181.681 107.106C182.301 107.442 181.748 108.385 181.13 108.049C179.855 107.358 178.537 106.752 177.182 106.234C176.534 105.981 176.818 104.924 177.476 105.175L177.473 105.181ZM217.718 138.978C217.061 138.738 217.346 137.676 218.007 137.923L222.708 139.633C223.364 139.872 223.079 140.928 222.418 140.686L217.718 138.978Z" fill="#CCEAFF"/>
<path d="M217.35 165.345H136.901C136.782 165.347 136.666 165.387 136.572 165.459C136.477 165.532 136.408 165.632 136.374 165.746C135.081 169.986 132.086 172.419 127.839 173.766C121.22 175.867 115.31 175.708 109.81 180.152C109.428 180.46 109.755 181.085 110.196 181.085C174.816 181.085 187.844 181.131 190.41 181.058C191.092 181.037 190.691 181.154 191.612 180.479C198.312 175.544 207.902 176.906 213.758 172.188C215.73 170.61 217.169 168.464 217.878 166.04C217.9 165.958 217.904 165.873 217.887 165.79C217.871 165.707 217.836 165.629 217.785 165.562C217.734 165.495 217.669 165.441 217.593 165.403C217.518 165.365 217.435 165.346 217.35 165.345Z" fill="#CCEAFF"/>
<path d="M187.96 183.603C101.477 183.603 107.35 183.469 107.039 183.873C105.684 185.632 104.696 187.646 104.134 189.794C104.113 189.875 104.11 189.96 104.127 190.043C104.143 190.125 104.178 190.202 104.229 190.269C104.28 190.336 104.345 190.39 104.42 190.428C104.495 190.466 104.577 190.486 104.661 190.487H185.111C185.23 190.486 185.346 190.446 185.441 190.374C185.536 190.301 185.605 190.2 185.637 190.085C186.193 188.035 187.142 186.112 188.432 184.424C188.695 184.084 188.335 183.603 187.96 183.603Z" fill="#CCEAFF"/>
<path d="M191.814 20.6301V10.1865H174.692V20.6113C176.125 20.5577 169.711 20.6301 191.814 20.6301ZM179.951 12.7529C179.953 12.6085 180.011 12.4705 180.113 12.3683C180.215 12.2662 180.353 12.208 180.498 12.2061H185.81C185.954 12.2083 186.092 12.2667 186.194 12.3687C186.296 12.4708 186.355 12.6086 186.357 12.7529V18.0651C186.354 18.2092 186.295 18.3466 186.193 18.4485C186.092 18.5504 185.954 18.609 185.81 18.612H180.498C180.354 18.6097 180.216 18.5514 180.114 18.4493C180.012 18.3472 179.953 18.2095 179.951 18.0651V12.7529Z" fill="white"/>
<path d="M254.048 20.6301V10.1865C253.614 10.2024 255.865 10.1865 235.407 10.1865V20.6286L254.048 20.6301ZM239.264 13.1942H250.04C250.18 13.2014 250.312 13.2621 250.409 13.3637C250.505 13.4653 250.559 13.6001 250.559 13.7403C250.559 13.8804 250.505 14.0153 250.409 14.1169C250.312 14.2185 250.18 14.2792 250.04 14.2864H239.264C239.124 14.2792 238.992 14.2185 238.896 14.1169C238.799 14.0153 238.745 13.8804 238.745 13.7403C238.745 13.6001 238.799 13.4653 238.896 13.3637C238.992 13.2621 239.124 13.2014 239.264 13.1942ZM239.206 16.3768H249.984C250.124 16.3841 250.256 16.4447 250.352 16.5464C250.449 16.648 250.503 16.7828 250.503 16.923C250.503 17.0631 250.449 17.1979 250.352 17.2996C250.256 17.4012 250.124 17.4619 249.984 17.4691H239.206C239.066 17.4619 238.934 17.4012 238.838 17.2996C238.741 17.1979 238.687 17.0631 238.687 16.923C238.687 16.7828 238.741 16.648 238.838 16.5464C238.934 16.4447 239.066 16.3841 239.206 16.3768Z" fill="white"/>
<path d="M234.317 20.6301V10.1865H192.909V20.6286L234.317 20.6301Z" fill="white"/>
<path d="M184.771 192.234H104.321C104.176 192.234 104.037 192.292 103.934 192.394C103.832 192.497 103.774 192.636 103.774 192.781C103.774 192.926 103.832 193.065 103.934 193.167C104.037 193.27 104.176 193.328 104.321 193.328H184.771C184.916 193.328 185.055 193.27 185.157 193.167C185.26 193.065 185.317 192.926 185.317 192.781C185.317 192.636 185.26 192.497 185.157 192.394C185.055 192.292 184.916 192.234 184.771 192.234Z" fill="#CCEAFF"/>
<path d="M184.77 195.489H104.32C104.18 195.496 104.048 195.557 103.952 195.659C103.855 195.76 103.802 195.895 103.802 196.035C103.802 196.176 103.855 196.31 103.952 196.412C104.048 196.514 104.18 196.574 104.32 196.582H184.77C184.91 196.574 185.042 196.514 185.138 196.412C185.235 196.31 185.289 196.176 185.289 196.035C185.289 195.895 185.235 195.76 185.138 195.659C185.042 195.557 184.91 195.496 184.77 195.489Z" fill="#CCEAFF"/>
<path d="M255.143 9.64108C255.141 9.49674 255.083 9.35895 254.981 9.25688C254.879 9.15481 254.741 9.09648 254.597 9.09424H174.147C174.003 9.09648 173.865 9.15481 173.763 9.25688C173.661 9.35895 173.602 9.49674 173.6 9.64108C173.522 20.6966 173.6 53.0413 173.6 53.0529C173.602 53.1972 173.661 53.335 173.763 53.4371C173.865 53.5392 174.003 53.5975 174.147 53.5997H254.597C254.74 53.5961 254.877 53.5373 254.979 53.4355C255.081 53.3338 255.14 53.1968 255.143 53.0529C255.033 37.8512 255.248 24.5346 255.143 9.64108ZM235.409 10.1879H254.05V20.63H235.409V10.1879ZM192.909 10.1879H234.317V20.63H192.909V10.1879ZM174.694 10.1879H191.815V20.63C191.815 20.63 175.598 20.5779 174.694 20.6127V10.1879ZM220.736 43.1229H208.005C207.909 43.1214 207.816 43.0951 207.734 43.0466C207.651 42.9981 207.583 42.929 207.535 42.8462C207.488 42.7633 207.463 42.6695 207.462 42.574C207.462 42.4784 207.486 42.3844 207.533 42.3012L213.899 31.3774C213.948 31.2966 214.017 31.2298 214.1 31.1835C214.183 31.1371 214.276 31.1128 214.37 31.1128C214.465 31.1128 214.558 31.1371 214.641 31.1835C214.723 31.2298 214.793 31.2966 214.842 31.3774C215.105 31.8287 219.292 39.1446 221.207 42.3012C221.253 42.3846 221.277 42.4784 221.276 42.5736C221.276 42.6688 221.25 42.7622 221.203 42.8448C221.155 42.9274 221.088 42.9964 221.006 43.0451C220.924 43.0938 220.831 43.1206 220.736 43.1229Z" fill="#2755A0"/>
<path d="M239.264 14.2861H250.04C250.18 14.2789 250.312 14.2182 250.409 14.1166C250.505 14.0149 250.559 13.8801 250.559 13.74C250.559 13.5998 250.505 13.465 250.409 13.3634C250.312 13.2617 250.18 13.2011 250.04 13.1938H239.264C239.124 13.2011 238.992 13.2617 238.895 13.3634C238.799 13.465 238.745 13.5998 238.745 13.74C238.745 13.8801 238.799 14.0149 238.895 14.1166C238.992 14.2182 239.124 14.2789 239.264 14.2861Z" fill="black"/>
<path d="M239.207 17.4707H249.985C250.125 17.4634 250.257 17.4028 250.353 17.3011C250.45 17.1995 250.504 17.0647 250.504 16.9245C250.504 16.7844 250.45 16.6496 250.353 16.5479C250.257 16.4463 250.125 16.3856 249.985 16.3784H239.207C239.067 16.3856 238.935 16.4463 238.839 16.5479C238.742 16.6496 238.688 16.7844 238.688 16.9245C238.688 17.0647 238.742 17.1995 238.839 17.3011C238.935 17.4028 239.067 17.4634 239.207 17.4707Z" fill="black"/>
<path d="M185.816 12.2114H180.504C180.359 12.2133 180.221 12.2715 180.119 12.3737C180.017 12.4758 179.959 12.6138 179.957 12.7583V18.0705C179.959 18.2149 180.017 18.3529 180.119 18.4551C180.221 18.5572 180.359 18.6154 180.504 18.6173C186.324 18.6578 185.949 18.6838 186.201 18.4538C186.421 18.1645 186.406 18.8198 186.363 12.7583C186.361 12.6138 186.303 12.4758 186.201 12.3737C186.099 12.2715 185.961 12.2133 185.816 12.2114Z" fill="#FFD2D2"/>
<path d="M221.614 115.539C220.92 116.076 220.361 116.769 219.982 117.561C219.603 118.353 219.415 119.222 219.431 120.1C219.242 122.075 219.689 124.267 218.475 125.997C218.295 126.289 218.058 126.542 217.78 126.743C217.501 126.944 217.186 127.087 216.852 127.166C216.518 127.245 216.171 127.257 215.832 127.202C215.494 127.147 215.169 127.025 214.877 126.844C214.588 126.667 213.182 125.845 213.072 122.949C213.158 121.405 213.082 119.857 212.846 118.329C212.727 117.649 212.457 117.003 212.056 116.44C211.656 115.877 211.135 115.411 210.531 115.074C209.957 114.768 209.323 114.591 208.673 114.554C208.024 114.517 207.374 114.621 206.768 114.86C206.163 115.099 205.617 115.467 205.167 115.938C204.718 116.409 204.376 116.971 204.166 117.587C203.34 120.058 204.348 122.849 203.025 125.187C201.856 127.572 198.507 126.876 197.699 124.272C197.172 121.29 197.056 118.249 197.354 115.235C197.426 114.536 196.332 114.541 196.26 115.235C195.996 117.8 196.027 120.387 196.353 122.946C196.315 124.128 196.728 125.281 197.506 126.172C198.284 127.063 199.371 127.626 200.548 127.749C203.334 127.958 204.63 125.052 204.824 122.706C205.018 120.359 204.344 116.739 207.324 115.824C207.903 115.634 208.521 115.601 209.117 115.726C209.713 115.851 210.266 116.131 210.719 116.537C212.921 118.577 211.333 122.468 212.405 125.383C212.637 126.024 213.005 126.606 213.483 127.09C213.962 127.575 214.539 127.95 215.177 128.19C218.203 129.098 220.349 126.295 220.448 123.056C220.519 120.796 220.265 117.856 222.138 116.504C222.582 116.25 223.084 116.114 223.595 116.109C224.106 116.103 224.611 116.228 225.06 116.472C227.744 117.934 227.405 121.809 227.178 124.371C227.098 125.226 227.004 126.079 226.898 126.931C226.814 127.629 227.9 127.621 227.991 126.931C228.211 125.253 228.34 123.566 228.393 121.868C228.577 115.711 224.252 113.999 221.614 115.539Z" fill="#78B5FF"/>
<path d="M221.207 42.3021C221.046 42.0127 215.048 31.724 214.842 31.3782C214.792 31.2971 214.723 31.2299 214.641 31.1834C214.558 31.1368 214.465 31.1123 214.37 31.1123C214.275 31.1123 214.182 31.1368 214.099 31.1834C214.017 31.2299 213.947 31.2971 213.898 31.3782C212.018 34.5522 207.533 42.3021 207.533 42.3021C207.486 42.3853 207.462 42.4793 207.462 42.5748C207.462 42.6704 207.487 42.7642 207.535 42.847C207.583 42.9299 207.651 42.999 207.733 43.0475C207.815 43.096 207.909 43.1223 208.005 43.1238H220.735C220.83 43.1191 220.921 43.0909 221.001 43.0416C221.082 42.9923 221.149 42.9236 221.196 42.8418C221.243 42.76 221.268 42.6677 221.27 42.5734C221.272 42.4791 221.25 42.3858 221.207 42.3021Z" fill="white"/>
<path d="M217.954 18.1772L214.521 12.2849C214.329 11.968 213.854 11.8509 213.519 12.3688C213.23 12.8172 212.467 14.125 210.145 18.1772C210.098 18.2604 210.074 18.3544 210.074 18.4499C210.075 18.5455 210.1 18.6393 210.147 18.7221C210.195 18.805 210.263 18.8741 210.345 18.9226C210.428 18.9711 210.521 18.9974 210.617 18.9989H217.483C217.577 18.9939 217.668 18.9654 217.748 18.916C217.829 18.8667 217.895 18.798 217.942 18.7163C217.989 18.6346 218.015 18.5425 218.017 18.4483C218.019 18.3541 217.997 18.2609 217.954 18.1772Z" fill="#FF4848"/>
<path d="M193.575 73.7895H214.978C215.118 73.7823 215.25 73.7216 215.347 73.62C215.443 73.5184 215.497 73.3836 215.497 73.2434C215.497 73.1032 215.443 72.9684 215.347 72.8668C215.25 72.7652 215.118 72.7045 214.978 72.6973H193.575C193.435 72.7045 193.303 72.7652 193.207 72.8668C193.11 72.9684 193.056 73.1032 193.056 73.2434C193.056 73.3836 193.11 73.5184 193.207 73.62C193.303 73.7216 193.435 73.7823 193.575 73.7895Z" fill="#2755A0"/>
<path d="M193.575 77.8906H214.825C214.965 77.8834 215.097 77.8227 215.193 77.7211C215.29 77.6194 215.344 77.4846 215.344 77.3445C215.344 77.2043 215.29 77.0695 215.193 76.9679C215.097 76.8662 214.965 76.8055 214.825 76.7983H193.573C193.433 76.8055 193.302 76.8662 193.205 76.9679C193.109 77.0695 193.055 77.2043 193.055 77.3445C193.055 77.4846 193.109 77.6194 193.205 77.7211C193.302 77.8227 193.433 77.8834 193.573 77.8906H193.575Z" fill="#2755A0"/>
<path d="M193.27 81.5317H214.971C215.116 81.5317 215.255 81.4741 215.357 81.3715C215.46 81.269 215.517 81.1299 215.517 80.9848C215.517 80.8398 215.46 80.7007 215.357 80.5981C215.255 80.4956 215.116 80.438 214.971 80.438H193.27C193.125 80.438 192.986 80.4956 192.884 80.5981C192.781 80.7007 192.724 80.8398 192.724 80.9848C192.724 81.1299 192.781 81.269 192.884 81.3715C192.986 81.4741 193.125 81.5317 193.27 81.5317Z" fill="#2755A0"/>
<path d="M227.929 62.2508L231.216 59.1607C231.729 58.6789 230.955 57.9064 230.443 58.3881L227.156 61.4782C226.643 61.96 227.411 62.7325 227.929 62.2508Z" fill="#2755A0"/>
<path d="M228.163 94.5892L230.912 97.0804C231.431 97.552 232.214 96.7823 231.685 96.3078L228.936 93.8167C228.422 93.3451 227.641 94.1161 228.163 94.5892Z" fill="#2755A0"/>
<path d="M179.236 61.8975C179.754 62.372 180.53 61.6081 180.01 61.1249C179.042 60.2346 178.124 59.2903 177.262 58.2967C176.799 57.7658 176.029 58.5412 176.489 59.0692C177.351 60.0628 178.268 61.0071 179.236 61.8975Z" fill="#2755A0"/>
<path d="M177.508 97.2149C178.279 96.6017 179.079 96.0253 179.905 95.4876C180.491 95.1042 179.944 94.1567 179.352 94.5429C178.449 95.1341 177.577 95.7673 176.735 96.4424C176.185 96.8808 176.962 97.6489 177.508 97.2149Z" fill="#2755A0"/>
<path d="M249.626 64.5H241.316C241.171 64.5 241.032 64.5576 240.929 64.6602C240.827 64.7627 240.769 64.9018 240.769 65.0469C240.769 65.1919 240.827 65.331 240.929 65.4335C241.032 65.5361 241.171 65.5937 241.316 65.5937H249.626C249.757 65.5745 249.877 65.5087 249.964 65.4083C250.051 65.3079 250.098 65.1796 250.098 65.0469C250.098 64.9141 250.051 64.7858 249.964 64.6854C249.877 64.585 249.757 64.5192 249.626 64.5Z" fill="#2755A0"/>
<path d="M249.626 68.6694H241.316C241.171 68.6694 241.032 68.727 240.929 68.8296C240.827 68.9321 240.769 69.0712 240.769 69.2163C240.769 69.3613 240.827 69.5004 240.929 69.603C241.032 69.7055 241.171 69.7631 241.316 69.7631H249.626C249.771 69.7631 249.91 69.7055 250.012 69.603C250.115 69.5004 250.172 69.3613 250.172 69.2163C250.172 69.0712 250.115 68.9321 250.012 68.8296C249.91 68.727 249.771 68.6694 249.626 68.6694Z" fill="#2755A0"/>
<path d="M249.625 72.697H241.315C241.175 72.7042 241.043 72.7649 240.947 72.8665C240.85 72.9682 240.796 73.103 240.796 73.2431C240.796 73.3833 240.85 73.5181 240.947 73.6197C241.043 73.7214 241.175 73.7821 241.315 73.7893H249.625C249.699 73.7931 249.773 73.7818 249.843 73.756C249.912 73.7303 249.976 73.6907 250.03 73.6396C250.083 73.5885 250.126 73.527 250.155 73.4589C250.185 73.3907 250.2 73.3173 250.2 73.2431C250.2 73.169 250.185 73.0956 250.155 73.0274C250.126 72.9592 250.083 72.8977 250.03 72.8466C249.976 72.7956 249.912 72.7559 249.843 72.7302C249.773 72.7045 249.699 72.6932 249.625 72.697Z" fill="#2755A0"/>
<path d="M249.626 76.7944H241.316C241.171 76.7944 241.032 76.8521 240.929 76.9546C240.827 77.0572 240.769 77.1962 240.769 77.3413C240.769 77.4863 240.827 77.6254 240.929 77.728C241.032 77.8305 241.171 77.8881 241.316 77.8881H249.626C249.771 77.8881 249.91 77.8305 250.012 77.728C250.115 77.6254 250.172 77.4863 250.172 77.3413C250.172 77.1962 250.115 77.0572 250.012 76.9546C249.91 76.8521 249.771 76.7944 249.626 76.7944Z" fill="#2755A0"/>
<path d="M249.625 83.6978H241.315C241.175 83.705 241.043 83.7656 240.947 83.8673C240.85 83.9689 240.796 84.1037 240.796 84.2439C240.796 84.384 240.85 84.5189 240.947 84.6205C241.043 84.7221 241.175 84.7828 241.315 84.79H249.625C249.757 84.772 249.878 84.7067 249.966 84.6063C250.053 84.5059 250.101 84.3771 250.101 84.2439C250.101 84.1106 250.053 83.9818 249.966 83.8814C249.878 83.781 249.757 83.7158 249.625 83.6978Z" fill="#2755A0"/>
<path d="M249.625 87.7959H241.315C241.175 87.8031 241.043 87.8638 240.947 87.9654C240.85 88.067 240.796 88.2018 240.796 88.342C240.796 88.4822 240.85 88.617 240.947 88.7186C241.043 88.8203 241.175 88.8809 241.315 88.8881H249.625C249.751 88.8628 249.865 88.7946 249.946 88.6951C250.028 88.5955 250.072 88.4707 250.072 88.342C250.072 88.2133 250.028 88.0885 249.946 87.989C249.865 87.8894 249.751 87.8212 249.625 87.7959Z" fill="#2755A0"/>
<path d="M146.687 74.8018C146.687 16.7322 146.857 18.6708 146.398 16.4067C145.852 14.3238 144.635 12.4788 142.935 11.1569C141.236 9.83499 139.148 9.10992 136.995 9.09378H75.1998C73.8619 9.04719 72.5287 9.27752 71.284 9.77033C70.0392 10.2632 68.9097 11.0078 67.9662 11.9577C67.0228 12.9075 66.2858 14.042 65.8014 15.29C65.3169 16.5381 65.0956 17.8728 65.1512 19.2104V76.477C65.1255 77.844 65.3794 79.2018 65.8975 80.4671C66.4156 81.7324 67.1869 82.8784 68.164 83.8348C69.1411 84.7911 70.3033 85.5377 71.5794 86.0285C72.8555 86.5193 74.2185 86.7441 75.5846 86.6891C141.162 85.8023 137.015 86.7889 138.626 86.5082C140.805 86.0957 142.781 84.9646 144.241 83.2957C145.7 81.6269 146.557 79.5168 146.676 77.3031C146.728 76.4727 146.687 75.6321 146.687 74.8018Z" fill="#FFF0B3"/>
<path d="M136.591 89.1647H77.2267C74.567 88.9451 71.8918 89.3182 69.3937 90.257C66.8956 91.1959 64.6368 92.6771 62.7802 94.5941C60.9438 96.7599 59.361 99.1286 58.0626 101.654C58.0221 101.812 58.1147 101.421 58.5501 101.383H58.8553H78.3478C79.8652 99.6853 81.4913 98.0877 83.2159 96.6006C88.6626 91.8599 94.0052 91.9886 97.2486 94.5681C98.0667 95.3834 98.8112 96.2693 99.4736 97.2155C99.708 97.3486 99.5923 97.2487 101.21 97.9388C102.579 98.4086 103.87 99.0816 105.039 99.9352C105.547 100.378 106.014 100.865 106.436 101.391H138.978C139.07 101.393 139.16 101.418 139.24 101.464C139.32 101.51 139.387 101.574 139.436 101.653C139.485 101.731 139.513 101.82 139.519 101.912C139.525 102.003 139.508 102.095 139.47 102.179C140.222 100.894 140.964 99.6039 141.73 98.3265C142.296 97.4151 142.607 96.3686 142.631 95.296C142.654 94.2235 142.39 93.1641 141.865 92.2284C141.341 91.2927 140.574 90.5149 139.647 89.976C138.719 89.4372 137.664 89.157 136.591 89.1647Z" fill="#FFF0B3"/>
<path d="M138.982 101.383H106.44C106.715 101.725 106.957 102.091 107.164 102.477C108.634 104.815 106.6 107.788 103.271 107.242C103.817 107.892 104.29 108.601 104.678 109.356C105.469 110.657 105.807 112.183 105.64 113.696C105.554 114.343 105.263 114.945 104.81 115.415C104.358 115.885 103.766 116.198 103.123 116.309C101.635 116.247 100.218 115.656 99.1289 114.641C98.1884 113.948 97.3311 113.149 96.5741 112.259C93.5706 118.059 89.7219 123.38 85.1541 128.048C85.1541 128.048 112.23 128.048 112.574 128.048C115.798 128.049 118.975 127.287 121.848 125.824C124.72 124.361 127.205 122.24 129.101 119.633C130.507 117.664 138.175 104.298 139.459 102.202C139.505 102.118 139.528 102.024 139.527 101.929C139.525 101.834 139.499 101.741 139.451 101.658C139.403 101.576 139.335 101.507 139.253 101.459C139.17 101.411 139.077 101.385 138.982 101.383Z" fill="#FC9070"/>
<path d="M58.5476 101.383C58.4468 101.391 58.3493 101.423 58.2631 101.476C58.1769 101.529 58.1044 101.602 58.0514 101.688C57.9472 101.833 58.1888 101.433 55.5732 105.895C56.0072 106.283 58.6373 108.727 58.7458 108.891C59.1089 109.122 61.6739 111.894 63.501 113.491C64.3541 114.247 65.45 114.672 66.5897 114.689C70.8834 114.125 70.7633 109.811 78.3468 101.38C52.1692 101.372 59.9972 101.261 58.5476 101.383Z" fill="#FC9070"/>
<path d="M165.493 146.051H152.061C151.916 146.051 151.777 146.108 151.674 146.211C151.572 146.314 151.514 146.453 151.514 146.598C151.514 146.743 151.572 146.882 151.674 146.984C151.777 147.087 151.916 147.144 152.061 147.144H165.493C165.638 147.144 165.778 147.087 165.88 146.984C165.983 146.882 166.04 146.743 166.04 146.598C166.04 146.453 165.983 146.314 165.88 146.211C165.778 146.108 165.638 146.051 165.493 146.051Z" fill="#78B5FF"/>
<path d="M164.127 149.023H151.376C151.236 149.031 151.104 149.091 151.008 149.193C150.911 149.295 150.857 149.429 150.857 149.57C150.857 149.71 150.911 149.845 151.008 149.946C151.104 150.048 151.236 150.108 151.376 150.116H164.127C164.267 150.108 164.399 150.048 164.496 149.946C164.592 149.845 164.646 149.71 164.646 149.57C164.646 149.429 164.592 149.295 164.496 149.193C164.399 149.091 164.267 149.031 164.127 149.023Z" fill="#78B5FF"/>
<path d="M219.31 141.168H150.914C150.774 141.176 150.642 141.236 150.546 141.338C150.449 141.44 150.396 141.574 150.396 141.715C150.396 141.855 150.449 141.99 150.546 142.091C150.642 142.193 150.774 142.253 150.914 142.261H219.31C219.45 142.253 219.582 142.193 219.678 142.091C219.775 141.99 219.829 141.855 219.829 141.715C219.829 141.574 219.775 141.44 219.678 141.338C219.582 141.236 219.45 141.176 219.31 141.168Z" fill="#78B5FF"/>
<path d="M207.084 146.051H184.299C184.154 146.051 184.015 146.108 183.913 146.211C183.81 146.313 183.752 146.452 183.752 146.597C183.752 146.742 183.81 146.881 183.913 146.984C184.015 147.087 184.154 147.144 184.299 147.144H207.084C207.158 147.146 207.231 147.134 207.299 147.107C207.367 147.081 207.43 147.041 207.482 146.99C207.535 146.939 207.577 146.878 207.606 146.811C207.635 146.743 207.65 146.671 207.65 146.597C207.651 146.524 207.637 146.45 207.609 146.382C207.581 146.314 207.539 146.252 207.486 146.201C207.433 146.15 207.37 146.11 207.301 146.084C207.232 146.058 207.158 146.047 207.084 146.051Z" fill="#78B5FF"/>
<path d="M204.768 149.024H183.143C183.003 149.031 182.871 149.092 182.774 149.194C182.678 149.295 182.624 149.43 182.624 149.57C182.624 149.71 182.678 149.845 182.774 149.947C182.871 150.049 183.003 150.109 183.143 150.116H204.771C204.845 150.12 204.919 150.109 204.988 150.083C205.058 150.057 205.121 150.018 205.175 149.967C205.229 149.916 205.272 149.854 205.301 149.786C205.33 149.718 205.345 149.644 205.345 149.57C205.345 149.496 205.33 149.423 205.301 149.355C205.272 149.286 205.229 149.225 205.175 149.174C205.121 149.123 205.058 149.083 204.988 149.057C204.919 149.032 204.845 149.02 204.771 149.024H204.768Z" fill="#78B5FF"/>
<path d="M161.992 139.752L168.213 138.315C168.899 138.157 168.608 137.103 167.924 137.262L161.703 138.698C161.017 138.856 161.307 139.911 161.992 139.752Z" fill="#78B5FF"/>
<path d="M222.715 139.633L218.015 137.923C217.353 137.683 217.068 138.737 217.726 138.978L222.426 140.686C223.087 140.928 223.372 139.872 222.715 139.633Z" fill="#78B5FF"/>
<path d="M177.185 106.228C178.539 106.747 179.858 107.353 181.133 108.044C181.751 108.38 182.303 107.436 181.684 107.101C180.326 106.366 178.92 105.723 177.476 105.175C176.817 104.925 176.534 105.981 177.185 106.228Z" fill="#78B5FF"/>
<path d="M251.737 104.943L247.928 107.044C247.311 107.384 247.863 108.328 248.479 107.987L252.288 105.886C252.904 105.541 252.353 104.596 251.737 104.943Z" fill="#78B5FF"/>
<path d="M199.49 18.2238C199.594 18.3186 199.73 18.3696 199.871 18.3664C200.012 18.3631 200.145 18.3058 200.245 18.2063C200.344 18.1069 200.402 17.9729 200.405 17.8323C200.408 17.6917 200.357 17.5553 200.262 17.4513C198.67 15.805 197.051 14.1857 195.404 12.5934C195.301 12.4986 195.164 12.4476 195.023 12.4508C194.883 12.4541 194.749 12.5114 194.649 12.6108C194.55 12.7103 194.493 12.8443 194.489 12.9849C194.486 13.1255 194.537 13.2619 194.632 13.3659C196.222 15.0122 197.842 16.6315 199.49 18.2238Z" fill="black"/>
<path d="M204.041 18.224C204.144 18.3239 204.282 18.3792 204.425 18.3782C204.569 18.3771 204.706 18.3198 204.808 18.2184C204.909 18.117 204.967 17.9798 204.968 17.8364C204.97 17.6929 204.914 17.5547 204.815 17.4515C203.049 15.6258 201.253 13.8295 199.426 12.0626C199.322 11.9679 199.186 11.9168 199.045 11.9201C198.904 11.9233 198.77 11.9806 198.671 12.0801C198.571 12.1795 198.514 12.3135 198.511 12.4541C198.508 12.5947 198.559 12.7312 198.653 12.8351C200.418 14.6608 202.214 16.4571 204.041 18.224Z" fill="black"/>
<path d="M223.505 18.2238C223.608 18.3237 223.746 18.379 223.889 18.378C224.033 18.3769 224.17 18.3196 224.272 18.2182C224.373 18.1168 224.431 17.9796 224.432 17.8362C224.434 17.6927 224.378 17.5545 224.279 17.4513C222.512 15.6256 220.716 13.8293 218.89 12.0624C218.787 11.9625 218.649 11.9072 218.505 11.9082C218.362 11.9093 218.224 11.9667 218.123 12.068C218.021 12.1694 217.964 12.3066 217.962 12.45C217.961 12.5935 218.016 12.7317 218.116 12.8349C219.876 14.6606 221.672 16.4569 223.505 18.2238Z" fill="black"/>
<path d="M106.556 41.0438C105.235 38.6366 102.024 33.2578 101.826 32.9251C101.776 32.8439 101.707 32.7768 101.625 32.7302C101.542 32.6837 101.449 32.6592 101.354 32.6592C101.259 32.6592 101.166 32.6837 101.083 32.7302C101.001 32.7768 100.931 32.8439 100.882 32.9251C99.2934 35.624 97.717 38.3303 96.1532 41.0438C96.1053 41.1276 96.0803 41.2224 96.0806 41.3188C96.0808 41.4153 96.1064 41.5099 96.1548 41.5934C96.2031 41.6769 96.2724 41.7462 96.3559 41.7945C96.4394 41.8427 96.5341 41.8682 96.6306 41.8684H106.089C106.183 41.8626 106.274 41.8334 106.354 41.7835C106.434 41.7336 106.5 41.6646 106.546 41.5827C106.592 41.5009 106.618 41.4087 106.619 41.3146C106.621 41.2205 106.599 41.1274 106.556 41.0438Z" fill="#2755A0"/>
<path d="M118.811 41.0437C117.49 38.6364 114.279 33.2562 114.082 32.9249C114.032 32.8438 113.963 32.7767 113.88 32.7302C113.798 32.6836 113.704 32.6592 113.609 32.6592C113.514 32.6592 113.421 32.6836 113.338 32.7302C113.256 32.7767 113.186 32.8438 113.137 32.9249C111.549 35.6245 109.973 38.3308 108.408 41.0437C108.361 41.1269 108.337 41.2209 108.337 41.3164C108.337 41.412 108.362 41.5058 108.41 41.5886C108.458 41.6715 108.526 41.7406 108.608 41.7891C108.69 41.8376 108.784 41.8639 108.88 41.8654H118.334C118.428 41.8613 118.52 41.8335 118.601 41.7845C118.682 41.7356 118.749 41.667 118.797 41.5851C118.845 41.5033 118.871 41.4108 118.873 41.3162C118.876 41.2216 118.854 41.1279 118.811 41.0437Z" fill="#2755A0"/>
<path d="M105.764 47.9746H98.4436C98.2994 47.9769 98.1618 48.0352 98.0599 48.1373C97.9581 48.2395 97.9001 48.3772 97.8982 48.5215V55.8402C97.9001 55.9844 97.9581 56.1222 98.0599 56.2243C98.1618 56.3264 98.2994 56.3848 98.4436 56.387C106.256 56.442 105.966 56.4666 106.175 56.1903C106.374 55.9791 106.366 56.3349 106.311 48.5229C106.309 48.3782 106.251 48.2398 106.149 48.1374C106.047 48.0349 105.908 47.9765 105.764 47.9746Z" fill="#FF4848"/>
<path d="M122.449 56.0995C121.128 53.6922 117.916 48.3135 117.718 47.9822C117.669 47.9011 117.6 47.8339 117.517 47.7874C117.435 47.7408 117.342 47.7163 117.247 47.7163C117.152 47.7163 117.059 47.7408 116.976 47.7874C116.893 47.8339 116.824 47.9011 116.775 47.9822C115.372 50.3417 112.237 55.7653 112.046 56.0995C111.999 56.1829 111.975 56.2769 111.975 56.3725C111.976 56.4681 112.001 56.5619 112.048 56.6449C112.096 56.7278 112.164 56.797 112.246 56.8457C112.328 56.8944 112.422 56.9209 112.518 56.9227H121.977C122.071 56.917 122.162 56.8881 122.242 56.8385C122.322 56.7889 122.389 56.7202 122.436 56.6385C122.482 56.5568 122.508 56.4648 122.51 56.3707C122.513 56.2766 122.492 56.1834 122.449 56.0995Z" fill="#2755A0"/>
<path d="M94.391 47.7169L86.9666 55.1398C86.8741 55.2444 86.8249 55.3803 86.8291 55.5199C86.8333 55.6595 86.8907 55.7922 86.9894 55.891C87.0882 55.9897 87.2209 56.0471 87.3605 56.0513C87.5001 56.0555 87.636 56.0063 87.7406 55.9138C90.2569 53.4805 92.7312 51.0057 95.1635 48.4894C95.2583 48.3855 95.3093 48.249 95.306 48.1084C95.3028 47.9678 95.2455 47.8338 95.146 47.7344C95.0466 47.6349 94.9126 47.5776 94.772 47.5744C94.6314 47.5711 94.4949 47.6222 94.391 47.7169Z" fill="black"/>
<path d="M94.3903 19.2901L86.966 26.7145C86.8663 26.8177 86.8112 26.9559 86.8125 27.0994C86.8138 27.2429 86.8715 27.3801 86.973 27.4814C87.0746 27.5828 87.2119 27.6402 87.3553 27.6412C87.4988 27.6422 87.6369 27.5869 87.74 27.487C90.2562 25.0556 92.7305 22.5808 95.1629 20.0627C95.2576 19.9587 95.3086 19.8223 95.3054 19.6816C95.3021 19.541 95.2448 19.4071 95.1454 19.3076C95.0459 19.2082 94.912 19.1509 94.7714 19.1476C94.6307 19.1444 94.4943 19.1954 94.3903 19.2901Z" fill="black"/>
<path d="M94.391 33.5602C91.8747 35.9925 89.4 38.4668 86.9666 40.9831C86.8741 41.0876 86.8249 41.2236 86.8291 41.3632C86.8333 41.5028 86.8907 41.6355 86.9894 41.7342C87.0882 41.833 87.2209 41.8903 87.3605 41.8946C87.5001 41.8988 87.636 41.8496 87.7406 41.757C90.2569 39.3237 92.7312 36.8489 95.1635 34.3327C95.2583 34.2287 95.3093 34.0923 95.306 33.9517C95.3028 33.8111 95.2455 33.6771 95.146 33.5776C95.0466 33.4782 94.9126 33.4209 94.772 33.4176C94.6314 33.4144 94.4949 33.4654 94.391 33.5602Z" fill="black"/>
<path d="M72.9172 19.7887V27.6312C72.9244 27.7711 72.9851 27.903 73.0868 27.9995C73.1884 28.0961 73.3232 28.1499 73.4634 28.1499C73.6035 28.1499 73.7383 28.0961 73.84 27.9995C73.9416 27.903 74.0023 27.7711 74.0095 27.6312V19.7887C74.0023 19.6488 73.9416 19.5169 73.84 19.4204C73.7383 19.3238 73.6035 19.27 73.4634 19.27C73.3232 19.27 73.1884 19.3238 73.0868 19.4204C72.9851 19.5169 72.9244 19.6488 72.9172 19.7887Z" fill="#FF4848"/>
<path d="M72.9172 34.2189V42.0613C72.9244 42.2013 72.9851 42.3332 73.0868 42.4297C73.1884 42.5262 73.3232 42.5801 73.4634 42.5801C73.6035 42.5801 73.7383 42.5262 73.84 42.4297C73.9416 42.3332 74.0023 42.2013 74.0095 42.0613V34.2189C74.0023 34.0789 73.9416 33.9471 73.84 33.8505C73.7383 33.754 73.6035 33.7002 73.4634 33.7002C73.3232 33.7002 73.1884 33.754 73.0868 33.8505C72.9851 33.9471 72.9244 34.0789 72.9172 34.2189Z" fill="#FF4848"/>
<path d="M72.9172 48.4914V56.3353C72.9244 56.4752 72.9851 56.6071 73.0868 56.7036C73.1884 56.8002 73.3232 56.854 73.4634 56.854C73.6035 56.854 73.7383 56.8002 73.84 56.7036C73.9416 56.6071 74.0023 56.4752 74.0095 56.3353V48.4914C74.0023 48.3514 73.9416 48.2195 73.84 48.123C73.7383 48.0265 73.6035 47.9727 73.4634 47.9727C73.3232 47.9727 73.1884 48.0265 73.0868 48.123C72.9851 48.2195 72.9244 48.3514 72.9172 48.4914Z" fill="#FF4848"/>
<path d="M72.9172 62.7121V70.5545C72.9244 70.6945 72.9851 70.8263 73.0868 70.9229C73.1884 71.0194 73.3232 71.0732 73.4634 71.0732C73.6035 71.0732 73.7383 71.0194 73.84 70.9229C73.9416 70.8263 74.0023 70.6945 74.0095 70.5545V62.7121C74.0023 62.5721 73.9416 62.4402 73.84 62.3437C73.7383 62.2472 73.6035 62.1934 73.4634 62.1934C73.3232 62.1934 73.1884 62.2472 73.0868 62.3437C72.9851 62.4402 72.9244 62.5721 72.9172 62.7121Z" fill="#FF4848"/>
<path d="M98.5834 138.496C97.0528 138.667 64.0078 142.145 60.1018 142.535C66.6769 152.517 73.579 162.954 78.9447 171.198H98.5834C98.7275 171.197 98.8654 171.139 98.9674 171.037C99.0693 170.935 99.1273 170.797 99.1288 170.653C99.3197 147.456 99.2561 141.199 99.1736 139.483C99.149 138.978 99.0911 138.401 98.5834 138.496Z" fill="#2755A0"/>
<path d="M40.6463 156.726C40.3744 157.705 40.0416 158.671 39.7783 159.644C39.3427 161.44 38.6612 163.168 37.753 164.778C36.5288 166.745 34.8221 168.366 32.795 169.488C30.7678 170.609 28.4876 171.194 26.1709 171.187C26.4139 171.211 24.0009 171.198 45.2959 171.198C44.1183 166.942 42.4735 161.798 40.6463 156.726Z" fill="#2755A0"/>
<path d="M113.257 137.967C107.735 144.278 104.122 152.03 102.841 160.318C102.291 164.031 102.33 168.039 104.721 171.139C104.789 171.205 104.873 171.253 104.965 171.277C105.057 171.302 105.154 171.302 105.246 171.278C105.338 171.254 105.422 171.206 105.49 171.139C105.558 171.073 105.608 170.99 105.634 170.899C105.923 169.822 114.17 138.518 114.17 138.493C114.303 137.997 113.628 137.54 113.257 137.967Z" fill="black"/>
<path d="M87.6733 182.725C82.8848 178.745 76.4862 177.691 70.4289 177.764C63.435 177.855 56.5186 179.243 50.0308 181.857C49.9074 181.896 49.8018 181.977 49.7324 182.087C49.6631 182.196 49.6346 182.326 49.6519 182.454C49.6692 182.583 49.7312 182.701 49.827 182.788C49.9227 182.875 50.0461 182.925 50.1755 182.93C51.4066 182.964 87.2639 183.654 87.2856 183.654C87.3917 183.65 87.4946 183.617 87.5821 183.557C87.6695 183.496 87.7377 183.412 87.7786 183.314C87.8195 183.216 87.8313 183.109 87.8127 183.004C87.794 182.9 87.7456 182.803 87.6733 182.725Z" fill="black"/>
<path d="M58.7291 108.864C54.8231 105.058 46.9691 97.5608 41.5036 97.7243C39.8075 97.6898 38.1306 98.0881 36.6312 98.8817C30.3541 102.186 22.2223 110.242 17.1662 121.594C15.0193 126.388 13.3931 131.399 12.3155 136.54C11.337 142.095 10.9255 147.735 11.0872 153.374C11.046 153.885 11.046 154.399 11.0872 154.91C11.142 151.609 11.5686 148.325 12.3589 145.12C14.3582 136.809 16.7828 132.141 20.7076 127.182C24.6325 122.222 30.587 118.636 36.8814 119.56C41.0652 120.174 43.96 122.791 46.8924 125.738C50.3051 120.395 53.469 114.086 58 108.91C58.0987 108.814 58.2302 108.758 58.3681 108.755C58.506 108.751 58.6401 108.8 58.7436 108.891L58.7291 108.864Z" fill="#FF4848"/>
<path d="M104.566 107.271C105.116 107.252 105.652 107.089 106.12 106.798C106.588 106.508 106.972 106.1 107.234 105.616C107.495 105.131 107.626 104.587 107.613 104.036C107.6 103.486 107.443 102.948 107.158 102.477C106.609 101.509 105.893 100.646 105.043 99.9279C103.343 98.7726 101.484 97.8692 99.5255 97.2458C98.5128 96.1087 97.6853 94.1832 94.8238 93.2588C92.9451 92.6438 90.9206 92.6357 89.0371 93.2356C86.8946 93.9548 84.9194 95.0994 83.2301 96.6006C79.6411 99.7368 76.4488 103.3 73.724 107.21C70.89 111.261 69.9091 114.256 66.6049 114.69C65.4654 114.672 64.3699 114.247 63.5163 113.492C61.977 112.148 58.9896 109.038 58.7611 108.892C58.6576 108.8 58.5235 108.752 58.3856 108.755C58.2477 108.759 58.1162 108.814 58.0175 108.91C53.4764 114.098 50.3588 120.339 46.9099 125.738C49.0293 127.923 51.0209 130.229 52.8746 132.643C61.9438 136.815 73.0021 136.694 81.4232 131.052C87.8306 126.758 92.8592 119.028 96.5829 112.267C97.3395 113.157 98.1969 113.956 99.1378 114.648C100.227 115.663 101.644 116.254 103.132 116.316C103.775 116.206 104.367 115.893 104.82 115.423C105.273 114.953 105.563 114.35 105.649 113.703C105.816 112.19 105.477 110.664 104.687 109.363C103.126 106.36 102.53 107.498 104.566 107.271Z" fill="#FFC431"/>
<path d="M91.2307 96.8279C93.0193 96.5479 94.8508 96.8321 96.4705 97.641C97.1259 97.8985 97.4108 96.8424 96.7598 96.5878C94.9556 95.7051 92.917 95.4203 90.9399 95.7747C90.2484 95.8919 90.542 96.9437 91.2307 96.8279Z" fill="#FF4848"/>
<path d="M95.4078 104.349C96.7641 104.663 98.066 105.177 99.2704 105.876C99.3952 105.944 99.5416 105.961 99.6787 105.923C99.8157 105.885 99.9326 105.795 100.004 105.672C100.076 105.549 100.098 105.404 100.064 105.265C100.03 105.127 99.9435 105.008 99.823 104.932C98.5479 104.163 97.1543 103.609 95.6985 103.295C95.0128 103.143 94.7191 104.197 95.4078 104.349Z" fill="#FF4848"/>
<path d="M80.8883 174.159C80.2286 173.181 60.3455 142.879 60.1039 142.535C56.2102 136.732 51.8993 131.22 47.2054 126.043C43.5684 122.329 40.1499 119.367 34.9289 119.403C29.2304 119.443 24.1844 122.792 20.711 127.174C16.9669 131.794 14.2984 137.19 12.8989 142.969C11.0775 149.751 9.75239 159.04 13.3155 165.068C14.2658 166.64 15.5544 167.981 17.0877 168.992C18.6209 170.004 20.3603 170.661 22.1793 170.916C27.8358 171.769 31.5075 170.618 34.3748 168.457C37.4446 166.142 38.7553 163.457 39.7738 159.632C40.0342 158.66 40.3669 157.693 40.6418 156.714C43.716 165.233 45.1019 170.478 46.1999 174.569C46.2316 174.684 46.3002 174.786 46.3954 174.859C46.4905 174.931 46.6068 174.971 46.7265 174.971H80.4167C80.5107 174.968 80.6026 174.942 80.6836 174.894C80.7645 174.846 80.8319 174.778 80.8792 174.697C80.9264 174.615 80.9521 174.523 80.9537 174.429C80.9553 174.335 80.9328 174.242 80.8883 174.159Z" fill="#2755A0"/>
<path d="M63.5732 132.378H68.7335C68.8734 132.371 69.0053 132.31 69.1018 132.209C69.1984 132.107 69.2522 131.972 69.2522 131.832C69.2522 131.692 69.1984 131.557 69.1018 131.456C69.0053 131.354 68.8734 131.293 68.7335 131.286H63.5732C63.4332 131.293 63.3013 131.354 63.2048 131.456C63.1083 131.557 63.0544 131.692 63.0544 131.832C63.0544 131.972 63.1083 132.107 63.2048 132.209C63.3013 132.31 63.4332 132.371 63.5732 132.378Z" fill="#FF4848"/>
<path d="M48.0142 85.5016C47.4206 84.8417 46.6647 84.3485 45.8217 84.0708C44.9786 83.7932 44.0775 83.7409 43.208 83.919C42.3384 84.0971 41.5305 84.4994 40.8644 85.0861C40.1984 85.6728 39.6973 86.4235 39.4109 87.2636C39.2318 87.8636 39.1791 88.4943 39.256 89.1157C39.333 89.7371 39.5379 90.3358 39.8579 90.874C40.1779 91.4122 40.606 91.8782 41.1152 92.2425C41.6244 92.6069 42.2037 92.8618 42.8163 92.991C43.8037 93.1602 44.8188 93.0509 45.7476 92.6756C46.6764 92.3002 47.4823 91.6736 48.075 90.8659C48.6845 90.1017 49.0114 89.1504 49.0003 88.1729C48.9893 87.1954 48.6409 86.2518 48.0142 85.5016Z" fill="#FFC431"/>
<path d="M53.1478 75.586C52.9482 72.8764 49.6931 71.9578 47.2483 73.2337C44.9214 74.7075 43.0642 76.8156 41.8956 79.3098C41.3169 80.3557 40.6644 81.3568 40.0771 82.397C40.0302 82.4802 40.0057 82.5742 40.0061 82.6697C40.0065 82.7653 40.0317 82.8591 40.0792 82.9419C40.1268 83.0248 40.1951 83.0939 40.2774 83.1424C40.3597 83.1909 40.4532 83.2172 40.5487 83.2187C42.1401 83.1333 43.7314 83.0031 45.3083 82.8035C46.5497 82.6662 47.764 82.3464 48.9119 81.8545C50.145 81.3262 51.2001 80.4543 51.9512 79.3428C52.7023 78.2313 53.1177 76.9272 53.1478 75.586Z" fill="black"/>
<path d="M79.0995 52.3799L84.6678 48.0703C84.7698 47.9674 84.8271 47.8283 84.8271 47.6833C84.8271 47.5384 84.7698 47.3993 84.6678 47.2963C84.564 47.1964 84.4256 47.1406 84.2815 47.1406C84.1375 47.1406 83.999 47.1964 83.8953 47.2963C83.8953 47.2963 78.0333 51.8071 77.8424 51.9807C77.4084 52.4421 77.8568 52.7879 78.191 53.0469L83.9025 57.4621C84.0069 57.5607 84.1451 57.6156 84.2888 57.6156C84.4324 57.6156 84.5706 57.5607 84.675 57.4621C84.7773 57.3596 84.8348 57.2207 84.8348 57.0759C84.8348 56.931 84.7773 56.7921 84.675 56.6896C82.8098 55.2526 80.9513 53.816 79.0995 52.3799Z" fill="black"/>
<path d="M79.0995 38.1378L84.6678 33.8282C84.7701 33.7257 84.8275 33.5868 84.8275 33.4419C84.8275 33.2971 84.7701 33.1582 84.6678 33.0557C84.5642 32.9554 84.4257 32.8994 84.2815 32.8994C84.1374 32.8994 83.9989 32.9554 83.8953 33.0557C82.0811 34.459 78.0333 37.5664 77.8424 37.7386C77.4084 38.2001 77.8568 38.5473 78.191 38.8062L83.9025 43.22C84.0066 43.3192 84.1449 43.3746 84.2888 43.3746C84.4326 43.3746 84.5709 43.3192 84.675 43.22C84.7773 43.1175 84.8348 42.9786 84.8348 42.8338C84.8348 42.6889 84.7773 42.55 84.675 42.4475L79.0995 38.1378Z" fill="black"/>
<path d="M79.0995 23.5694L84.6678 19.2598C84.7701 19.1573 84.8275 19.0183 84.8275 18.8735C84.8275 18.7287 84.7701 18.5898 84.6678 18.4872C84.564 18.3874 84.4256 18.3315 84.2815 18.3315C84.1375 18.3315 83.999 18.3874 83.8953 18.4872C82.0811 19.8905 78.0333 22.998 77.8424 23.1716C77.4084 23.6316 77.8568 23.9788 78.191 24.2378L83.9025 28.653C84.0073 28.7521 84.146 28.8073 84.2902 28.8073C84.4344 28.8073 84.5731 28.7521 84.6779 28.653C84.7287 28.6024 84.7691 28.5422 84.7966 28.4759C84.8241 28.4096 84.8383 28.3385 84.8383 28.2668C84.8383 28.195 84.8241 28.1239 84.7966 28.0577C84.7691 27.9914 84.7287 27.9312 84.6779 27.8805L79.0995 23.5694Z" fill="black"/>
<path d="M134.824 51.706L129.12 47.2907C129.015 47.1921 128.877 47.1372 128.734 47.1372C128.59 47.1372 128.452 47.1921 128.347 47.2907C128.245 47.3935 128.188 47.5326 128.188 47.6777C128.188 47.8228 128.245 47.9619 128.347 48.0647L133.917 52.3729L128.347 56.684C128.245 56.7865 128.188 56.9254 128.188 57.0702C128.188 57.2151 128.245 57.354 128.347 57.4565C128.451 57.5564 128.59 57.6122 128.734 57.6122C128.878 57.6122 129.016 57.5564 129.12 57.4565C129.12 57.4565 134.982 52.9458 135.173 52.7722C135.601 52.3165 135.158 51.9707 134.824 51.706Z" fill="black"/>
<path d="M129.645 38.5319C130.079 38.0704 129.63 37.7232 129.296 37.4657L123.592 33.0505C123.488 32.9519 123.349 32.897 123.206 32.897C123.062 32.897 122.924 32.9519 122.82 33.0505C122.717 33.153 122.66 33.2919 122.66 33.4367C122.66 33.5816 122.717 33.7205 122.82 33.823L128.388 38.1326L122.817 42.4466C122.714 42.5494 122.657 42.6885 122.657 42.8336C122.657 42.9787 122.714 43.1178 122.817 43.2206C122.921 43.3202 123.059 43.3757 123.203 43.3757C123.347 43.3757 123.485 43.3202 123.589 43.2206C125.406 41.8115 129.454 38.7055 129.645 38.5319Z" fill="black"/>
<path d="M116.657 23.5692L111.087 27.8789C110.985 27.9818 110.928 28.1209 110.928 28.2658C110.928 28.4108 110.985 28.5499 111.087 28.6528C111.191 28.7524 111.33 28.808 111.474 28.808C111.618 28.808 111.756 28.7524 111.86 28.6528C113.674 27.2481 117.722 24.1421 117.913 23.9685C118.347 23.507 117.898 23.1598 117.564 22.9009L111.86 18.487C111.756 18.3881 111.617 18.333 111.474 18.333C111.33 18.333 111.192 18.3881 111.087 18.487C110.985 18.5896 110.928 18.7285 110.928 18.8733C110.928 19.0181 110.985 19.1571 111.087 19.2596L116.657 23.5692Z" fill="black"/>
<path d="M104.036 18.9503C103.114 18.6121 102.108 18.5768 101.164 18.8496C100.22 19.1223 99.3881 19.6889 98.7884 20.4671C98.1888 21.2452 97.8529 22.1942 97.8297 23.1763C97.8064 24.1584 98.0969 25.1223 98.659 25.9279C99.2211 26.7336 100.025 27.339 100.955 27.6562C101.885 27.9734 102.892 27.9858 103.829 27.6917C104.766 27.3975 105.585 26.8122 106.167 26.0206C106.749 25.2291 107.063 24.2727 107.064 23.2903C107.065 22.3436 106.776 21.4194 106.234 20.643C105.692 19.8666 104.925 19.2757 104.036 18.9503Z" fill="#CCEAFF"/>
<path d="M65.1837 3.38687C62.1859 5.13064 59.7851 7.73974 58.2961 10.872C57.9894 11.5013 58.9327 12.0568 59.2394 11.4232C60.6832 8.48619 62.9371 6.02353 65.7349 4.32576C65.8528 4.2492 65.9367 4.13018 65.9691 3.99341C66.0016 3.85664 65.9801 3.71263 65.9092 3.59126C65.8383 3.4699 65.7234 3.3805 65.5883 3.34163C65.4532 3.30277 65.3083 3.31741 65.1837 3.38253V3.38687Z" fill="black"/>
<path d="M64.2792 0.0595337C60.2334 1.95016 57.0062 5.23796 55.1912 9.31825C54.9019 9.95624 55.8509 10.5132 56.1344 9.87088C57.8632 5.95594 60.9527 2.80058 64.8304 0.989748C65.4684 0.698966 64.9129 -0.244268 64.2792 0.0595337Z" fill="black"/>
<path d="M6.13052 129.945C4.26304 136.264 3.6145 142.881 4.21946 149.443C4.28022 150.137 5.3768 150.145 5.3117 149.443C4.82555 142.979 5.46184 136.481 7.19238 130.234C7.22864 130.095 7.20861 129.947 7.13665 129.823C7.06468 129.698 6.94657 129.607 6.80788 129.569C6.6692 129.531 6.5211 129.549 6.39568 129.619C6.27025 129.69 6.17759 129.807 6.13775 129.945H6.13052Z" fill="black"/>
<path d="M2.64033 129.689C-0.0880995 136.566 -0.352841 142.283 0.296716 149.443C0.358923 150.137 1.45406 150.145 1.38896 149.443C0.597625 140.708 1.51916 135.487 3.69496 129.979C3.95391 129.324 2.89784 129.041 2.64033 129.689Z" fill="black"/>
<path d="M153.881 111.475H140.537C140.397 111.483 140.265 111.543 140.169 111.645C140.072 111.746 140.019 111.881 140.019 112.021C140.019 112.162 140.072 112.296 140.169 112.398C140.265 112.5 140.397 112.56 140.537 112.568H153.881C153.955 112.571 154.03 112.56 154.099 112.534C154.169 112.509 154.232 112.469 154.286 112.418C154.34 112.367 154.383 112.305 154.412 112.237C154.441 112.169 154.456 112.096 154.456 112.021C154.456 111.947 154.441 111.874 154.412 111.806C154.383 111.738 154.34 111.676 154.286 111.625C154.232 111.574 154.169 111.534 154.099 111.509C154.03 111.483 153.955 111.472 153.881 111.475Z" fill="black"/>
<path d="M148.501 102.248L140.099 108.826C139.544 109.26 140.323 110.028 140.871 109.6L149.273 103.021C149.827 102.587 149.049 101.818 148.501 102.248Z" fill="black"/>
<path d="M140.923 115.105C140.376 114.671 139.596 115.445 140.151 115.878L147.65 121.742C148.198 122.176 148.977 121.404 148.423 120.97C145.921 119.018 143.421 117.063 140.923 115.105Z" fill="black"/>
</svg>
