<svg width="103" height="35" viewBox="0 0 103 35" fill="none" xmlns="http://www.w3.org/2000/svg">
<path d="M-3.30508e-05 25.9922V1.51219H8.27997C11.208 1.51219 13.44 2.32819 14.976 3.96019C16.512 5.59219 17.28 7.99219 17.28 11.1602V16.3082C17.28 19.5002 16.512 21.9122 14.976 23.5442C13.44 25.1762 11.208 25.9922 8.27997 25.9922H-3.30508e-05ZM8.09997 5.65219H4.31997V21.8522H8.09997C9.80397 21.8522 11.016 21.4322 11.736 20.5922C12.48 19.7522 12.852 18.3242 12.852 16.3082V11.1602C12.852 9.16819 12.48 7.75219 11.736 6.91219C11.016 6.07219 9.80397 5.65219 8.09997 5.65219ZM36.3122 24.9482C35.0642 25.4522 33.8882 25.8122 32.7842 26.0282C31.6802 26.2442 30.6362 26.3522 29.6522 26.3522C26.9402 26.3522 24.8882 25.5842 23.4962 24.0482C22.1042 22.5122 21.4082 20.4722 21.4082 17.9282V15.7682C21.4082 14.0642 21.7202 12.5882 22.3442 11.3402C22.9682 10.0922 23.8562 9.12019 25.0082 8.42419C26.1602 7.72819 27.5162 7.38019 29.0762 7.38019C30.3482 7.38019 31.5362 7.64419 32.6402 8.17219C33.7682 8.67619 34.6802 9.48019 35.3762 10.5842C36.0962 11.6642 36.4562 13.0562 36.4562 14.7602C36.4562 15.2642 36.4202 15.8042 36.3482 16.3802C36.2762 16.9322 36.1562 17.5202 35.9882 18.1442H25.4042C25.4522 19.6322 25.8242 20.7482 26.5202 21.4922C27.2162 22.2362 28.3322 22.6082 29.8682 22.6082C30.6842 22.6082 31.5242 22.5122 32.3882 22.3202C33.2762 22.1282 34.1882 21.8402 35.1242 21.4562L36.3122 24.9482ZM29.0762 10.8722C27.9722 10.8722 27.1082 11.2322 26.4842 11.9522C25.8842 12.6482 25.5362 13.6562 25.4402 14.9762H32.3522C32.3762 14.8562 32.3882 14.7482 32.3882 14.6522C32.3882 14.5322 32.3882 14.4242 32.3882 14.3282C32.3882 13.1762 32.0642 12.3122 31.4162 11.7362C30.7682 11.1602 29.9882 10.8722 29.0762 10.8722ZM46.3376 22.7522C47.2256 22.7522 47.9576 22.6082 48.5336 22.3202C49.1096 22.0082 49.3976 21.5522 49.3976 20.9522C49.3976 20.4242 49.2056 20.0162 48.8216 19.7282C48.4616 19.4162 47.8016 19.1402 46.8416 18.9002L44.7896 18.3602C43.2056 17.9522 42.0296 17.2682 41.2616 16.3082C40.5176 15.3482 40.1456 14.2082 40.1456 12.8882C40.1456 11.3282 40.6856 10.0202 41.7656 8.96419C42.8456 7.90819 44.5136 7.38019 46.7696 7.38019C47.6816 7.38019 48.6416 7.48819 49.6496 7.70419C50.6576 7.92019 51.7136 8.26819 52.8176 8.74819L51.6296 12.2762C50.6216 11.7962 49.7096 11.4602 48.8936 11.2682C48.0776 11.0762 47.3576 10.9802 46.7336 10.9802C45.0296 10.9802 44.1776 11.5562 44.1776 12.7082C44.1776 13.1642 44.3216 13.5242 44.6096 13.7882C44.9216 14.0522 45.4856 14.2922 46.3016 14.5082L48.3536 15.0482C50.1056 15.5042 51.3776 16.2002 52.1696 17.1362C52.9856 18.0722 53.3936 19.2482 53.3936 20.6642C53.3936 22.3442 52.8176 23.7122 51.6656 24.7682C50.5376 25.8242 48.7496 26.3522 46.3016 26.3522C44.2136 26.3522 42.0176 25.8722 39.7136 24.9122L40.8296 21.4922C41.9576 21.9482 42.9776 22.2722 43.8896 22.4642C44.8016 22.6562 45.6176 22.7522 46.3376 22.7522ZM61.8916 4.28419H57.5356V0.000185251H61.8916V4.28419ZM61.7836 25.9922H57.6436V7.74019H61.7836V25.9922ZM82.6433 27.8282C82.6433 29.7722 81.8753 31.2842 80.3393 32.3642C78.8273 33.4682 76.7153 34.0202 74.0033 34.0202C72.7313 34.0202 71.3873 33.8762 69.9713 33.5882C68.5553 33.3002 67.2473 32.8202 66.0473 32.1482L67.2353 28.8722C68.3873 29.4482 69.5273 29.8562 70.6553 30.0962C71.7833 30.3602 72.8873 30.4922 73.9673 30.4922C75.4793 30.4922 76.6313 30.2882 77.4233 29.8802C78.2153 29.4722 78.6113 28.9322 78.6113 28.2602C78.6113 27.2282 77.9993 26.7122 76.7753 26.7122H72.4553C71.2793 26.7122 70.3313 26.5202 69.6113 26.1362C68.8913 25.7522 68.3633 25.2602 68.0273 24.6602C67.6913 24.0362 67.5233 23.3882 67.5233 22.7162C67.5233 22.0202 67.6673 21.3722 67.9553 20.7722C68.2673 20.1482 68.6873 19.5722 69.2153 19.0442C68.3513 18.5162 67.6553 17.8082 67.1273 16.9202C66.6233 16.0322 66.3713 14.9642 66.3713 13.7162C66.3713 12.3002 66.6713 11.1242 67.2713 10.1882C67.8713 9.25219 68.6873 8.55619 69.7193 8.10019C70.7753 7.62019 71.9393 7.38019 73.2113 7.38019H73.8233C74.3033 7.38019 74.7713 7.41619 75.2273 7.48819C75.6833 7.53619 76.1153 7.62019 76.5233 7.74019H83.0393V11.2682L79.4393 10.6922C79.7993 11.0762 80.0753 11.5562 80.2673 12.1322C80.4833 12.6842 80.5913 13.3682 80.5913 14.1842C80.5913 15.4082 80.2793 16.4642 79.6553 17.3522C79.0553 18.2162 78.2393 18.8882 77.2073 19.3682C76.1993 19.8242 75.0713 20.0522 73.8233 20.0522H73.2113C72.7313 20.0522 72.2753 20.0162 71.8433 19.9442C71.5793 20.2322 71.3873 20.5322 71.2673 20.8442C71.1473 21.1322 71.0873 21.4082 71.0873 21.6722C71.0873 22.5122 71.6273 22.9322 72.7073 22.9322H77.0993C78.7553 22.9322 80.0873 23.3642 81.0953 24.2282C82.1273 25.0682 82.6433 26.2682 82.6433 27.8282ZM73.8233 16.6682C74.5673 16.6682 75.2153 16.4162 75.7673 15.9122C76.3433 15.4082 76.6313 14.6762 76.6313 13.7162C76.6313 12.7562 76.3433 12.0242 75.7673 11.5202C75.2153 11.0162 74.5673 10.7642 73.8233 10.7642H73.2113C72.4433 10.7642 71.7713 11.0162 71.1953 11.5202C70.6433 12.0242 70.3673 12.7562 70.3673 13.7162C70.3673 14.6762 70.6433 15.4082 71.1953 15.9122C71.7713 16.4162 72.4433 16.6682 73.2113 16.6682H73.8233ZM95.5403 11.2322C94.9403 11.2322 94.2563 11.3762 93.4883 11.6642C92.7203 11.9522 91.8083 12.5162 90.7523 13.3562V25.9922H86.6123V7.74019H90.5363V10.1882C91.6643 9.20419 92.7323 8.49619 93.7403 8.06419C94.7483 7.60819 95.7683 7.38019 96.8003 7.38019C98.5523 7.38019 99.8843 7.94419 100.796 9.07219C101.708 10.1762 102.164 11.7362 102.164 13.7522V25.9922H98.0243V14.2562C98.0243 12.2402 97.1963 11.2322 95.5403 11.2322Z" fill="#FF5B5B"/>
</svg>
