<svg width="313" height="241" viewBox="0 0 313 241" fill="none" xmlns="http://www.w3.org/2000/svg">
<path d="M286.591 67.715H213.469C213.292 67.7168 213.122 67.788 212.997 67.9133C212.872 68.0387 212.8 68.2081 212.799 68.3853V123.087C212.801 123.264 212.873 123.433 212.998 123.558C213.123 123.684 213.292 123.755 213.469 123.758H286.591C286.768 123.756 286.937 123.685 287.063 123.559C287.188 123.434 287.259 123.265 287.261 123.087C287.594 80.4901 287.495 70.8254 287.302 68.6105C287.282 68.3746 287.274 67.7043 286.591 67.715ZM220.529 117.049C219.516 117.711 218.535 118.413 217.59 119.167C216.922 119.699 215.969 118.757 216.643 118.22C217.676 117.392 218.746 116.616 219.851 115.891C220.576 115.418 221.247 116.581 220.529 117.049ZM219.709 75.8741C218.522 74.7827 217.397 73.6252 216.34 72.4072C215.776 71.7599 216.719 70.8112 217.287 71.4603C218.344 72.6782 219.469 73.8357 220.656 74.9271C221.286 75.5106 220.335 76.4557 219.709 75.8741ZM263.53 99.9418H236.93C236.752 99.9418 236.582 99.8712 236.456 99.7455C236.331 99.6198 236.26 99.4493 236.26 99.2715C236.26 99.0937 236.331 98.9232 236.456 98.7975C236.582 98.6718 236.752 98.6012 236.93 98.6012H263.53C263.708 98.6012 263.879 98.6718 264.004 98.7975C264.13 98.9232 264.201 99.0937 264.201 99.2715C264.201 99.4493 264.13 99.6198 264.004 99.7455C263.879 99.8712 263.708 99.9418 263.53 99.9418ZM237.294 94.1359H263.333C263.505 94.1448 263.667 94.2191 263.785 94.3437C263.903 94.4683 263.969 94.6335 263.969 94.8054C263.969 94.9772 263.903 95.1424 263.785 95.267C263.667 95.3916 263.505 95.466 263.333 95.4748H237.283C237.112 95.466 236.95 95.3916 236.832 95.267C236.713 95.1424 236.647 94.9772 236.647 94.8054C236.647 94.6335 236.713 94.4683 236.832 94.3437C236.95 94.2191 237.112 94.1448 237.283 94.1359H237.294ZM263.53 90.4509H237.285C237.113 90.4421 236.952 90.3677 236.833 90.2431C236.715 90.1186 236.649 89.9533 236.649 89.7815C236.649 89.6097 236.715 89.4444 236.833 89.3199C236.952 89.1953 237.113 89.1209 237.285 89.1121H263.521C263.693 89.1209 263.855 89.1953 263.973 89.3199C264.091 89.4444 264.157 89.6097 264.157 89.7815C264.157 89.9533 264.091 90.1186 263.973 90.2431C263.855 90.3677 263.693 90.4421 263.521 90.4509H263.53ZM278.458 75.3598L282.487 71.572C283.115 70.9814 284.064 71.9266 283.434 72.5189L279.405 76.3068C278.761 76.8973 277.82 75.9503 278.449 75.3598H278.458ZM283.058 119.002L279.689 115.948C279.049 115.368 279.999 114.423 280.636 115.001L284.005 118.055C284.637 118.636 283.686 119.58 283.049 119.002H283.058Z" fill="#BCBCBC"/>
<path d="M312.755 68.3858C312.754 68.2086 312.682 68.0391 312.557 67.9138C312.432 67.7885 312.262 67.7173 312.085 67.7155C296.526 67.6037 291.961 67.5913 290.539 67.7155C290.175 67.7456 289.635 67.7899 289.652 68.3911V123.093C289.655 123.27 289.726 123.439 289.851 123.565C289.976 123.69 290.146 123.761 290.323 123.764H312.094C312.271 123.761 312.44 123.689 312.565 123.564C312.69 123.439 312.761 123.27 312.764 123.093C312.832 113.253 312.825 78.3165 312.755 68.3858ZM295.806 107.621H305.992C306.163 107.63 306.325 107.704 306.443 107.829C306.562 107.953 306.628 108.118 306.628 108.29C306.628 108.462 306.562 108.627 306.443 108.752C306.325 108.877 306.163 108.951 305.992 108.96H295.806C295.634 108.951 295.473 108.877 295.354 108.752C295.236 108.627 295.17 108.462 295.17 108.29C295.17 108.118 295.236 107.953 295.354 107.829C295.473 107.704 295.634 107.63 295.806 107.621ZM305.992 80.4055H295.806C295.628 80.4055 295.458 80.3348 295.332 80.2091C295.206 80.0834 295.135 79.9129 295.135 79.7351C295.135 79.5574 295.206 79.3869 295.332 79.2612C295.458 79.1354 295.628 79.0648 295.806 79.0648H305.992C306.17 79.0648 306.34 79.1354 306.466 79.2612C306.592 79.3869 306.662 79.5574 306.662 79.7351C306.662 79.9129 306.592 80.0834 306.466 80.2091C306.34 80.3348 306.17 80.4055 305.992 80.4055ZM305.992 95.4788H295.806C295.628 95.4788 295.458 95.4082 295.332 95.2825C295.206 95.1568 295.135 94.9863 295.135 94.8085C295.135 94.6307 295.206 94.4602 295.332 94.3345C295.458 94.2088 295.628 94.1382 295.806 94.1382H305.992C306.146 94.1701 306.285 94.2542 306.384 94.3763C306.483 94.4984 306.538 94.651 306.538 94.8085C306.538 94.966 306.483 95.1186 306.384 95.2407C306.285 95.3629 306.146 95.4469 305.992 95.4788ZM305.992 103.939H295.806C295.634 103.931 295.473 103.856 295.354 103.732C295.236 103.607 295.17 103.442 295.17 103.27C295.17 103.098 295.236 102.933 295.354 102.808C295.473 102.684 295.634 102.609 295.806 102.601H305.992C306.151 102.625 306.296 102.706 306.401 102.829C306.506 102.951 306.564 103.107 306.564 103.268C306.564 103.429 306.506 103.585 306.401 103.708C306.296 103.83 306.151 103.911 305.992 103.936V103.939ZM305.992 90.4621H295.806C295.634 90.4532 295.473 90.3789 295.354 90.2543C295.236 90.1297 295.17 89.9644 295.17 89.7926C295.17 89.6208 295.236 89.4556 295.354 89.331C295.473 89.2064 295.634 89.132 295.806 89.1232H305.992C306.083 89.1185 306.173 89.1324 306.259 89.1639C306.344 89.1954 306.422 89.244 306.488 89.3066C306.554 89.3692 306.606 89.4446 306.642 89.5282C306.678 89.6117 306.697 89.7017 306.697 89.7926C306.697 89.8836 306.678 89.9735 306.642 90.0571C306.606 90.1406 306.554 90.216 306.488 90.2787C306.422 90.3413 306.344 90.3898 306.259 90.4214C306.173 90.4529 306.083 90.4667 305.992 90.4621ZM305.992 85.5269H295.806C295.628 85.5269 295.458 85.4562 295.332 85.3305C295.206 85.2048 295.135 85.0343 295.135 84.8565C295.135 84.6788 295.206 84.5083 295.332 84.3826C295.458 84.2568 295.628 84.1862 295.806 84.1862H305.992C306.146 84.2162 306.285 84.2989 306.385 84.4203C306.485 84.5416 306.54 84.694 306.54 84.8512C306.54 85.0085 306.485 85.1608 306.385 85.2822C306.285 85.4035 306.146 85.4863 305.992 85.5162V85.5269Z" fill="#BCBCBC"/>
<path d="M312.754 126.441C312.752 126.264 312.681 126.095 312.555 125.969C312.43 125.844 312.261 125.773 312.084 125.771H213.469C213.291 125.772 213.122 125.844 212.997 125.969C212.871 126.094 212.8 126.264 212.798 126.441C212.671 144.433 213.041 146.646 212.089 150.957C211.436 154.037 210.104 156.933 208.191 159.434C206.278 161.934 203.832 163.977 201.03 165.413C197.696 167.229 194.027 168.347 190.247 168.699C186.196 169.329 181.981 170.045 178.679 172.645C169.921 179.54 171.306 190.733 168.293 199.818C168.267 199.918 168.263 200.022 168.284 200.123C168.304 200.223 168.347 200.318 168.409 200.4C168.472 200.482 168.552 200.548 168.644 200.594C168.736 200.64 168.837 200.665 168.94 200.666H267.555C267.701 200.664 267.843 200.615 267.959 200.527C268.075 200.438 268.16 200.315 268.201 200.174C270.997 191.81 269.962 181.59 276.697 174.929C282.529 169.157 291.08 171.147 299.396 167.056C304.983 164.359 309.272 159.557 311.325 153.702C312.921 149.033 312.76 144.151 312.76 139.292C312.754 133.039 312.809 135.256 312.754 126.441ZM303.911 131.208L308.58 128.633C309.335 128.214 310.011 129.372 309.255 129.789L304.586 132.364C303.831 132.782 303.155 131.624 303.911 131.208ZM275.871 142.771C275.319 142.473 274.701 142.319 274.074 142.326C273.448 142.333 272.833 142.5 272.288 142.811C271.528 143.359 270.983 144.155 270.747 145.063C269.506 148.941 271.336 152.147 268.556 155.655C267.995 156.353 267.238 156.867 266.382 157.131C265.527 157.395 264.612 157.397 263.755 157.136C262.974 156.841 262.266 156.382 261.679 155.788C261.093 155.194 260.642 154.48 260.357 153.695C259.068 150.189 260.974 145.338 258.291 142.851C257.735 142.353 257.058 142.01 256.327 141.857C255.597 141.704 254.839 141.745 254.129 141.977C250.476 143.1 251.303 147.515 251.065 150.413C250.827 153.31 249.239 156.852 245.823 156.595C244.38 156.446 243.047 155.756 242.093 154.663C241.138 153.571 240.634 152.157 240.68 150.707C240.282 147.571 240.244 144.4 240.567 141.255C240.656 140.404 241.996 140.399 241.908 141.255C241.538 144.95 241.681 148.678 242.331 152.333C243.323 155.525 247.428 156.373 248.859 153.454C250.482 150.588 249.246 147.168 250.258 144.139C250.666 142.988 251.444 142.005 252.471 141.344C253.497 140.683 254.713 140.381 255.93 140.485C257.146 140.589 258.293 141.093 259.192 141.919C260.092 142.745 260.691 143.845 260.898 145.048C261.188 146.921 261.281 148.819 261.175 150.711C261.122 151.619 261.291 152.526 261.669 153.354C262.047 154.181 262.622 154.904 263.344 155.458C263.698 155.686 264.094 155.843 264.509 155.918C264.924 155.993 265.349 155.985 265.761 155.895C266.173 155.805 266.563 155.635 266.909 155.394C267.255 155.153 267.55 154.847 267.777 154.491C269.341 152.053 268.715 149.923 268.976 147.221C268.955 146.145 269.187 145.079 269.651 144.108C270.116 143.137 270.801 142.288 271.652 141.629C272.305 141.288 273.022 141.086 273.757 141.036C274.492 140.986 275.23 141.089 275.923 141.339C276.616 141.589 277.25 141.981 277.784 142.488C278.318 142.996 278.741 143.61 279.025 144.289C279.716 145.9 280.033 147.646 279.953 149.397C279.89 151.472 279.726 153.544 279.46 155.603C279.348 156.449 278.016 156.458 278.119 155.603C278.245 154.559 278.369 153.513 278.463 152.465C278.745 149.313 279.16 144.564 275.871 142.771ZM268.83 174.392H184.991C184.819 174.383 184.657 174.309 184.539 174.184C184.421 174.06 184.355 173.894 184.355 173.722C184.355 173.551 184.421 173.385 184.539 173.261C184.657 173.136 184.819 173.062 184.991 173.053H268.83C269.002 173.062 269.164 173.136 269.282 173.261C269.4 173.385 269.466 173.551 269.466 173.722C269.466 173.894 269.4 174.06 269.282 174.184C269.164 174.309 269.002 174.383 268.83 174.392ZM224.497 182.682H251.008C251.18 182.691 251.342 182.765 251.46 182.89C251.578 183.015 251.644 183.18 251.644 183.352C251.644 183.523 251.578 183.689 251.46 183.813C251.342 183.938 251.18 184.012 251.008 184.021H224.497C224.325 184.012 224.164 183.938 224.045 183.813C223.927 183.689 223.861 183.523 223.861 183.352C223.861 183.18 223.927 183.015 224.045 182.89C224.164 182.765 224.325 182.691 224.497 182.682ZM253.849 180.377H225.916C225.738 180.377 225.567 180.306 225.442 180.181C225.316 180.055 225.245 179.884 225.245 179.707C225.245 179.529 225.316 179.358 225.442 179.233C225.567 179.107 225.738 179.036 225.916 179.036H253.846C254.023 179.036 254.194 179.107 254.32 179.233C254.445 179.358 254.516 179.529 254.516 179.707C254.516 179.884 254.445 180.055 254.32 180.181C254.194 180.306 254.023 180.377 253.846 180.377H253.849ZM185.562 182.682H201.192C201.363 182.691 201.525 182.765 201.643 182.89C201.762 183.015 201.828 183.18 201.828 183.352C201.828 183.523 201.762 183.689 201.643 183.813C201.525 183.938 201.363 184.012 201.192 184.021H185.562C185.404 183.921 185.29 183.766 185.242 183.586C185.193 183.406 185.215 183.214 185.301 183.049C185.378 182.919 185.464 182.793 185.558 182.673L185.562 182.682ZM202.866 180.377H186.4C186.223 180.377 186.052 180.306 185.926 180.181C185.801 180.055 185.73 179.884 185.73 179.707C185.73 179.529 185.801 179.358 185.926 179.233C186.052 179.107 186.223 179.036 186.4 179.036H202.862C203.04 179.036 203.21 179.107 203.336 179.233C203.462 179.358 203.533 179.529 203.533 179.707C203.533 179.884 203.462 180.055 203.336 180.181C203.21 180.306 203.04 180.377 202.862 180.377H202.866ZM198.218 170.024L205.843 168.263C206.684 168.068 207.04 169.361 206.198 169.554L198.573 171.315C197.73 171.503 197.375 170.21 198.214 170.017L198.218 170.024ZM217.547 128.931C219.317 129.602 221.041 130.391 222.706 131.291C223.465 131.702 222.787 132.859 222.03 132.447C220.468 131.6 218.851 130.857 217.191 130.222C216.396 129.911 216.744 128.617 217.551 128.924L217.547 128.931ZM266.88 170.359C266.075 170.065 266.424 168.763 267.234 169.067L272.996 171.163C273.801 171.455 273.452 172.75 272.641 172.454L266.88 170.359Z" fill="#E6E6E6"/>
<path d="M266.429 202.681H167.813C167.668 202.683 167.526 202.732 167.41 202.821C167.294 202.909 167.209 203.032 167.168 203.172C165.583 208.37 161.912 211.352 156.705 213.003C148.592 215.578 141.348 215.383 134.606 220.831C134.138 221.209 134.538 221.975 135.079 221.975C214.291 221.975 230.26 222.031 233.406 221.941C234.241 221.916 233.75 222.06 234.879 221.232C243.092 215.183 254.847 216.851 262.026 211.069C264.443 209.135 266.206 206.503 267.076 203.532C267.103 203.432 267.107 203.327 267.087 203.226C267.068 203.125 267.025 203.029 266.962 202.947C266.9 202.864 266.819 202.798 266.727 202.751C266.634 202.705 266.532 202.681 266.429 202.681Z" fill="#E6E6E6"/>
<path d="M230.402 225.061C124.39 225.061 131.59 224.898 131.209 225.393C129.548 227.549 128.337 230.017 127.648 232.651C127.622 232.75 127.619 232.854 127.639 232.955C127.659 233.056 127.702 233.151 127.764 233.233C127.826 233.315 127.906 233.381 127.998 233.428C128.09 233.474 128.191 233.499 128.294 233.5H226.909C227.055 233.499 227.197 233.45 227.314 233.361C227.43 233.272 227.514 233.148 227.554 233.007C228.235 230.494 229.399 228.137 230.98 226.068C231.303 225.651 230.862 225.061 230.402 225.061Z" fill="#E6E6E6"/>
<path d="M235.126 25.2881V12.4863H214.138V25.265C215.894 25.1994 208.033 25.2881 235.126 25.2881ZM220.584 15.6322C220.587 15.4552 220.658 15.286 220.783 15.1608C220.908 15.0356 221.078 14.9642 221.255 14.9619H227.766C227.943 14.9647 228.112 15.0362 228.237 15.1613C228.362 15.2864 228.434 15.4553 228.437 15.6322V22.1439C228.433 22.3206 228.361 22.489 228.236 22.6139C228.111 22.7388 227.943 22.8106 227.766 22.8143H221.255C221.078 22.8115 220.909 22.74 220.784 22.6149C220.659 22.4898 220.587 22.3209 220.584 22.1439V15.6322Z" fill="white"/>
<path d="M311.412 25.2881V12.4863C310.88 12.5058 313.639 12.4863 288.563 12.4863V25.2863L311.412 25.2881ZM293.29 16.1731H306.5C306.671 16.1819 306.833 16.2563 306.951 16.3809C307.07 16.5055 307.136 16.6707 307.136 16.8425C307.136 17.0143 307.07 17.1796 306.951 17.3042C306.833 17.4288 306.671 17.5031 306.5 17.512H293.29C293.119 17.5031 292.957 17.4288 292.839 17.3042C292.72 17.1796 292.654 17.0143 292.654 16.8425C292.654 16.6707 292.72 16.5055 292.839 16.3809C292.957 16.2563 293.119 16.1819 293.29 16.1731ZM293.219 20.0744H306.431C306.602 20.0833 306.764 20.1577 306.882 20.2822C307.001 20.4068 307.067 20.5721 307.067 20.7439C307.067 20.9157 307.001 21.0809 306.882 21.2055C306.764 21.3301 306.602 21.4045 306.431 21.4133H293.219C293.048 21.4045 292.886 21.3301 292.768 21.2055C292.649 21.0809 292.584 20.9157 292.584 20.7439C292.584 20.5721 292.649 20.4068 292.768 20.2822C292.886 20.1577 293.048 20.0833 293.219 20.0744Z" fill="white"/>
<path d="M287.226 25.2881V12.4863H236.468V25.2863L287.226 25.2881Z" fill="white"/>
<path d="M226.492 235.641H127.877C127.699 235.641 127.529 235.711 127.403 235.837C127.277 235.963 127.207 236.133 127.207 236.311C127.207 236.489 127.277 236.659 127.403 236.785C127.529 236.911 127.699 236.981 127.877 236.981H226.492C226.67 236.981 226.841 236.911 226.966 236.785C227.092 236.659 227.163 236.489 227.163 236.311C227.163 236.133 227.092 235.963 226.966 235.837C226.841 235.711 226.67 235.641 226.492 235.641Z" fill="#E6E6E6"/>
<path d="M226.492 239.631H127.876C127.705 239.64 127.543 239.714 127.425 239.839C127.306 239.963 127.24 240.128 127.24 240.3C127.24 240.472 127.306 240.637 127.425 240.762C127.543 240.887 127.705 240.961 127.876 240.97H226.492C226.663 240.961 226.825 240.887 226.943 240.762C227.061 240.637 227.127 240.472 227.127 240.3C227.127 240.128 227.061 239.963 226.943 239.839C226.825 239.714 226.663 239.64 226.492 239.631Z" fill="#E6E6E6"/>
<path d="M312.756 11.8178C312.753 11.6409 312.681 11.4719 312.556 11.3468C312.431 11.2217 312.262 11.1502 312.085 11.1475H213.47C213.293 11.1502 213.124 11.2217 212.999 11.3468C212.874 11.4719 212.802 11.6409 212.8 11.8178C212.704 25.3696 212.8 65.0179 212.8 65.0321C212.802 65.209 212.874 65.3779 212.999 65.5031C213.124 65.6282 213.293 65.6997 213.47 65.7024H312.085C312.262 65.698 312.429 65.6259 312.554 65.5011C312.679 65.3764 312.751 65.2085 312.756 65.0321C312.621 46.3979 312.883 30.0743 312.756 11.8178ZM288.565 12.4881H311.415V25.2881H288.565V12.4881ZM236.468 12.4881H287.227V25.2881H236.468V12.4881ZM214.14 12.4881H235.128V25.2881C235.128 25.2881 215.249 25.2242 214.14 25.2668V12.4881ZM270.578 52.8599H254.973C254.856 52.8581 254.741 52.8259 254.64 52.7664C254.54 52.7069 254.456 52.6223 254.398 52.5207C254.339 52.4191 254.308 52.3041 254.308 52.187C254.307 52.0699 254.337 51.9547 254.395 51.8527L262.198 38.4622C262.258 38.3631 262.343 38.2813 262.444 38.2245C262.546 38.1677 262.66 38.1379 262.776 38.1379C262.892 38.1379 263.006 38.1677 263.107 38.2245C263.208 38.2813 263.293 38.3631 263.354 38.4622C263.677 39.0155 268.809 47.9832 271.157 51.8527C271.213 51.9548 271.242 52.0698 271.241 52.1866C271.24 52.3033 271.209 52.4178 271.151 52.519C271.093 52.6203 271.01 52.7048 270.909 52.7645C270.809 52.8242 270.695 52.8571 270.578 52.8599Z" fill="#646464"/>
<path d="M293.291 17.5117H306.5C306.672 17.5029 306.833 17.4285 306.952 17.3039C307.07 17.1794 307.136 17.0141 307.136 16.8423C307.136 16.6705 307.07 16.5052 306.952 16.3806C306.833 16.2561 306.672 16.1817 306.5 16.1729H293.291C293.119 16.1817 292.957 16.2561 292.839 16.3806C292.721 16.5052 292.655 16.6705 292.655 16.8423C292.655 17.0141 292.721 17.1794 292.839 17.3039C292.957 17.4285 293.119 17.5029 293.291 17.5117Z" fill="black"/>
<path d="M293.221 21.416H306.433C306.604 21.4072 306.766 21.3328 306.884 21.2082C307.002 21.0836 307.068 20.9184 307.068 20.7466C307.068 20.5748 307.002 20.4095 306.884 20.2849C306.766 20.1604 306.604 20.086 306.433 20.0771H293.221C293.05 20.086 292.888 20.1604 292.77 20.2849C292.651 20.4095 292.585 20.5748 292.585 20.7466C292.585 20.9184 292.651 21.0836 292.77 21.2082C292.888 21.3328 293.05 21.4072 293.221 21.416Z" fill="black"/>
<path d="M227.774 14.9688H221.262C221.085 14.971 220.916 15.0424 220.791 15.1676C220.665 15.2928 220.594 15.462 220.592 15.6391V22.1508C220.594 22.3278 220.665 22.497 220.791 22.6222C220.916 22.7474 221.085 22.8188 221.262 22.8211C228.396 22.8707 227.937 22.9027 228.245 22.6207C228.515 22.266 228.497 23.0694 228.444 15.6391C228.442 15.462 228.37 15.2928 228.245 15.1676C228.12 15.0424 227.951 14.971 227.774 14.9688Z" fill="#E9E9E9"/>
<path d="M271.656 141.628C270.805 142.287 270.12 143.135 269.655 144.106C269.19 145.077 268.959 146.143 268.98 147.219C268.747 149.639 269.295 152.326 267.808 154.447C267.586 154.805 267.297 155.116 266.955 155.362C266.614 155.608 266.227 155.784 265.818 155.881C265.408 155.977 264.984 155.992 264.568 155.924C264.153 155.857 263.755 155.708 263.397 155.486C263.043 155.268 261.319 154.261 261.184 150.711C261.29 148.819 261.197 146.921 260.907 145.048C260.761 144.214 260.43 143.423 259.94 142.733C259.449 142.043 258.81 141.47 258.07 141.058C257.366 140.683 256.589 140.465 255.793 140.42C254.996 140.375 254.199 140.503 253.457 140.796C252.715 141.089 252.046 141.539 251.495 142.117C250.944 142.694 250.525 143.384 250.267 144.139C249.255 147.167 250.491 150.588 248.868 153.454C247.435 156.378 243.33 155.525 242.341 152.333C241.694 148.677 241.552 144.95 241.917 141.255C242.005 140.399 240.665 140.404 240.576 141.255C240.253 144.4 240.291 147.571 240.69 150.707C240.644 152.157 241.149 153.57 242.103 154.662C243.058 155.754 244.39 156.445 245.832 156.595C249.248 156.852 250.837 153.289 251.074 150.413C251.312 147.536 250.486 143.099 254.139 141.977C254.848 141.745 255.606 141.703 256.337 141.857C257.067 142.01 257.745 142.353 258.301 142.851C261 145.352 259.053 150.122 260.367 153.695C260.651 154.48 261.102 155.194 261.688 155.788C262.275 156.382 262.983 156.841 263.764 157.135C267.474 158.249 270.104 154.812 270.226 150.842C270.313 148.072 270.001 144.468 272.298 142.81C272.842 142.5 273.457 142.333 274.084 142.326C274.711 142.319 275.329 142.472 275.88 142.771C279.169 144.564 278.754 149.313 278.476 152.454C278.377 153.502 278.263 154.548 278.132 155.593C278.029 156.447 279.361 156.438 279.473 155.593C279.742 153.536 279.9 151.468 279.966 149.386C280.191 141.839 274.888 139.741 271.656 141.628Z" fill="#BCBCBC"/>
<path d="M271.156 51.8541C270.959 51.4995 263.607 38.8875 263.354 38.4636C263.293 38.3642 263.209 38.2819 263.107 38.2248C263.006 38.1677 262.892 38.1377 262.776 38.1377C262.659 38.1377 262.545 38.1677 262.444 38.2248C262.342 38.2819 262.258 38.3642 262.197 38.4636C259.892 42.3544 254.395 51.8541 254.395 51.8541C254.337 51.9562 254.307 52.0714 254.308 52.1885C254.308 52.3056 254.339 52.4206 254.397 52.5221C254.456 52.6237 254.539 52.7084 254.64 52.7679C254.741 52.8273 254.856 52.8596 254.973 52.8614H270.578C270.694 52.8557 270.806 52.8211 270.905 52.7607C271.003 52.7003 271.085 52.6161 271.143 52.5158C271.2 52.4155 271.232 52.3023 271.234 52.1867C271.236 52.0711 271.21 51.9567 271.156 51.8541Z" fill="white"/>
<path d="M267.169 22.2818L262.961 15.059C262.725 14.6706 262.143 14.527 261.732 15.1618C261.377 15.7116 260.443 17.3147 257.597 22.2818C257.539 22.3838 257.509 22.499 257.51 22.6162C257.51 22.7333 257.541 22.8482 257.599 22.9498C257.658 23.0514 257.741 23.1361 257.842 23.1955C257.943 23.255 258.058 23.2872 258.175 23.2891H266.591C266.706 23.2829 266.818 23.248 266.917 23.1875C267.015 23.127 267.097 23.0428 267.154 22.9427C267.212 22.8425 267.243 22.7296 267.246 22.6142C267.248 22.4987 267.222 22.3845 267.169 22.2818Z" fill="#A4A4A4"/>
<path d="M237.285 90.4512H263.521C263.693 90.4423 263.854 90.368 263.973 90.2434C264.091 90.1188 264.157 89.9536 264.157 89.7817C264.157 89.6099 264.091 89.4447 263.973 89.3201C263.854 89.1955 263.693 89.1211 263.521 89.1123H237.285C237.113 89.1211 236.951 89.1955 236.833 89.3201C236.715 89.4447 236.649 89.6099 236.649 89.7817C236.649 89.9536 236.715 90.1188 236.833 90.2434C236.951 90.368 237.113 90.4423 237.285 90.4512Z" fill="#646464"/>
<path d="M237.284 95.4785H263.333C263.504 95.4697 263.666 95.3953 263.784 95.2707C263.903 95.1462 263.969 94.9809 263.969 94.8091C263.969 94.6373 263.903 94.472 263.784 94.3474C263.666 94.2229 263.504 94.1485 263.333 94.1396H237.283C237.111 94.1485 236.949 94.2229 236.831 94.3474C236.713 94.472 236.647 94.6373 236.647 94.8091C236.647 94.9809 236.713 95.1462 236.831 95.2707C236.949 95.3953 237.111 95.4697 237.283 95.4785H237.284Z" fill="#646464"/>
<path d="M236.912 99.9422H263.512C263.69 99.9422 263.86 99.8716 263.986 99.7459C264.111 99.6202 264.182 99.4497 264.182 99.2719C264.182 99.0941 264.111 98.9236 263.986 98.7979C263.86 98.6722 263.69 98.6016 263.512 98.6016H236.912C236.734 98.6016 236.563 98.6722 236.438 98.7979C236.312 98.9236 236.241 99.0941 236.241 99.2719C236.241 99.4497 236.312 99.6202 236.438 99.7459C236.563 99.8716 236.734 99.9422 236.912 99.9422Z" fill="#646464"/>
<path d="M279.396 76.3072L283.425 72.5194C284.055 71.9289 283.106 70.9819 282.478 71.5724L278.449 75.3603C277.82 75.9508 278.761 76.8978 279.396 76.3072Z" fill="#646464"/>
<path d="M279.683 115.948L283.053 119.001C283.689 119.58 284.649 118.636 284 118.054L280.63 115.001C280.001 114.423 279.043 115.368 279.683 115.948Z" fill="#646464"/>
<path d="M219.708 75.8743C220.343 76.4559 221.294 75.5196 220.657 74.9273C219.47 73.8359 218.345 72.6784 217.288 71.4604C216.72 70.8096 215.777 71.7601 216.341 72.4074C217.397 73.6253 218.522 74.7828 219.708 75.8743Z" fill="#646464"/>
<path d="M217.59 119.166C218.535 118.414 219.516 117.708 220.528 117.049C221.246 116.579 220.576 115.417 219.851 115.891C218.744 116.615 217.675 117.391 216.643 118.219C215.969 118.756 216.921 119.698 217.59 119.166Z" fill="#646464"/>
<path d="M305.991 79.0645H295.805C295.628 79.0645 295.457 79.1351 295.331 79.2608C295.206 79.3865 295.135 79.557 295.135 79.7348C295.135 79.9126 295.206 80.0831 295.331 80.2088C295.457 80.3345 295.628 80.4051 295.805 80.4051H305.991C306.152 80.3816 306.3 80.3009 306.406 80.1779C306.513 80.0548 306.571 79.8975 306.571 79.7348C306.571 79.5721 306.513 79.4148 306.406 79.2917C306.3 79.1686 306.152 79.0879 305.991 79.0645Z" fill="#646464"/>
<path d="M305.991 84.1748H295.805C295.628 84.1748 295.457 84.2454 295.331 84.3711C295.206 84.4968 295.135 84.6673 295.135 84.8451C295.135 85.0229 295.206 85.1934 295.331 85.3191C295.457 85.4448 295.628 85.5154 295.805 85.5154H305.991C306.169 85.5154 306.34 85.4448 306.465 85.3191C306.591 85.1934 306.662 85.0229 306.662 84.8451C306.662 84.6673 306.591 84.4968 306.465 84.3711C306.34 84.2454 306.169 84.1748 305.991 84.1748Z" fill="#646464"/>
<path d="M305.991 89.1122H295.805C295.633 89.121 295.472 89.1954 295.353 89.32C295.235 89.4446 295.169 89.6098 295.169 89.7817C295.169 89.9535 295.235 90.1187 295.353 90.2433C295.472 90.3679 295.633 90.4423 295.805 90.4511H305.991C306.082 90.4558 306.172 90.4419 306.258 90.4104C306.343 90.3789 306.421 90.3303 306.487 90.2677C306.553 90.2051 306.605 90.1297 306.641 90.0461C306.677 89.9626 306.696 89.8726 306.696 89.7817C306.696 89.6907 306.677 89.6007 306.641 89.5172C306.605 89.4336 306.553 89.3583 306.487 89.2956C306.421 89.233 306.343 89.1845 306.258 89.1529C306.172 89.1214 306.082 89.1075 305.991 89.1122Z" fill="#646464"/>
<path d="M305.991 94.1348H295.805C295.628 94.1348 295.457 94.2054 295.331 94.3311C295.206 94.4568 295.135 94.6273 295.135 94.8051C295.135 94.9829 295.206 95.1534 295.331 95.2791C295.457 95.4048 295.628 95.4754 295.805 95.4754H305.991C306.169 95.4754 306.34 95.4048 306.465 95.2791C306.591 95.1534 306.662 94.9829 306.662 94.8051C306.662 94.6273 306.591 94.4568 306.465 94.3311C306.34 94.2054 306.169 94.1348 305.991 94.1348Z" fill="#646464"/>
<path d="M305.991 102.597H295.805C295.633 102.606 295.472 102.68 295.353 102.804C295.235 102.929 295.169 103.094 295.169 103.266C295.169 103.438 295.235 103.603 295.353 103.728C295.472 103.852 295.633 103.927 295.805 103.936H305.991C306.153 103.913 306.301 103.833 306.408 103.71C306.516 103.587 306.575 103.429 306.575 103.266C306.575 103.103 306.516 102.945 306.408 102.822C306.301 102.699 306.153 102.619 305.991 102.597Z" fill="#646464"/>
<path d="M305.991 107.62H295.805C295.633 107.629 295.472 107.703 295.353 107.828C295.235 107.952 295.169 108.118 295.169 108.29C295.169 108.461 295.235 108.627 295.353 108.751C295.472 108.876 295.633 108.95 295.805 108.959H305.991C306.146 108.928 306.285 108.844 306.385 108.722C306.485 108.6 306.539 108.447 306.539 108.29C306.539 108.132 306.485 107.979 306.385 107.857C306.285 107.735 306.146 107.651 305.991 107.62Z" fill="#646464"/>
<path d="M179.81 91.6919C179.81 20.5101 180.017 22.8864 179.455 20.1111C178.786 17.5579 177.294 15.2962 175.21 13.6758C173.127 12.0554 170.568 11.1667 167.928 11.1469H92.18C90.5399 11.0898 88.9058 11.3721 87.3799 11.9762C85.8541 12.5803 84.4696 13.4931 83.3131 14.6574C82.1566 15.8217 81.2531 17.2124 80.6593 18.7423C80.0655 20.2721 79.7942 21.9082 79.8624 23.5478V93.7454C79.8308 95.4211 80.1421 97.0855 80.7772 98.6365C81.4123 100.187 82.3577 101.592 83.5554 102.765C84.7532 103.937 86.1779 104.852 87.7421 105.454C89.3064 106.055 90.9771 106.331 92.6517 106.263C173.037 105.176 167.953 106.386 169.928 106.042C172.598 105.536 175.022 104.15 176.811 102.104C178.599 100.058 179.65 97.4716 179.795 94.758C179.859 93.7401 179.81 92.7098 179.81 91.6919Z" fill="#D9D9D9"/>
<path d="M167.434 109.299H94.6647C91.4045 109.029 88.1251 109.487 85.063 110.638C82.0008 111.788 79.232 113.604 76.9561 115.954C74.7051 118.609 72.7649 121.512 71.1732 124.608C71.1236 124.801 71.2371 124.322 71.7709 124.276H72.145H96.039C97.899 122.195 99.8923 120.237 102.006 118.414C108.683 112.602 115.232 112.76 119.208 115.922C120.21 116.922 121.123 118.008 121.935 119.167C122.222 119.33 122.08 119.208 124.063 120.054C125.742 120.63 127.324 121.455 128.757 122.501C129.379 123.044 129.953 123.641 130.47 124.285H170.36C170.472 124.288 170.583 124.319 170.681 124.375C170.779 124.431 170.861 124.511 170.921 124.606C170.981 124.702 171.016 124.811 171.023 124.924C171.03 125.036 171.009 125.149 170.963 125.252C171.885 123.677 172.794 122.095 173.733 120.529C174.426 119.412 174.808 118.129 174.837 116.814C174.866 115.5 174.542 114.201 173.899 113.054C173.256 111.907 172.316 110.954 171.179 110.293C170.042 109.633 168.749 109.289 167.434 109.299Z" fill="#D9D9D9"/>
<path d="M170.364 124.276H130.475C130.811 124.695 131.108 125.144 131.361 125.617C133.163 128.483 130.67 132.127 126.589 131.458C127.26 132.255 127.838 133.124 128.315 134.049C129.284 135.644 129.698 137.514 129.494 139.369C129.388 140.162 129.032 140.901 128.477 141.477C127.922 142.053 127.197 142.436 126.409 142.572C124.585 142.497 122.848 141.772 121.512 140.527C120.359 139.678 119.309 138.699 118.381 137.608C114.699 144.718 109.981 151.24 104.382 156.963C104.382 156.963 137.572 156.963 137.994 156.963C141.945 156.963 145.84 156.029 149.361 154.236C152.882 152.443 155.929 149.843 158.252 146.647C159.976 144.234 169.375 127.85 170.949 125.28C171.005 125.177 171.034 125.062 171.032 124.945C171.03 124.829 170.998 124.714 170.94 124.613C170.881 124.512 170.797 124.428 170.696 124.369C170.595 124.31 170.481 124.278 170.364 124.276Z" fill="#989898"/>
<path d="M71.7678 124.275C71.6442 124.286 71.5247 124.325 71.4191 124.39C71.3134 124.455 71.2245 124.544 71.1596 124.649C71.0319 124.827 71.3281 124.337 68.1219 129.806C68.6539 130.282 71.8778 133.278 72.0108 133.479C72.4559 133.763 75.6 137.16 77.8397 139.118C78.8855 140.045 80.2288 140.566 81.6258 140.586C86.8891 139.895 86.7419 134.607 96.0377 124.272C63.9492 124.263 73.5447 124.126 71.7678 124.275Z" fill="#989898"/>
<path d="M202.863 179.029H186.397C186.219 179.029 186.049 179.1 185.923 179.226C185.797 179.351 185.727 179.522 185.727 179.7C185.727 179.877 185.797 180.048 185.923 180.174C186.049 180.299 186.219 180.37 186.397 180.37H202.863C203.04 180.37 203.211 180.299 203.337 180.174C203.462 180.048 203.533 179.877 203.533 179.7C203.533 179.522 203.462 179.351 203.337 179.226C203.211 179.1 203.04 179.029 202.863 179.029Z" fill="#BCBCBC"/>
<path d="M201.188 182.674H185.558C185.386 182.683 185.224 182.757 185.106 182.882C184.988 183.006 184.922 183.171 184.922 183.343C184.922 183.515 184.988 183.68 185.106 183.805C185.224 183.929 185.386 184.004 185.558 184.013H201.188C201.359 184.004 201.521 183.929 201.639 183.805C201.758 183.68 201.824 183.515 201.824 183.343C201.824 183.171 201.758 183.006 201.639 182.882C201.521 182.757 201.359 182.683 201.188 182.674Z" fill="#BCBCBC"/>
<path d="M268.831 173.045H184.991C184.82 173.054 184.658 173.128 184.54 173.253C184.421 173.377 184.355 173.543 184.355 173.714C184.355 173.886 184.421 174.051 184.54 174.176C184.658 174.301 184.82 174.375 184.991 174.384H268.831C269.003 174.375 269.164 174.301 269.283 174.176C269.401 174.051 269.467 173.886 269.467 173.714C269.467 173.543 269.401 173.377 269.283 173.253C269.164 173.128 269.003 173.054 268.831 173.045Z" fill="#BCBCBC"/>
<path d="M253.845 179.029H225.915C225.737 179.029 225.566 179.1 225.441 179.226C225.315 179.351 225.244 179.522 225.244 179.7C225.244 179.877 225.315 180.048 225.441 180.174C225.566 180.299 225.737 180.37 225.915 180.37H253.845C253.934 180.372 254.024 180.357 254.108 180.325C254.192 180.292 254.268 180.243 254.333 180.181C254.397 180.118 254.449 180.044 254.484 179.961C254.519 179.878 254.538 179.789 254.538 179.7C254.54 179.609 254.523 179.519 254.488 179.436C254.453 179.352 254.402 179.277 254.337 179.214C254.272 179.151 254.195 179.102 254.11 179.07C254.025 179.039 253.935 179.025 253.845 179.029Z" fill="#BCBCBC"/>
<path d="M251.005 182.675H224.497C224.325 182.684 224.164 182.758 224.045 182.883C223.927 183.007 223.861 183.172 223.861 183.344C223.861 183.516 223.927 183.681 224.045 183.806C224.164 183.93 224.325 184.005 224.497 184.014H251.008C251.099 184.018 251.19 184.004 251.275 183.973C251.361 183.941 251.438 183.893 251.504 183.83C251.57 183.768 251.623 183.692 251.659 183.609C251.695 183.525 251.713 183.435 251.713 183.344C251.713 183.253 251.695 183.163 251.659 183.08C251.623 182.996 251.57 182.921 251.504 182.858C251.438 182.795 251.361 182.747 251.275 182.715C251.19 182.684 251.099 182.67 251.008 182.675H251.005Z" fill="#BCBCBC"/>
<path d="M198.57 171.308L206.196 169.547C207.036 169.354 206.68 168.061 205.841 168.256L198.216 170.017C197.375 170.211 197.73 171.503 198.57 171.308Z" fill="#BCBCBC"/>
<path d="M273.006 171.163L267.244 169.067C266.432 168.772 266.082 170.065 266.889 170.359L272.651 172.454C273.461 172.75 273.811 171.455 273.006 171.163Z" fill="#BCBCBC"/>
<path d="M217.193 130.216C218.854 130.851 220.47 131.594 222.033 132.441C222.79 132.853 223.468 131.696 222.709 131.285C221.043 130.385 219.32 129.596 217.55 128.925C216.743 128.618 216.395 129.912 217.193 130.216Z" fill="#BCBCBC"/>
<path d="M308.58 128.639L303.91 131.214C303.155 131.631 303.831 132.789 304.586 132.37L309.255 129.796C310.011 129.372 309.335 128.214 308.58 128.639Z" fill="#BCBCBC"/>
<path d="M244.535 22.3385C244.663 22.4546 244.83 22.5172 245.002 22.5132C245.175 22.5092 245.339 22.4389 245.461 22.317C245.583 22.1951 245.653 22.0309 245.657 21.8586C245.661 21.6862 245.599 21.5189 245.482 21.3915C243.531 19.3734 241.546 17.3885 239.528 15.4366C239.4 15.3205 239.233 15.2579 239.06 15.2619C238.888 15.2659 238.724 15.3361 238.602 15.458C238.48 15.58 238.41 15.7442 238.406 15.9165C238.402 16.0889 238.464 16.2562 238.581 16.3836C240.53 18.4016 242.515 20.3866 244.535 22.3385Z" fill="black"/>
<path d="M250.114 22.3389C250.24 22.4613 250.409 22.5292 250.585 22.5279C250.761 22.5266 250.929 22.4563 251.054 22.332C251.178 22.2078 251.249 22.0396 251.25 21.8637C251.252 21.6879 251.184 21.5184 251.062 21.3919C248.898 19.154 246.696 16.9521 244.457 14.7862C244.329 14.6701 244.162 14.6075 243.99 14.6115C243.817 14.6155 243.653 14.6858 243.531 14.8077C243.409 14.9296 243.339 15.0938 243.335 15.2661C243.331 15.4385 243.394 15.6058 243.51 15.7332C245.673 17.9712 247.874 20.173 250.114 22.3389Z" fill="black"/>
<path d="M273.973 22.3383C274.099 22.4608 274.268 22.5286 274.444 22.5274C274.62 22.5261 274.788 22.4557 274.913 22.3315C275.037 22.2072 275.108 22.0391 275.109 21.8632C275.111 21.6873 275.044 21.5179 274.921 21.3914C272.756 19.1534 270.554 16.9515 268.316 14.7857C268.189 14.6633 268.02 14.5954 267.844 14.5967C267.668 14.598 267.5 14.6683 267.376 14.7926C267.251 14.9168 267.18 15.085 267.179 15.2609C267.177 15.4367 267.245 15.6062 267.367 15.7327C269.525 17.9706 271.726 20.1725 273.973 22.3383Z" fill="black"/>
<path d="M130.617 50.3121C128.998 47.3613 125.061 40.768 124.818 40.3601C124.758 40.2607 124.673 40.1784 124.572 40.1213C124.47 40.0642 124.356 40.0342 124.24 40.0342C124.124 40.0342 124.009 40.0642 123.908 40.1213C123.807 40.1784 123.722 40.2607 123.662 40.3601C121.714 43.6684 119.782 46.9858 117.865 50.3121C117.806 50.4148 117.775 50.531 117.776 50.6492C117.776 50.7674 117.807 50.8835 117.867 50.9858C117.926 51.0881 118.011 51.1731 118.113 51.2322C118.216 51.2914 118.332 51.3227 118.45 51.3229H130.044C130.159 51.3158 130.271 51.28 130.369 51.2188C130.466 51.1577 130.547 51.0731 130.604 50.9727C130.661 50.8723 130.692 50.7593 130.694 50.644C130.696 50.5286 130.67 50.4146 130.617 50.3121Z" fill="#646464"/>
<path d="M145.639 50.3119C144.019 47.3611 140.083 40.766 139.841 40.3599C139.781 40.2605 139.696 40.1783 139.595 40.1212C139.493 40.0642 139.379 40.0342 139.262 40.0342C139.146 40.0342 139.032 40.0642 138.93 40.1212C138.829 40.1783 138.744 40.2605 138.683 40.3599C136.737 43.6691 134.805 46.9864 132.886 50.3119C132.829 50.414 132.799 50.5292 132.799 50.6463C132.8 50.7634 132.831 50.8784 132.889 50.9799C132.947 51.0815 133.031 51.1662 133.132 51.2257C133.233 51.2851 133.347 51.3174 133.465 51.3192H145.053C145.169 51.3142 145.282 51.2801 145.381 51.2201C145.481 51.16 145.563 51.076 145.621 50.9757C145.68 50.8753 145.712 50.762 145.715 50.646C145.718 50.53 145.692 50.4151 145.639 50.3119Z" fill="#646464"/>
<path d="M129.646 58.8076H120.672C120.496 58.8104 120.327 58.8819 120.202 59.0071C120.077 59.1323 120.006 59.3012 120.004 59.4779V68.4493C120.006 68.626 120.077 68.7949 120.202 68.9201C120.327 69.0453 120.496 69.1168 120.672 69.1196C130.248 69.187 129.894 69.2171 130.149 68.8784C130.394 68.6195 130.383 69.0557 130.316 59.4797C130.314 59.3023 130.243 59.1327 130.118 59.0071C129.992 58.8815 129.823 58.8099 129.646 58.8076Z" fill="#A4A4A4"/>
<path d="M150.098 68.7674C148.479 65.8165 144.542 59.2233 144.299 58.8172C144.239 58.7177 144.154 58.6354 144.053 58.5783C143.952 58.5212 143.838 58.4912 143.721 58.4912C143.605 58.4912 143.491 58.5212 143.389 58.5783C143.288 58.6354 143.203 58.7177 143.143 58.8172C141.423 61.7095 137.58 68.3577 137.346 68.7674C137.289 68.8695 137.259 68.9848 137.259 69.102C137.26 69.2192 137.291 69.3342 137.349 69.4359C137.407 69.5375 137.491 69.6223 137.592 69.682C137.693 69.7417 137.807 69.7742 137.924 69.7764H149.52C149.635 69.7695 149.747 69.7341 149.845 69.6732C149.943 69.6124 150.024 69.5282 150.082 69.4281C150.139 69.328 150.171 69.2151 150.174 69.0998C150.176 68.9845 150.151 68.8702 150.098 68.7674Z" fill="#646464"/>
<path d="M115.705 58.4913L106.604 67.5903C106.49 67.7185 106.43 67.8851 106.435 68.0562C106.441 68.2274 106.511 68.39 106.632 68.5111C106.753 68.6321 106.916 68.7024 107.087 68.7076C107.258 68.7128 107.425 68.6525 107.553 68.539C110.637 65.5563 113.67 62.5227 116.652 59.4383C116.768 59.3109 116.83 59.1436 116.826 58.9712C116.822 58.7988 116.752 58.6346 116.63 58.5127C116.508 58.3908 116.344 58.3206 116.172 58.3166C115.999 58.3126 115.832 58.3752 115.705 58.4913Z" fill="black"/>
<path d="M115.704 23.6456L106.603 32.7464C106.481 32.8729 106.414 33.0423 106.415 33.2182C106.417 33.3941 106.487 33.5622 106.612 33.6865C106.736 33.8107 106.905 33.8811 107.081 33.8824C107.256 33.8836 107.426 33.8158 107.552 33.6933C110.636 30.7129 113.669 27.6794 116.651 24.5926C116.767 24.4651 116.83 24.2979 116.826 24.1255C116.822 23.9531 116.752 23.7889 116.63 23.667C116.508 23.5451 116.344 23.4749 116.171 23.4709C115.999 23.4669 115.832 23.5295 115.704 23.6456Z" fill="black"/>
<path d="M115.705 41.1378C112.62 44.1194 109.587 47.1524 106.604 50.2368C106.49 50.365 106.43 50.5316 106.435 50.7027C106.441 50.8738 106.511 51.0365 106.632 51.1576C106.753 51.2786 106.916 51.3489 107.087 51.3541C107.258 51.3593 107.425 51.299 107.553 51.1855C110.637 48.2028 113.67 45.1692 116.652 42.0848C116.768 41.9573 116.83 41.7901 116.826 41.6177C116.822 41.4453 116.752 41.2811 116.63 41.1592C116.508 41.0373 116.344 40.9671 116.172 40.9631C115.999 40.9591 115.832 41.0217 115.705 41.1378Z" fill="black"/>
<path d="M89.3822 24.2569V33.8702C89.391 34.0418 89.4654 34.2034 89.59 34.3218C89.7145 34.4401 89.8798 34.5061 90.0516 34.5061C90.2234 34.5061 90.3887 34.4401 90.5133 34.3218C90.6378 34.2034 90.7122 34.0418 90.721 33.8702V24.2569C90.7122 24.0854 90.6378 23.9237 90.5133 23.8054C90.3887 23.6871 90.2234 23.6211 90.0516 23.6211C89.8798 23.6211 89.7145 23.6871 89.59 23.8054C89.4654 23.9237 89.391 24.0854 89.3822 24.2569Z" fill="#A4A4A4"/>
<path d="M89.3822 41.9454V51.5587C89.391 51.7303 89.4654 51.8919 89.59 52.0102C89.7145 52.1286 89.8798 52.1946 90.0516 52.1946C90.2234 52.1946 90.3887 52.1286 90.5133 52.0102C90.6378 51.8919 90.7122 51.7303 90.721 51.5587V41.9454C90.7122 41.7738 90.6378 41.6122 90.5133 41.4939C90.3887 41.3755 90.2234 41.3096 90.0516 41.3096C89.8798 41.3096 89.7145 41.3755 89.59 41.4939C89.4654 41.6122 89.391 41.7738 89.3822 41.9454Z" fill="#A4A4A4"/>
<path d="M89.3822 59.4405V69.0556C89.391 69.2272 89.4654 69.3888 89.59 69.5071C89.7145 69.6255 89.8798 69.6914 90.0516 69.6914C90.2234 69.6914 90.3887 69.6255 90.5133 69.5071C90.6378 69.3888 90.7122 69.2272 90.721 69.0556V59.4405C90.7122 59.269 90.6378 59.1073 90.5133 58.989C90.3887 58.8707 90.2234 58.8047 90.0516 58.8047C89.8798 58.8047 89.7145 58.8707 89.59 58.989C89.4654 59.1073 89.391 59.269 89.3822 59.4405Z" fill="#A4A4A4"/>
<path d="M89.3822 76.8722V86.4854C89.391 86.657 89.4654 86.8187 89.59 86.937C89.7145 87.0553 89.8798 87.1213 90.0516 87.1213C90.2234 87.1213 90.3887 87.0553 90.5133 86.937C90.6378 86.8187 90.7122 86.657 90.721 86.4854V76.8722C90.7122 76.7006 90.6378 76.539 90.5133 76.4206C90.3887 76.3023 90.2234 76.2363 90.0516 76.2363C89.8798 76.2363 89.7145 76.3023 89.59 76.4206C89.4654 76.539 89.391 76.7006 89.3822 76.8722Z" fill="#A4A4A4"/>
<path d="M120.844 169.77C118.968 169.979 78.461 174.242 73.673 174.721C81.7328 186.957 90.1934 199.75 96.7707 209.856H120.844C121.021 209.854 121.189 209.783 121.314 209.658C121.439 209.533 121.51 209.364 121.512 209.187C121.746 180.752 121.668 173.082 121.567 170.979C121.537 170.36 121.466 169.653 120.844 169.77Z" fill="#646464"/>
<path d="M49.8244 192.114C49.491 193.315 49.0831 194.499 48.7604 195.691C48.2264 197.893 47.391 200.011 46.2777 201.985C44.7771 204.396 42.685 206.383 40.2002 207.758C37.7153 209.133 34.9202 209.85 32.0804 209.841C32.3783 209.871 29.4204 209.855 55.5239 209.855C54.0804 204.638 52.0641 198.332 49.8244 192.114Z" fill="#646464"/>
<path d="M138.83 169.119C132.062 176.856 127.633 186.359 126.062 196.518C125.388 201.07 125.436 205.982 128.368 209.782C128.451 209.864 128.554 209.922 128.667 209.952C128.779 209.982 128.898 209.982 129.011 209.952C129.123 209.923 129.227 209.864 129.31 209.783C129.393 209.701 129.454 209.6 129.487 209.488C129.841 208.168 139.949 169.795 139.949 169.765C140.113 169.157 139.286 168.596 138.83 169.119Z" fill="black"/>
<path d="M107.47 223.985C101.6 219.106 93.7569 217.813 86.332 217.904C77.7587 218.015 69.2806 219.716 61.3279 222.921C61.1766 222.968 61.0471 223.068 60.9622 223.202C60.8772 223.336 60.8422 223.496 60.8634 223.653C60.8846 223.81 60.9606 223.955 61.078 224.062C61.1954 224.168 61.3467 224.23 61.5052 224.236C63.0143 224.277 106.968 225.123 106.995 225.123C107.125 225.119 107.251 225.078 107.358 225.004C107.466 224.93 107.549 224.827 107.599 224.707C107.649 224.587 107.664 224.455 107.641 224.327C107.618 224.199 107.559 224.08 107.47 223.985Z" fill="black"/>
<path d="M71.9903 133.445C67.2023 128.779 57.5749 119.59 50.8752 119.79C48.7961 119.748 46.7406 120.236 44.9026 121.209C37.2081 125.259 27.2401 135.135 21.0423 149.05C18.4107 154.927 16.4173 161.069 15.0963 167.371C13.8969 174.18 13.3924 181.094 13.5908 188.005C13.5402 188.632 13.5402 189.262 13.5908 189.889C13.6579 185.843 14.1808 181.817 15.1495 177.888C17.6003 167.701 20.5724 161.978 25.3835 155.899C30.1945 149.82 37.4936 145.424 45.2094 146.557C50.3379 147.309 53.8863 150.517 57.4809 154.129C61.6642 147.58 65.5425 139.847 71.0966 133.502C71.2176 133.384 71.3788 133.316 71.5478 133.311C71.7168 133.307 71.8812 133.367 72.0081 133.479L71.9903 133.445Z" fill="#A4A4A4"/>
<path d="M128.177 131.493C128.852 131.469 129.508 131.27 130.082 130.914C130.656 130.558 131.126 130.058 131.447 129.464C131.768 128.87 131.929 128.203 131.913 127.528C131.896 126.853 131.704 126.194 131.355 125.617C130.682 124.43 129.804 123.372 128.762 122.492C126.678 121.076 124.4 119.968 121.999 119.204C120.757 117.81 119.743 115.45 116.235 114.317C113.933 113.563 111.451 113.553 109.142 114.289C106.516 115.17 104.095 116.573 102.024 118.413C97.6245 122.258 93.7113 126.625 90.3713 131.419C86.8973 136.384 85.695 140.055 81.6447 140.587C80.2479 140.565 78.9049 140.044 77.8586 139.119C75.9718 137.471 72.3098 133.659 72.0297 133.48C71.9028 133.368 71.7384 133.308 71.5694 133.312C71.4004 133.317 71.2392 133.385 71.1182 133.503C65.5517 139.862 61.7301 147.512 57.5025 154.13C60.1005 156.808 62.5417 159.635 64.8139 162.594C75.931 167.709 89.4864 167.56 99.809 160.644C107.663 155.38 113.827 145.905 118.392 137.617C119.319 138.708 120.37 139.687 121.524 140.536C122.859 141.78 124.596 142.505 126.42 142.58C127.208 142.445 127.933 142.062 128.488 141.486C129.044 140.91 129.4 140.171 129.505 139.378C129.709 137.523 129.295 135.653 128.326 134.058C126.413 130.376 125.682 131.772 128.177 131.493Z" fill="#B6B6B6"/>
<path d="M111.831 118.691C114.023 118.348 116.268 118.697 118.254 119.688C119.057 120.004 119.406 118.709 118.608 118.397C116.397 117.315 113.898 116.966 111.474 117.401C110.627 117.544 110.987 118.833 111.831 118.691Z" fill="#A4A4A4"/>
<path d="M116.951 127.912C118.614 128.296 120.21 128.927 121.686 129.783C121.839 129.866 122.018 129.887 122.186 129.84C122.354 129.794 122.498 129.684 122.586 129.533C122.674 129.383 122.7 129.204 122.658 129.035C122.617 128.865 122.511 128.719 122.363 128.626C120.8 127.683 119.092 127.005 117.308 126.619C116.467 126.433 116.107 127.725 116.951 127.912Z" fill="#A4A4A4"/>
<path d="M99.1532 213.485C98.3446 212.286 73.9718 175.141 73.6757 174.719C68.9028 167.606 63.6185 160.849 57.8646 154.503C53.4064 149.951 49.216 146.319 42.8161 146.364C35.8309 146.413 29.6455 150.519 25.3877 155.89C20.7982 161.553 17.5271 168.167 15.8117 175.251C13.579 183.565 11.9547 194.951 16.3224 202.341C17.4872 204.268 19.0668 205.911 20.9463 207.151C22.8257 208.391 24.9578 209.196 27.1876 209.509C34.1214 210.555 38.6221 209.143 42.1369 206.494C45.8999 203.657 47.5065 200.365 48.755 195.677C49.0742 194.485 49.482 193.3 49.819 192.1C53.5873 202.543 55.2862 208.971 56.6321 213.986C56.671 214.128 56.7551 214.253 56.8717 214.342C56.9883 214.431 57.1309 214.479 57.2776 214.479H98.5751C98.6905 214.476 98.8031 214.444 98.9023 214.385C99.0016 214.326 99.0841 214.243 99.1421 214.143C99.2 214.044 99.2315 213.931 99.2334 213.815C99.2354 213.7 99.2078 213.586 99.1532 213.485Z" fill="#646464"/>
<path d="M77.928 162.27H84.2535C84.4251 162.261 84.5868 162.186 84.7051 162.062C84.8234 161.937 84.8894 161.772 84.8894 161.6C84.8894 161.428 84.8234 161.263 84.7051 161.138C84.5868 161.014 84.4251 160.939 84.2535 160.931H77.928C77.7564 160.939 77.5948 161.014 77.4765 161.138C77.3581 161.263 77.2922 161.428 77.2922 161.6C77.2922 161.772 77.3581 161.937 77.4765 162.062C77.5948 162.186 77.7564 162.261 77.928 162.27Z" fill="#A4A4A4"/>
<path d="M58.8558 104.808C58.1282 103.999 57.2016 103.395 56.1682 103.054C55.1347 102.714 54.0302 102.65 52.9643 102.868C51.8984 103.086 50.908 103.58 50.0916 104.299C49.2751 105.018 48.6609 105.938 48.3098 106.968C48.0903 107.704 48.0257 108.477 48.12 109.238C48.2143 110 48.4655 110.734 48.8578 111.394C49.2501 112.053 49.7749 112.625 50.399 113.071C51.0232 113.518 51.7332 113.83 52.4842 113.989C53.6946 114.196 54.9388 114.062 56.0774 113.602C57.2159 113.142 58.2038 112.374 58.9303 111.384C59.6775 110.447 60.0782 109.281 60.0646 108.083C60.051 106.884 59.624 105.728 58.8558 104.808Z" fill="#B6B6B6"/>
<path d="M65.1489 92.6533C64.9042 89.3319 60.9142 88.2058 57.9172 89.7699C55.0649 91.5765 52.7884 94.1606 51.3559 97.2179C50.6465 98.5 49.8468 99.7272 49.1268 101.002C49.0693 101.104 49.0393 101.219 49.0398 101.337C49.0402 101.454 49.0711 101.569 49.1294 101.67C49.1877 101.772 49.2714 101.856 49.3723 101.916C49.4732 101.975 49.5878 102.008 49.7049 102.009C51.6556 101.905 53.6062 101.745 55.5392 101.501C57.0609 101.332 58.5494 100.94 59.9565 100.337C61.4681 99.6897 62.7614 98.6209 63.682 97.2584C64.6027 95.8959 65.1119 94.2973 65.1489 92.6533Z" fill="black"/>
<path d="M96.9606 64.2075L103.786 58.9248C103.911 58.7986 103.981 58.6281 103.981 58.4504C103.981 58.2727 103.911 58.1022 103.786 57.976C103.659 57.8536 103.489 57.7852 103.313 57.7852C103.136 57.7852 102.966 57.8536 102.839 57.976C102.839 57.976 95.6537 63.5053 95.4196 63.7181C94.8876 64.2838 95.4373 64.7076 95.8469 65.025L102.848 70.4373C102.976 70.5581 103.146 70.6254 103.322 70.6254C103.498 70.6254 103.667 70.5581 103.795 70.4373C103.92 70.3116 103.991 70.1413 103.991 69.9638C103.991 69.7863 103.92 69.616 103.795 69.4903C101.509 67.7288 99.2305 65.9679 96.9606 64.2075Z" fill="black"/>
<path d="M96.9606 46.7494L103.786 41.4666C103.912 41.341 103.982 41.1707 103.982 40.9932C103.982 40.8156 103.912 40.6453 103.786 40.5197C103.659 40.3968 103.489 40.3281 103.313 40.3281C103.136 40.3281 102.966 40.3968 102.839 40.5197C100.615 42.2398 95.6537 46.0489 95.4196 46.26C94.8876 46.8257 95.4373 47.2513 95.8469 47.5687L102.848 52.9791C102.976 53.1008 103.145 53.1686 103.322 53.1686C103.498 53.1686 103.667 53.1008 103.795 52.9791C103.92 52.8535 103.991 52.6832 103.991 52.5057C103.991 52.3281 103.92 52.1579 103.795 52.0322L96.9606 46.7494Z" fill="black"/>
<path d="M96.9606 28.8913L103.786 23.6085C103.912 23.4829 103.982 23.3126 103.982 23.135C103.982 22.9575 103.912 22.7872 103.786 22.6616C103.659 22.5391 103.489 22.4707 103.313 22.4707C103.136 22.4707 102.966 22.5391 102.839 22.6616C100.615 24.3817 95.6537 28.1908 95.4196 28.4036C94.8876 28.9676 95.4373 29.3932 95.8469 29.7106L102.848 35.1228C102.977 35.2443 103.147 35.312 103.323 35.312C103.5 35.312 103.67 35.2443 103.799 35.1228C103.861 35.0607 103.91 34.9869 103.944 34.9057C103.978 34.8244 103.995 34.7373 103.995 34.6493C103.995 34.5614 103.978 34.4742 103.944 34.393C103.91 34.3117 103.861 34.238 103.799 34.1758L96.9606 28.8913Z" fill="black"/>
<path d="M165.268 63.3816L158.276 57.9694C158.148 57.8486 157.978 57.7813 157.802 57.7812C157.626 57.7813 157.457 57.8486 157.329 57.9694C157.203 58.0954 157.133 58.266 157.133 58.4438C157.133 58.6216 157.203 58.7922 157.329 58.9181L164.156 64.1991L157.329 69.4837C157.203 69.6094 157.133 69.7796 157.133 69.9572C157.133 70.1347 157.203 70.305 157.329 70.4307C157.456 70.5531 157.625 70.6215 157.802 70.6215C157.979 70.6215 158.148 70.5531 158.276 70.4307C158.276 70.4307 165.461 64.9014 165.695 64.6886C166.22 64.13 165.677 63.7062 165.268 63.3816Z" fill="black"/>
<path d="M158.919 47.2325C159.451 46.6668 158.901 46.2412 158.492 45.9256L151.499 40.5133C151.371 40.3925 151.202 40.3252 151.026 40.3252C150.85 40.3252 150.681 40.3925 150.553 40.5133C150.427 40.639 150.357 40.8093 150.357 40.9868C150.357 41.1644 150.427 41.3346 150.553 41.4603L157.378 46.7431L150.549 52.0312C150.423 52.1572 150.353 52.3277 150.353 52.5055C150.353 52.6834 150.423 52.8539 150.549 52.9799C150.676 53.102 150.846 53.1701 151.022 53.1701C151.199 53.1701 151.369 53.102 151.496 52.9799C153.723 51.2527 158.685 47.4453 158.919 47.2325Z" fill="black"/>
<path d="M142.999 28.8912L136.171 34.174C136.046 34.3002 135.976 34.4707 135.976 34.6484C135.976 34.826 136.046 34.9965 136.171 35.1227C136.299 35.2448 136.468 35.3129 136.645 35.3129C136.821 35.3129 136.991 35.2448 137.118 35.1227C139.342 33.4008 144.304 29.5935 144.538 29.3807C145.07 28.815 144.52 28.3894 144.111 28.0719L137.118 22.6615C136.991 22.5402 136.821 22.4727 136.645 22.4727C136.469 22.4727 136.299 22.5402 136.171 22.6615C136.046 22.7871 135.976 22.9574 135.976 23.135C135.976 23.3125 136.046 23.4828 136.171 23.6084L142.999 28.8912Z" fill="black"/>
<path d="M127.528 23.2289C126.397 22.8143 125.164 22.771 124.007 23.1054C122.85 23.4398 121.83 24.1343 121.095 25.0881C120.36 26.042 119.949 27.2053 119.92 28.4091C119.892 29.613 120.248 30.7945 120.937 31.7821C121.626 32.7697 122.612 33.5118 123.751 33.9006C124.891 34.2894 126.125 34.3047 127.274 33.9441C128.423 33.5836 129.427 32.866 130.14 31.8957C130.853 30.9255 131.238 29.7531 131.239 28.5489C131.241 27.3885 130.886 26.2555 130.222 25.3038C129.558 24.3521 128.618 23.6277 127.528 23.2289Z" fill="#E6E6E6"/>
<path d="M79.9024 4.1519C76.2276 6.28941 73.2847 9.48765 71.4595 13.3272C71.0836 14.0986 72.2398 14.7795 72.6158 14.0028C74.3856 10.4027 77.1484 7.38392 80.578 5.3028C80.7225 5.20894 80.8254 5.06305 80.8651 4.8954C80.9049 4.72774 80.8786 4.55121 80.7917 4.40244C80.7047 4.25367 80.5639 4.14409 80.3983 4.09645C80.2327 4.0488 80.0551 4.06676 79.9024 4.14658V4.1519Z" fill="black"/>
<path d="M78.7937 0.0729766C73.8343 2.39052 69.8784 6.42071 67.6536 11.4223C67.2989 12.2044 68.4622 12.8871 68.8098 12.0998C70.9289 7.30081 74.7161 3.43295 79.4693 1.21324C80.2514 0.856795 79.5704 -0.299424 78.7937 0.0729766Z" fill="black"/>
<path d="M7.51481 159.286C5.22565 167.033 4.43067 175.144 5.17223 183.187C5.24671 184.039 6.5909 184.048 6.5111 183.187C5.91518 175.264 6.69514 167.298 8.81644 159.641C8.86089 159.47 8.83634 159.289 8.74813 159.137C8.65991 158.984 8.51513 158.872 8.34512 158.826C8.17512 158.779 7.99359 158.801 7.83984 158.887C7.68609 158.974 7.57251 159.117 7.52368 159.286H7.51481Z" fill="black"/>
<path d="M3.23652 158.973C-0.107993 167.403 -0.432513 174.411 0.363716 183.188C0.439969 184.039 1.78239 184.048 1.70259 183.188C0.73257 172.48 1.86219 166.08 4.52929 159.329C4.84671 158.526 3.55218 158.178 3.23652 158.973Z" fill="black"/>
<path d="M188.628 136.646H172.271C172.1 136.655 171.938 136.73 171.82 136.854C171.701 136.979 171.635 137.144 171.635 137.316C171.635 137.488 171.701 137.653 171.82 137.777C171.938 137.902 172.1 137.976 172.271 137.985H188.628C188.719 137.99 188.81 137.976 188.895 137.945C188.981 137.913 189.059 137.864 189.125 137.802C189.19 137.739 189.243 137.664 189.279 137.58C189.315 137.497 189.333 137.407 189.333 137.316C189.333 137.225 189.315 137.135 189.279 137.051C189.243 136.968 189.19 136.892 189.125 136.83C189.059 136.767 188.981 136.719 188.895 136.687C188.81 136.656 188.719 136.642 188.628 136.646Z" fill="black"/>
<path d="M182.033 125.336L171.733 133.399C171.054 133.931 172.008 134.873 172.68 134.348L182.98 126.283C183.659 125.751 182.705 124.809 182.033 125.336Z" fill="black"/>
<path d="M172.744 141.096C172.074 140.564 171.118 141.513 171.797 142.043L180.99 149.232C181.662 149.764 182.616 148.817 181.937 148.285C178.87 145.893 175.806 143.496 172.744 141.096Z" fill="black"/>
</svg>
