<svg width="50" height="49" viewBox="0 0 50 49" fill="none" xmlns="http://www.w3.org/2000/svg">
<path d="M40.0572 34.291C40.0067 32.9812 40.2068 31.6467 40.217 30.335C40.2335 28.2088 40.0512 26.0801 40.1059 23.9545C38.8914 24.9543 37.8034 26.114 36.5711 27.0918C35.1794 28.196 33.6036 29.2579 32.4051 30.5741C32.3412 27.4108 32.2832 24.2459 32.2378 21.0818C29.7253 23.0595 27.1041 25.1322 24.78 27.3139L24.1539 17.8887C21.3169 19.693 18.8023 22.0235 15.9463 23.8329C16.0199 21.1418 15.8421 18.3516 16.0507 15.6855C13.7268 17.2439 11.4992 19.3095 9.36733 21.1149" stroke="black" stroke-width="1.5" stroke-miterlimit="1.5" stroke-linecap="round" stroke-linejoin="round"/>
</svg>
