<svg width="246" height="152" viewBox="0 0 246 152" fill="none" xmlns="http://www.w3.org/2000/svg">
<g clip-path="url(#clip0_1219_4826)">
<path opacity="0.5" d="M40.1933 -111.069L39.6361 -111.163L2.00106 111.727L2.55829 111.821L40.1933 -111.069Z" fill="#1B7EFF"/>
<path opacity="0.2" d="M51.1352 -109.508L50.5763 -109.602L12.8472 113.844L13.4061 113.939L51.1352 -109.508Z" fill="#1B7EFF"/>
<path opacity="0.2" d="M62.3075 -107.621L61.7486 -107.715L24.0195 115.731L24.5784 115.825L62.3075 -107.621Z" fill="#1B7EFF"/>
<path opacity="0.2" d="M73.4799 -105.735L72.921 -105.829L35.1919 117.617L35.7508 117.712L73.4799 -105.735Z" fill="#1B7EFF"/>
<path opacity="0.2" d="M84.6516 -103.848L84.0933 -103.942L46.3641 119.504L46.9225 119.598L84.6516 -103.848Z" fill="#1B7EFF"/>
<path opacity="0.5" d="M95.8239 -101.962L95.265 -102.056L57.5359 121.39L58.0948 121.485L95.8239 -101.962Z" fill="#1B7EFF"/>
<path opacity="0.2" d="M106.996 -100.075L106.438 -100.169L68.7087 123.277L69.267 123.371L106.996 -100.075Z" fill="#1B7EFF"/>
<path opacity="0.2" d="M118.169 -98.1889L117.61 -98.2832L79.8811 125.163L80.4394 125.257L118.169 -98.1889Z" fill="#1B7EFF"/>
<path opacity="0.2" d="M129.341 -96.3027L128.783 -96.397L91.0534 127.049L91.6117 127.144L129.341 -96.3027Z" fill="#1B7EFF"/>
<path opacity="0.2" d="M140.513 -94.416L139.955 -94.5103L102.226 128.936L102.784 129.03L140.513 -94.416Z" fill="#1B7EFF"/>
<path opacity="0.5" d="M151.686 -92.5297L151.127 -92.624L113.398 130.822L113.956 130.917L151.686 -92.5297Z" fill="#1B7EFF"/>
<path opacity="0.2" d="M162.858 -90.643L162.299 -90.7373L124.57 132.709L125.129 132.803L162.858 -90.643Z" fill="#1B7EFF"/>
<path opacity="0.2" d="M174.031 -88.7567L173.472 -88.8511L135.743 134.595L136.301 134.69L174.031 -88.7567Z" fill="#1B7EFF"/>
<path opacity="0.2" d="M185.203 -86.87L184.644 -86.9644L146.914 136.482L147.473 136.576L185.203 -86.87Z" fill="#1B7EFF"/>
<path opacity="0.2" d="M196.375 -84.9839L195.816 -85.0781L158.087 138.368L158.646 138.463L196.375 -84.9839Z" fill="#1B7EFF"/>
<path opacity="0.5" d="M207.547 -83.0971L206.989 -83.1914L169.26 140.255L169.818 140.349L207.547 -83.0971Z" fill="#1B7EFF"/>
<path opacity="0.2" d="M218.719 -81.2109L218.161 -81.3052L180.432 142.141L180.99 142.236L218.719 -81.2109Z" fill="#1B7EFF"/>
<path opacity="0.2" d="M229.892 -79.3241L229.333 -79.4185L191.604 144.028L192.163 144.122L229.892 -79.3241Z" fill="#1B7EFF"/>
<path opacity="0.2" d="M241.064 -77.4379L240.505 -77.5322L202.776 145.914L203.335 146.009L241.064 -77.4379Z" fill="#1B7EFF"/>
<path opacity="0.2" d="M252.236 -75.5512L251.678 -75.6455L213.949 147.801L214.507 147.895L252.236 -75.5512Z" fill="#1B7EFF"/>
<path opacity="0.5" d="M263.082 -73.4337L262.525 -73.5278L224.89 149.361L225.447 149.455L263.082 -73.4337Z" fill="#1B7EFF"/>
<path opacity="0.2" d="M249.971 4.21497L26.525 -33.5142L26.4307 -32.9553L249.877 4.77387L249.971 4.21497Z" fill="#1B7EFF"/>
<path opacity="0.2" d="M248.085 15.3873L24.6386 -22.3418L24.5442 -21.7829L247.991 15.9462L248.085 15.3873Z" fill="#1B7EFF"/>
<path opacity="0.2" d="M246.198 26.5599L22.7521 -11.1692L22.6577 -10.6103L246.104 27.1188L246.198 26.5599Z" fill="#1B7EFF"/>
<path opacity="0.5" d="M244.312 37.7321L20.8657 0.00292969L20.7714 0.561828L244.218 38.291L244.312 37.7321Z" fill="#1B7EFF"/>
<path opacity="0.2" d="M242.426 48.9047L18.9792 11.1755L18.8849 11.7339L242.331 49.463L242.426 48.9047Z" fill="#1B7EFF"/>
<path opacity="0.2" d="M240.539 60.0768L17.0928 22.3477L16.9984 22.9065L240.445 60.6357L240.539 60.0768Z" fill="#1B7EFF"/>
<path opacity="0.2" d="M238.653 71.2482L15.2065 33.519L15.1121 34.0779L238.559 71.8071L238.653 71.2482Z" fill="#1B7EFF"/>
<path opacity="0.2" d="M236.766 82.4213L13.3199 44.6921L13.2256 45.2505L236.672 82.9796L236.766 82.4213Z" fill="#1B7EFF"/>
<path opacity="0.5" d="M234.88 93.5936L11.4334 55.8645L11.3391 56.4228L234.786 94.152L234.88 93.5936Z" fill="#1B7EFF"/>
<path opacity="0.2" d="M232.993 104.766L9.54694 67.0369L9.45266 67.5952L232.899 105.324L232.993 104.766Z" fill="#1B7EFF"/>
<path opacity="0.2" d="M231.107 115.939L7.66046 78.2095L7.56609 78.7684L231.013 116.497L231.107 115.939Z" fill="#1B7EFF"/>
<path opacity="0.2" d="M229.221 127.11L5.77417 89.3809L5.6798 89.9397L229.126 127.669L229.221 127.11Z" fill="#1B7EFF"/>
<path opacity="0.2" d="M227.334 138.283L3.88757 100.554L3.7933 101.112L227.24 138.841L227.334 138.283Z" fill="#1B7EFF"/>
<path opacity="0.5" d="M225.216 149.13L2.32666 111.495L2.23257 112.052L225.122 149.687L225.216 149.13Z" fill="#1B7EFF"/>
<path d="M21.7051 -1.57388L21.1479 -1.66797L20.4893 2.23259L21.0465 2.32668L21.7051 -1.57388Z" fill="#1B7EFF"/>
<path d="M23.0945 0.379805L19.194 -0.278809L19.0999 0.278414L23.0004 0.937028L23.0945 0.379805Z" fill="#1B7EFF"/>
<path d="M244.594 36.0611L244.037 35.967L243.378 39.8676L243.936 39.9617L244.594 36.0611Z" fill="#1B7EFF"/>
<path d="M245.984 38.0148L242.083 37.3562L241.989 37.9134L245.89 38.572L245.984 38.0148Z" fill="#1B7EFF"/>
<path d="M12.2964 54.148L11.7391 54.054L11.0805 57.9545L11.6377 58.0486L12.2964 54.148Z" fill="#1B7EFF"/>
<path d="M13.6857 56.1022L9.78516 55.4436L9.69107 56.0008L13.5916 56.6594L13.6857 56.1022Z" fill="#1B7EFF"/>
<path d="M235.186 91.7833L234.628 91.6892L233.97 95.5898L234.527 95.6839L235.186 91.7833Z" fill="#1B7EFF"/>
<path d="M236.575 93.7372L232.674 93.0786L232.58 93.6358L236.481 94.2944L236.575 93.7372Z" fill="#1B7EFF"/>
<path d="M2.88755 109.87L2.33032 109.776L1.67171 113.677L2.22893 113.771L2.88755 109.87Z" fill="#1B7EFF"/>
<path d="M4.27696 111.824L0.376404 111.166L0.282316 111.723L4.18288 112.382L4.27696 111.824Z" fill="#1B7EFF"/>
<path d="M77.4272 7.83457L76.87 7.74048L76.2114 11.641L76.7686 11.7351L77.4272 7.83457Z" fill="#1B7EFF"/>
<path d="M78.8168 9.7885L74.9163 9.12988L74.8222 9.68711L78.7227 10.3457L78.8168 9.7885Z" fill="#1B7EFF"/>
<path d="M68.0185 63.557L67.4612 63.4629L66.8026 67.3635L67.3599 67.4575L68.0185 63.557Z" fill="#1B7EFF"/>
<path d="M69.408 65.5109L65.5074 64.8523L65.4134 65.4095L69.3139 66.0681L69.408 65.5109Z" fill="#1B7EFF"/>
<path d="M58.6097 119.279L58.0524 119.185L57.3938 123.086L57.951 123.18L58.6097 119.279Z" fill="#1B7EFF"/>
<path d="M59.9993 121.233L56.0987 120.575L56.0046 121.132L59.9052 121.791L59.9993 121.233Z" fill="#1B7EFF"/>
<path d="M133.15 17.2435L132.592 17.1494L131.934 21.05L132.491 21.1441L133.15 17.2435Z" fill="#1B7EFF"/>
<path d="M134.539 19.1972L130.638 18.5386L130.544 19.0958L134.445 19.7544L134.539 19.1972Z" fill="#1B7EFF"/>
<path d="M123.741 72.9657L123.184 72.8716L122.525 76.7721L123.082 76.8662L123.741 72.9657Z" fill="#1B7EFF"/>
<path d="M125.13 74.9196L121.23 74.261L121.136 74.8182L125.036 75.4768L125.13 74.9196Z" fill="#1B7EFF"/>
<path d="M114.332 128.688L113.775 128.594L113.116 132.495L113.673 132.589L114.332 128.688Z" fill="#1B7EFF"/>
<path d="M115.721 130.642L111.821 129.983L111.727 130.541L115.627 131.199L115.721 130.642Z" fill="#1B7EFF"/>
<path d="M188.872 26.6522L188.315 26.5581L187.656 30.4587L188.213 30.5528L188.872 26.6522Z" fill="#1B7EFF"/>
<path d="M190.261 28.6061L186.361 27.9475L186.267 28.5047L190.167 29.1633L190.261 28.6061Z" fill="#1B7EFF"/>
<path d="M179.463 82.3744L178.906 82.2803L178.247 86.1808L178.805 86.2749L179.463 82.3744Z" fill="#1B7EFF"/>
<path d="M180.853 84.3285L176.952 83.6699L176.858 84.2271L180.759 84.8858L180.853 84.3285Z" fill="#1B7EFF"/>
<path d="M170.054 138.097L169.497 138.003L168.839 141.903L169.396 141.997L170.054 138.097Z" fill="#1B7EFF"/>
<path d="M171.444 140.051L167.543 139.392L167.449 139.949L171.35 140.608L171.444 140.051Z" fill="#1B7EFF"/>
<path d="M225.777 147.506L225.22 147.412L224.561 151.312L225.118 151.406L225.777 147.506Z" fill="#1B7EFF"/>
<path d="M227.166 149.46L223.266 148.801L223.172 149.358L227.072 150.017L227.166 149.46Z" fill="#1B7EFF"/>
<path d="M221.155 5.16709L220.598 5.073L220.504 5.63022L221.061 5.72431L221.155 5.16709Z" fill="#1B7EFF"/>
<path d="M44.5797 32.6629L44.0225 32.5688L43.9284 33.1261L44.4856 33.2202L44.5797 32.6629Z" fill="#1B7EFF"/>
<path d="M100.302 42.0716L99.7447 41.9775L99.6506 42.5348L100.208 42.6288L100.302 42.0716Z" fill="#1B7EFF"/>
<path d="M156.024 51.4803L155.467 51.3862L155.373 51.9435L155.93 52.0375L156.024 51.4803Z" fill="#1B7EFF"/>
<path d="M211.747 60.8893L211.189 60.7952L211.095 61.3524L211.652 61.4465L211.747 60.8893Z" fill="#1B7EFF"/>
<path d="M35.1709 88.3856L34.6136 88.2915L34.5196 88.8487L35.0768 88.9428L35.1709 88.3856Z" fill="#1B7EFF"/>
<path d="M90.893 97.7943L90.3358 97.7002L90.2417 98.2574L90.799 98.3515L90.893 97.7943Z" fill="#1B7EFF"/>
<path d="M146.615 107.203L146.058 107.109L145.964 107.666L146.521 107.76L146.615 107.203Z" fill="#1B7EFF"/>
<path d="M202.338 116.612L201.78 116.518L201.686 117.075L202.244 117.169L202.338 116.612Z" fill="#1B7EFF"/>
</g>
<defs>
<clipPath id="clip0_1219_4826">
<rect width="230" height="115" fill="white" transform="translate(19.1469) rotate(9.58405)"/>
</clipPath>
</defs>
</svg>
