<svg width="162" height="49" viewBox="0 0 162 49" fill="none" xmlns="http://www.w3.org/2000/svg">
<g filter="url(#filter0_d_562_10720)">
<rect x="3.59998" y="2.6001" width="154" height="41.3479" rx="5.06301" fill="white"/>
<path d="M119.539 21.1018H120.776V17.545C120.776 17.4072 120.78 17.2623 120.788 17.1104L119.911 17.8446C119.874 17.8755 119.836 17.8966 119.797 17.9079C119.76 17.9191 119.724 17.9247 119.687 17.9247C119.631 17.9247 119.579 17.9135 119.531 17.891C119.486 17.8657 119.452 17.8375 119.43 17.8066L119.101 17.3551L120.961 15.773H121.818V21.1018H122.915V21.8823H119.539V21.1018ZM123.607 21.3085C123.607 21.2213 123.623 21.1383 123.654 21.0596C123.688 20.9808 123.733 20.9133 123.789 20.8571C123.848 20.8008 123.917 20.7558 123.996 20.7221C124.074 20.6883 124.159 20.6714 124.249 20.6714C124.336 20.6714 124.419 20.6883 124.498 20.7221C124.576 20.7558 124.644 20.8008 124.7 20.8571C124.756 20.9133 124.801 20.9808 124.835 21.0596C124.869 21.1383 124.886 21.2213 124.886 21.3085C124.886 21.3985 124.869 21.4829 124.835 21.5617C124.801 21.6376 124.756 21.7037 124.7 21.76C124.644 21.8162 124.576 21.8598 124.498 21.8908C124.419 21.9245 124.336 21.9414 124.249 21.9414C124.159 21.9414 124.074 21.9245 123.996 21.8908C123.917 21.8598 123.848 21.8162 123.789 21.76C123.733 21.7037 123.688 21.6376 123.654 21.5617C123.623 21.4829 123.607 21.3985 123.607 21.3085ZM127.832 15.7139C128.113 15.7139 128.366 15.7547 128.591 15.8362C128.819 15.915 129.013 16.0261 129.173 16.1696C129.334 16.3102 129.456 16.4762 129.54 16.6674C129.628 16.8587 129.671 17.0654 129.671 17.2876C129.671 17.4817 129.649 17.6533 129.604 17.8024C129.562 17.9486 129.498 18.0766 129.414 18.1863C129.332 18.296 129.231 18.3888 129.11 18.4648C128.992 18.5407 128.857 18.604 128.705 18.6547C129.071 18.77 129.344 18.9458 129.524 19.182C129.704 19.4183 129.794 19.7151 129.794 20.0723C129.794 20.3761 129.737 20.6447 129.625 20.8782C129.512 21.1116 129.36 21.3085 129.169 21.4688C128.978 21.6264 128.756 21.7459 128.503 21.8275C128.252 21.909 127.986 21.9498 127.705 21.9498C127.398 21.9498 127.131 21.9147 126.903 21.8444C126.676 21.774 126.477 21.67 126.309 21.5321C126.14 21.3943 125.996 21.2255 125.878 21.0258C125.76 20.8261 125.659 20.5955 125.574 20.3339L126.034 20.144C126.113 20.1103 126.193 20.0934 126.275 20.0934C126.348 20.0934 126.413 20.1089 126.469 20.1398C126.528 20.1707 126.573 20.2157 126.604 20.2748C126.655 20.3733 126.709 20.4703 126.768 20.5659C126.83 20.6616 126.903 20.7474 126.988 20.8233C127.072 20.8964 127.171 20.9569 127.283 21.0047C127.398 21.0497 127.535 21.0722 127.692 21.0722C127.87 21.0722 128.024 21.0441 128.157 20.9879C128.289 20.9288 128.398 20.8528 128.486 20.76C128.576 20.6672 128.642 20.5645 128.684 20.452C128.729 20.3367 128.751 20.2214 128.751 20.1061C128.751 19.9598 128.736 19.8276 128.705 19.7094C128.674 19.5885 128.609 19.4858 128.511 19.4014C128.413 19.3171 128.27 19.251 128.085 19.2031C127.902 19.1553 127.656 19.1314 127.346 19.1314V18.3888C127.602 18.386 127.815 18.3621 127.984 18.3171C128.152 18.2721 128.286 18.2102 128.384 18.1315C128.486 18.0499 128.556 17.9529 128.595 17.8404C128.635 17.7278 128.654 17.6041 128.654 17.4691C128.654 17.1793 128.576 16.9614 128.418 16.8151C128.261 16.666 128.045 16.5915 127.773 16.5915C127.525 16.5915 127.32 16.6576 127.157 16.7898C126.993 16.9192 126.88 17.0865 126.815 17.2919C126.781 17.3987 126.735 17.4761 126.676 17.5239C126.617 17.5689 126.539 17.5914 126.444 17.5914C126.399 17.5914 126.351 17.5872 126.3 17.5788L125.752 17.4817C125.794 17.1892 125.875 16.9332 125.996 16.7138C126.117 16.4916 126.268 16.3074 126.448 16.1611C126.631 16.012 126.839 15.9009 127.072 15.8278C127.308 15.7519 127.562 15.7139 127.832 15.7139ZM134.064 19.5829H134.832V20.1862C134.832 20.2425 134.814 20.2917 134.777 20.3339C134.741 20.3733 134.687 20.393 134.617 20.393H134.064V21.8823H133.153V20.393H130.579C130.509 20.393 130.447 20.3719 130.393 20.3297C130.34 20.2847 130.306 20.2298 130.292 20.1651L130.187 19.6377L133.077 15.7772H134.064V19.5829ZM133.153 17.5872C133.153 17.4972 133.156 17.4002 133.161 17.2961C133.167 17.192 133.177 17.0837 133.191 16.9712L131.296 19.5829H133.153V17.5872ZM139.157 16.2244C139.157 16.3735 139.109 16.4944 139.014 16.5873C138.921 16.6801 138.765 16.7265 138.545 16.7265H136.866L136.647 18.0007C136.922 17.9444 137.174 17.9163 137.402 17.9163C137.723 17.9163 138.004 17.9641 138.246 18.0597C138.491 18.1554 138.696 18.2876 138.862 18.4564C139.028 18.6251 139.153 18.8234 139.237 19.0513C139.322 19.2763 139.364 19.5196 139.364 19.7812C139.364 20.1046 139.306 20.4 139.191 20.6672C139.078 20.9344 138.921 21.1637 138.718 21.3549C138.516 21.5434 138.275 21.6896 137.997 21.7937C137.721 21.8978 137.42 21.9498 137.094 21.9498C136.903 21.9498 136.721 21.9301 136.55 21.8908C136.378 21.8514 136.216 21.7993 136.065 21.7347C135.916 21.6671 135.776 21.5912 135.647 21.5068C135.52 21.4196 135.406 21.3282 135.305 21.2326L135.626 20.7896C135.693 20.6939 135.783 20.6461 135.896 20.6461C135.966 20.6461 136.036 20.6686 136.107 20.7136C136.18 20.7586 136.264 20.8078 136.36 20.8613C136.456 20.9147 136.567 20.9639 136.693 21.009C136.82 21.054 136.973 21.0765 137.153 21.0765C137.344 21.0765 137.513 21.0455 137.659 20.9836C137.806 20.9218 137.927 20.836 138.022 20.7263C138.121 20.6138 138.194 20.4816 138.242 20.3297C138.292 20.175 138.318 20.0076 138.318 19.8276C138.318 19.4957 138.221 19.2369 138.027 19.0513C137.835 18.8628 137.553 18.7686 137.178 18.7686C136.883 18.7686 136.586 18.822 136.288 18.9289L135.638 18.7433L136.145 15.7814H139.157V16.2244Z" fill="#1C1D21"/>
<path d="M144.942 16.4636L144.791 16.6086L142.998 18.4018L143.301 18.705L144.731 17.2745V21.5068H145.153V17.2745L146.584 18.705L146.887 18.4018L145.094 16.6086L144.942 16.4636Z" fill="#7CE7AC"/>
<path d="M14.6112 21.4006H15.0867C15.1379 21.4006 15.1802 21.4134 15.2137 21.4389C15.2471 21.4645 15.2698 21.497 15.2816 21.5364L16.1558 24.478C16.1716 24.5312 16.1853 24.5883 16.1972 24.6493C16.2109 24.7104 16.2237 24.7744 16.2356 24.8413C16.2493 24.7744 16.2631 24.7104 16.2769 24.6493C16.2907 24.5863 16.3064 24.5292 16.3242 24.478L17.3195 21.5364C17.3313 21.5029 17.3539 21.4724 17.3874 21.4449C17.4228 21.4153 17.4652 21.4006 17.5144 21.4006H17.6798C17.731 21.4006 17.7723 21.4134 17.8038 21.4389C17.8373 21.4645 17.8609 21.497 17.8747 21.5364L18.8641 24.478C18.8995 24.5804 18.931 24.6976 18.9586 24.8295C18.9704 24.7645 18.9813 24.7025 18.9911 24.6434C19.0009 24.5843 19.0137 24.5292 19.0295 24.478L19.9067 21.5364C19.9165 21.501 19.9382 21.4695 19.9716 21.4419C20.0071 21.4143 20.0494 21.4006 20.0986 21.4006H20.5446L19.2244 25.6328H18.7105L17.6384 22.4047C17.6168 22.3437 17.5971 22.2728 17.5794 22.1921C17.5695 22.2315 17.5597 22.2698 17.5498 22.3073C17.542 22.3427 17.5331 22.3752 17.5232 22.4047L16.4452 25.6328H15.9314L14.6112 21.4006ZM22.1095 22.5937C22.2887 22.5937 22.4541 22.6243 22.6057 22.6853C22.7573 22.7444 22.8882 22.831 22.9985 22.9452C23.1087 23.0574 23.1944 23.1972 23.2554 23.3646C23.3184 23.53 23.3499 23.719 23.3499 23.9316C23.3499 24.0143 23.3411 24.0695 23.3234 24.097C23.3056 24.1246 23.2722 24.1384 23.2229 24.1384H21.2323C21.2363 24.3274 21.2619 24.4918 21.3091 24.6316C21.3564 24.7714 21.4214 24.8885 21.504 24.9831C21.5867 25.0756 21.6852 25.1455 21.7994 25.1928C21.9136 25.238 22.0416 25.2607 22.1833 25.2607C22.3153 25.2607 22.4285 25.2459 22.523 25.2164C22.6195 25.1849 22.7022 25.1514 22.7711 25.116C22.84 25.0805 22.8971 25.048 22.9424 25.0185C22.9896 24.987 23.03 24.9712 23.0635 24.9712C23.1068 24.9712 23.1402 24.988 23.1639 25.0215L23.3115 25.2134C23.2466 25.2922 23.1688 25.3611 23.0782 25.4202C22.9877 25.4773 22.8902 25.5245 22.7858 25.5619C22.6835 25.5993 22.5771 25.6269 22.4669 25.6446C22.3566 25.6643 22.2473 25.6742 22.139 25.6742C21.9323 25.6742 21.7413 25.6397 21.5661 25.5708C21.3928 25.4999 21.2422 25.3975 21.1142 25.2636C20.9882 25.1278 20.8897 24.9604 20.8189 24.7616C20.748 24.5627 20.7125 24.3343 20.7125 24.0764C20.7125 23.8676 20.744 23.6727 20.807 23.4916C20.872 23.3104 20.9646 23.1539 21.0847 23.022C21.2048 22.8881 21.3515 22.7837 21.5247 22.7089C21.698 22.6321 21.8929 22.5937 22.1095 22.5937ZM22.1213 22.9806C21.8673 22.9806 21.6675 23.0545 21.5218 23.2021C21.3761 23.3478 21.2855 23.5506 21.2501 23.8105H22.8774C22.8774 23.6885 22.8607 23.5772 22.8272 23.4768C22.7937 23.3744 22.7445 23.2868 22.6795 23.214C22.6145 23.1391 22.5348 23.082 22.4403 23.0427C22.3477 23.0013 22.2414 22.9806 22.1213 22.9806ZM25.2071 22.5937C25.3863 22.5937 25.5517 22.6243 25.7033 22.6853C25.8549 22.7444 25.9859 22.831 26.0961 22.9452C26.2064 23.0574 26.292 23.1972 26.3531 23.3646C26.4161 23.53 26.4476 23.719 26.4476 23.9316C26.4476 24.0143 26.4387 24.0695 26.421 24.097C26.4033 24.1246 26.3698 24.1384 26.3206 24.1384H24.33C24.3339 24.3274 24.3595 24.4918 24.4068 24.6316C24.454 24.7714 24.519 24.8885 24.6017 24.9831C24.6844 25.0756 24.7828 25.1455 24.897 25.1928C25.0112 25.238 25.1392 25.2607 25.281 25.2607C25.4129 25.2607 25.5261 25.2459 25.6206 25.2164C25.7171 25.1849 25.7998 25.1514 25.8687 25.116C25.9376 25.0805 25.9947 25.048 26.04 25.0185C26.0873 24.987 26.1276 24.9712 26.1611 24.9712C26.2044 24.9712 26.2379 24.988 26.2615 25.0215L26.4092 25.2134C26.3442 25.2922 26.2664 25.3611 26.1759 25.4202C26.0853 25.4773 25.9878 25.5245 25.8835 25.5619C25.7811 25.5993 25.6748 25.6269 25.5645 25.6446C25.4542 25.6643 25.345 25.6742 25.2367 25.6742C25.0299 25.6742 24.8389 25.6397 24.6637 25.5708C24.4904 25.4999 24.3398 25.3975 24.2118 25.2636C24.0858 25.1278 23.9874 24.9604 23.9165 24.7616C23.8456 24.5627 23.8102 24.3343 23.8102 24.0764C23.8102 23.8676 23.8417 23.6727 23.9047 23.4916C23.9697 23.3104 24.0622 23.1539 24.1823 23.022C24.3024 22.8881 24.4491 22.7837 24.6224 22.7089C24.7956 22.6321 24.9906 22.5937 25.2071 22.5937ZM25.2189 22.9806C24.965 22.9806 24.7651 23.0545 24.6194 23.2021C24.4737 23.3478 24.3831 23.5506 24.3477 23.8105H25.975C25.975 23.6885 25.9583 23.5772 25.9248 23.4768C25.8913 23.3744 25.8421 23.2868 25.7771 23.214C25.7122 23.1391 25.6324 23.082 25.5379 23.0427C25.4454 23.0013 25.3391 22.9806 25.2189 22.9806ZM27.6668 21.2824V23.843H27.8027C27.8421 23.843 27.8746 23.8381 27.9002 23.8283C27.9257 23.8165 27.9543 23.7938 27.9858 23.7603L28.9309 22.7473C28.9604 22.7158 28.99 22.6902 29.0195 22.6705C29.049 22.6508 29.0884 22.641 29.1376 22.641H29.6161L28.5145 23.8135C28.4869 23.847 28.4593 23.8765 28.4318 23.9021C28.4062 23.9277 28.3766 23.9503 28.3432 23.97C28.3786 23.9937 28.4101 24.0212 28.4377 24.0527C28.4672 24.0823 28.4948 24.1167 28.5204 24.1561L29.6899 25.6328H29.2174C29.1741 25.6328 29.1367 25.6249 29.1051 25.6092C29.0756 25.5915 29.0471 25.5649 29.0195 25.5294L28.036 24.3038C28.0065 24.2624 27.9769 24.2358 27.9474 24.224C27.9179 24.2102 27.8736 24.2034 27.8145 24.2034H27.6668V25.6328H27.1382V21.2824H27.6668ZM33.401 23.1726C33.3853 23.1943 33.3695 23.211 33.3538 23.2228C33.338 23.2346 33.3154 23.2405 33.2859 23.2405C33.2563 23.2405 33.2238 23.2287 33.1884 23.2051C33.1549 23.1795 33.1116 23.1519 33.0584 23.1224C33.0053 23.0929 32.9403 23.0663 32.8635 23.0427C32.7887 23.0171 32.6962 23.0043 32.5859 23.0043C32.4402 23.0043 32.3112 23.0308 32.199 23.084C32.0868 23.1352 31.9923 23.21 31.9155 23.3085C31.8407 23.4069 31.7836 23.526 31.7442 23.6658C31.7068 23.8056 31.6881 23.9622 31.6881 24.1354C31.6881 24.3166 31.7087 24.478 31.7501 24.6198C31.7914 24.7596 31.8495 24.8777 31.9243 24.9742C31.9992 25.0687 32.0897 25.1416 32.196 25.1928C32.3043 25.242 32.4254 25.2666 32.5593 25.2666C32.6873 25.2666 32.7926 25.2518 32.8753 25.2223C32.958 25.1908 33.0269 25.1563 33.0821 25.1189C33.1372 25.0815 33.1825 25.048 33.2179 25.0185C33.2534 24.987 33.2888 24.9712 33.3243 24.9712C33.3695 24.9712 33.403 24.988 33.4247 25.0215L33.5723 25.2134C33.4424 25.3729 33.28 25.4901 33.085 25.5649C32.8901 25.6377 32.6843 25.6742 32.4678 25.6742C32.2807 25.6742 32.1065 25.6397 31.945 25.5708C31.7855 25.5019 31.6467 25.4024 31.5286 25.2725C31.4104 25.1406 31.3169 24.9791 31.248 24.7881C31.1811 24.5971 31.1476 24.3796 31.1476 24.1354C31.1476 23.9129 31.1781 23.7072 31.2391 23.5182C31.3021 23.3291 31.3927 23.1667 31.5109 23.0308C31.631 22.893 31.7786 22.7857 31.9539 22.7089C32.1291 22.6321 32.3299 22.5937 32.5564 22.5937C32.7651 22.5937 32.9502 22.6282 33.1116 22.6971C33.2731 22.7641 33.4158 22.8595 33.5399 22.9836L33.401 23.1726ZM35.3284 22.5937C35.547 22.5937 35.7439 22.6302 35.9191 22.703C36.0963 22.7759 36.246 22.8792 36.368 23.0131C36.4921 23.147 36.5866 23.3095 36.6516 23.5004C36.7185 23.6895 36.752 23.9011 36.752 24.1354C36.752 24.3717 36.7185 24.5843 36.6516 24.7734C36.5866 24.9624 36.4921 25.1238 36.368 25.2577C36.246 25.3916 36.0963 25.495 35.9191 25.5678C35.7439 25.6387 35.547 25.6742 35.3284 25.6742C35.1099 25.6742 34.912 25.6387 34.7348 25.5678C34.5596 25.495 34.4099 25.3916 34.2859 25.2577C34.1618 25.1238 34.0663 24.9624 33.9994 24.7734C33.9324 24.5843 33.899 24.3717 33.899 24.1354C33.899 23.9011 33.9324 23.6895 33.9994 23.5004C34.0663 23.3095 34.1618 23.147 34.2859 23.0131C34.4099 22.8792 34.5596 22.7759 34.7348 22.703C34.912 22.6302 35.1099 22.5937 35.3284 22.5937ZM35.3284 25.2636C35.6238 25.2636 35.8443 25.1652 35.99 24.9683C36.1357 24.7694 36.2085 24.4928 36.2085 24.1384C36.2085 23.782 36.1357 23.5044 35.99 23.3055C35.8443 23.1066 35.6238 23.0072 35.3284 23.0072C35.1788 23.0072 35.0488 23.0328 34.9386 23.084C34.8283 23.1352 34.7358 23.209 34.661 23.3055C34.5881 23.402 34.533 23.5211 34.4956 23.6629C34.4601 23.8027 34.4424 23.9612 34.4424 24.1384C34.4424 24.3156 34.4601 24.4741 34.4956 24.6139C34.533 24.7537 34.5881 24.8718 34.661 24.9683C34.7358 25.0628 34.8283 25.1357 34.9386 25.1868C35.0488 25.238 35.1788 25.2636 35.3284 25.2636ZM37.3997 25.6328V22.641H37.7128C37.7876 22.641 37.8349 22.6774 37.8546 22.7503L37.893 23.0574C38.0032 22.9216 38.1263 22.8103 38.2621 22.7237C38.4 22.6371 38.5595 22.5937 38.7406 22.5937C38.9434 22.5937 39.1068 22.6499 39.2309 22.7621C39.3569 22.8743 39.4475 23.0259 39.5026 23.2169C39.5439 23.1086 39.5981 23.0151 39.665 22.9363C39.7339 22.8576 39.8107 22.7926 39.8954 22.7414C39.9801 22.6902 40.0696 22.6528 40.1642 22.6292C40.2606 22.6056 40.3581 22.5937 40.4565 22.5937C40.6141 22.5937 40.7539 22.6193 40.8759 22.6705C41 22.7198 41.1043 22.7926 41.189 22.8891C41.2756 22.9856 41.3416 23.1047 41.3869 23.2464C41.4322 23.3862 41.4548 23.5467 41.4548 23.7279V25.6328H40.9291V23.7279C40.9291 23.4935 40.8779 23.3163 40.7755 23.1962C40.6731 23.0742 40.5245 23.0131 40.3295 23.0131C40.2429 23.0131 40.1602 23.0289 40.0815 23.0604C40.0047 23.0899 39.9367 23.1342 39.8777 23.1933C39.8186 23.2524 39.7713 23.3272 39.7359 23.4177C39.7024 23.5063 39.6857 23.6097 39.6857 23.7279V25.6328H39.16V23.7279C39.16 23.4876 39.1118 23.3085 39.0153 23.1903C38.9188 23.0722 38.778 23.0131 38.5929 23.0131C38.463 23.0131 38.3419 23.0486 38.2297 23.1194C38.1194 23.1884 38.018 23.2829 37.9255 23.403V25.6328H37.3997ZM42.251 26.6458V22.641H42.564C42.6389 22.641 42.6861 22.6774 42.7058 22.7503L42.7501 23.1047C42.8781 22.9491 43.0238 22.8241 43.1872 22.7296C43.3526 22.6351 43.5426 22.5878 43.7572 22.5878C43.9285 22.5878 44.0841 22.6213 44.2239 22.6882C44.3637 22.7532 44.4828 22.8507 44.5812 22.9806C44.6797 23.1086 44.7555 23.2681 44.8086 23.4591C44.8618 23.6501 44.8884 23.8696 44.8884 24.1177C44.8884 24.3382 44.8589 24.544 44.7998 24.735C44.7407 24.924 44.6561 25.0884 44.5458 25.2282C44.4355 25.366 44.2997 25.4753 44.1382 25.556C43.9787 25.6348 43.7986 25.6742 43.5977 25.6742C43.4127 25.6742 43.2542 25.6436 43.1222 25.5826C42.9923 25.5216 42.8771 25.4349 42.7767 25.3227V26.6458H42.251ZM43.583 23.0131C43.4117 23.0131 43.2611 23.0525 43.1311 23.1313C43.0031 23.21 42.885 23.3213 42.7767 23.465V24.9122C42.8732 25.0421 42.9785 25.1337 43.0927 25.1868C43.2089 25.24 43.3378 25.2666 43.4796 25.2666C43.7572 25.2666 43.9709 25.1672 44.1205 24.9683C44.2701 24.7694 44.345 24.4859 44.345 24.1177C44.345 23.9228 44.3272 23.7554 44.2918 23.6156C44.2583 23.4758 44.2091 23.3616 44.1441 23.273C44.0792 23.1825 43.9994 23.1165 43.9049 23.0751C43.8104 23.0338 43.7031 23.0131 43.583 23.0131ZM47.7075 25.6328H47.4742C47.423 25.6328 47.3816 25.6249 47.3501 25.6092C47.3186 25.5934 47.2979 25.56 47.2881 25.5088L47.229 25.2311C47.1503 25.302 47.0735 25.366 46.9987 25.4231C46.9238 25.4782 46.8451 25.5255 46.7624 25.5649C46.6797 25.6023 46.5911 25.6308 46.4966 25.6505C46.404 25.6702 46.3007 25.6801 46.1865 25.6801C46.0703 25.6801 45.961 25.6643 45.8586 25.6328C45.7582 25.5993 45.6706 25.5501 45.5958 25.4851C45.521 25.4202 45.4609 25.3385 45.4156 25.24C45.3723 25.1396 45.3506 25.0215 45.3506 24.8856C45.3506 24.7675 45.3831 24.6542 45.4481 24.546C45.5131 24.4357 45.6174 24.3382 45.7612 24.2536C45.9069 24.1689 46.0969 24.1 46.3312 24.0468C46.5655 23.9917 46.852 23.9602 47.1906 23.9523V23.719C47.1906 23.4867 47.1404 23.3114 47.04 23.1933C46.9416 23.0732 46.7949 23.0131 46.5999 23.0131C46.472 23.0131 46.3637 23.0299 46.2751 23.0633C46.1884 23.0948 46.1126 23.1313 46.0477 23.1726C45.9846 23.212 45.9295 23.2484 45.8823 23.2819C45.837 23.3134 45.7917 23.3291 45.7464 23.3291C45.711 23.3291 45.6795 23.3203 45.6519 23.3026C45.6263 23.2829 45.6056 23.2592 45.5899 23.2317L45.4954 23.0633C45.6608 22.9038 45.8389 22.7847 46.0299 22.706C46.2209 22.6272 46.4326 22.5878 46.6649 22.5878C46.8323 22.5878 46.9809 22.6154 47.1109 22.6705C47.2408 22.7257 47.3501 22.8024 47.4387 22.9009C47.5273 22.9993 47.5943 23.1185 47.6395 23.2583C47.6848 23.3981 47.7075 23.5516 47.7075 23.719V25.6328ZM46.343 25.3109C46.4355 25.3109 46.5202 25.302 46.597 25.2843C46.6738 25.2646 46.7456 25.238 46.8126 25.2046C46.8815 25.1691 46.9465 25.1268 47.0075 25.0776C47.0705 25.0283 47.1316 24.9722 47.1906 24.9092V24.2861C46.9484 24.2939 46.7427 24.3136 46.5734 24.3451C46.404 24.3747 46.2662 24.414 46.1599 24.4633C46.0536 24.5125 45.9758 24.5706 45.9266 24.6375C45.8793 24.7045 45.8557 24.7793 45.8557 24.862C45.8557 24.9407 45.8685 25.0087 45.8941 25.0658C45.9197 25.1229 45.9541 25.1701 45.9974 25.2075C46.0408 25.243 46.092 25.2695 46.151 25.2873C46.2101 25.303 46.2741 25.3109 46.343 25.3109ZM48.5039 25.6328V22.641H48.8052C48.8623 22.641 48.9017 22.6518 48.9233 22.6735C48.945 22.6951 48.9597 22.7325 48.9676 22.7857L49.0031 23.2524C49.1054 23.0436 49.2315 22.8812 49.3811 22.765C49.5327 22.6469 49.7099 22.5878 49.9127 22.5878C49.9954 22.5878 50.0702 22.5977 50.1372 22.6174C50.2041 22.6351 50.2661 22.6607 50.3232 22.6942L50.2553 23.087C50.2415 23.1362 50.211 23.1608 50.1638 23.1608C50.1362 23.1608 50.0939 23.1519 50.0368 23.1342C49.9797 23.1145 49.8999 23.1047 49.7975 23.1047C49.6144 23.1047 49.4608 23.1578 49.3368 23.2642C49.2147 23.3705 49.1123 23.5251 49.0296 23.7279V25.6328H48.5039ZM51.4711 22.641V25.6328H50.9454V22.641H51.4711ZM51.5892 21.7018C51.5892 21.753 51.5784 21.8012 51.5567 21.8465C51.537 21.8898 51.5095 21.9292 51.474 21.9647C51.4405 21.9981 51.4012 22.0247 51.3559 22.0444C51.3106 22.0641 51.2624 22.0739 51.2112 22.0739C51.16 22.0739 51.1117 22.0641 51.0664 22.0444C51.0231 22.0247 50.9837 21.9981 50.9483 21.9647C50.9148 21.9292 50.8883 21.8898 50.8686 21.8465C50.8489 21.8012 50.839 21.753 50.839 21.7018C50.839 21.6506 50.8489 21.6024 50.8686 21.5571C50.8883 21.5098 50.9148 21.4695 50.9483 21.436C50.9837 21.4006 51.0231 21.373 51.0664 21.3533C51.1117 21.3336 51.16 21.3238 51.2112 21.3238C51.2624 21.3238 51.3106 21.3336 51.3559 21.3533C51.4012 21.373 51.4405 21.4006 51.474 21.436C51.5095 21.4695 51.537 21.5098 51.5567 21.5571C51.5784 21.6024 51.5892 21.6506 51.5892 21.7018ZM54.1106 23.1342C54.087 23.1775 54.0505 23.1992 54.0013 23.1992C53.9718 23.1992 53.9383 23.1884 53.9009 23.1667C53.8635 23.145 53.8172 23.1214 53.7621 23.0958C53.7089 23.0683 53.6449 23.0436 53.5701 23.022C53.4953 22.9984 53.4067 22.9865 53.3043 22.9865C53.2157 22.9865 53.136 22.9984 53.0651 23.022C52.9942 23.0436 52.9332 23.0742 52.882 23.1135C52.8327 23.1529 52.7944 23.1992 52.7668 23.2524C52.7412 23.3035 52.7284 23.3597 52.7284 23.4207C52.7284 23.4975 52.75 23.5615 52.7934 23.6127C52.8387 23.6639 52.8977 23.7082 52.9706 23.7456C53.0434 23.783 53.1261 23.8165 53.2187 23.846C53.3112 23.8736 53.4057 23.9041 53.5022 23.9375C53.6006 23.9691 53.6961 24.0045 53.7887 24.0439C53.8812 24.0832 53.9639 24.1325 54.0368 24.1915C54.1096 24.2506 54.1677 24.3235 54.211 24.4101C54.2563 24.4948 54.2789 24.5971 54.2789 24.7173C54.2789 24.8551 54.2543 24.9831 54.2051 25.1012C54.1559 25.2174 54.083 25.3188 53.9866 25.4054C53.8901 25.4901 53.7719 25.557 53.6321 25.6062C53.4923 25.6555 53.3309 25.6801 53.1478 25.6801C52.9391 25.6801 52.75 25.6466 52.5807 25.5797C52.4114 25.5107 52.2677 25.4231 52.1495 25.3168L52.2736 25.116C52.2893 25.0904 52.308 25.0707 52.3297 25.0569C52.3513 25.0431 52.3799 25.0362 52.4153 25.0362C52.4508 25.0362 52.4882 25.05 52.5276 25.0776C52.5669 25.1051 52.6142 25.1357 52.6693 25.1691C52.7264 25.2026 52.7944 25.2331 52.8731 25.2607C52.9538 25.2882 53.0543 25.302 53.1744 25.302C53.2767 25.302 53.3663 25.2892 53.4431 25.2636C53.5199 25.2361 53.5839 25.1996 53.6351 25.1544C53.6863 25.1091 53.7237 25.0569 53.7473 24.9978C53.7729 24.9388 53.7857 24.8758 53.7857 24.8088C53.7857 24.7261 53.7631 24.6582 53.7178 24.605C53.6745 24.5499 53.6164 24.5036 53.5435 24.4662C53.4707 24.4268 53.387 24.3934 53.2925 24.3658C53.2 24.3363 53.1045 24.3057 53.006 24.2742C52.9095 24.2427 52.814 24.2073 52.7195 24.1679C52.627 24.1266 52.5443 24.0754 52.4714 24.0143C52.3986 23.9533 52.3395 23.8785 52.2942 23.7899C52.2509 23.6993 52.2293 23.59 52.2293 23.462C52.2293 23.3478 52.2529 23.2386 52.3001 23.1342C52.3474 23.0279 52.4163 22.9354 52.5069 22.8566C52.5975 22.7759 52.7087 22.7119 52.8406 22.6646C52.9725 22.6174 53.1232 22.5937 53.2925 22.5937C53.4894 22.5937 53.6656 22.6252 53.8212 22.6882C53.9787 22.7493 54.1145 22.834 54.2287 22.9422L54.1106 23.1342ZM56.1697 22.5937C56.3882 22.5937 56.5851 22.6302 56.7604 22.703C56.9376 22.7759 57.0872 22.8792 57.2093 23.0131C57.3333 23.147 57.4278 23.3095 57.4928 23.5004C57.5598 23.6895 57.5932 23.9011 57.5932 24.1354C57.5932 24.3717 57.5598 24.5843 57.4928 24.7734C57.4278 24.9624 57.3333 25.1238 57.2093 25.2577C57.0872 25.3916 56.9376 25.495 56.7604 25.5678C56.5851 25.6387 56.3882 25.6742 56.1697 25.6742C55.9511 25.6742 55.7533 25.6387 55.576 25.5678C55.4008 25.495 55.2512 25.3916 55.1271 25.2577C55.0031 25.1238 54.9076 24.9624 54.8406 24.7734C54.7737 24.5843 54.7402 24.3717 54.7402 24.1354C54.7402 23.9011 54.7737 23.6895 54.8406 23.5004C54.9076 23.3095 55.0031 23.147 55.1271 23.0131C55.2512 22.8792 55.4008 22.7759 55.576 22.703C55.7533 22.6302 55.9511 22.5937 56.1697 22.5937ZM56.1697 25.2636C56.465 25.2636 56.6855 25.1652 56.8313 24.9683C56.977 24.7694 57.0498 24.4928 57.0498 24.1384C57.0498 23.782 56.977 23.5044 56.8313 23.3055C56.6855 23.1066 56.465 23.0072 56.1697 23.0072C56.02 23.0072 55.8901 23.0328 55.7798 23.084C55.6696 23.1352 55.577 23.209 55.5022 23.3055C55.4294 23.402 55.3742 23.5211 55.3368 23.6629C55.3014 23.8027 55.2837 23.9612 55.2837 24.1384C55.2837 24.3156 55.3014 24.4741 55.3368 24.6139C55.3742 24.7537 55.4294 24.8718 55.5022 24.9683C55.577 25.0628 55.6696 25.1357 55.7798 25.1868C55.8901 25.238 56.02 25.2636 56.1697 25.2636ZM58.241 25.6328V22.641H58.5541C58.6289 22.641 58.6761 22.6774 58.6958 22.7503L58.7372 23.0751C58.8671 22.9314 59.0118 22.8152 59.1713 22.7266C59.3328 22.638 59.5189 22.5937 59.7295 22.5937C59.893 22.5937 60.0367 22.6213 60.1607 22.6764C60.2867 22.7296 60.3911 22.8064 60.4738 22.9068C60.5585 23.0052 60.6224 23.1244 60.6658 23.2642C60.7091 23.404 60.7307 23.5585 60.7307 23.7279V25.6328H60.205V23.7279C60.205 23.5014 60.1529 23.3262 60.0485 23.2021C59.9461 23.0761 59.7886 23.0131 59.576 23.0131C59.4204 23.0131 59.2747 23.0505 59.1388 23.1254C59.005 23.2002 58.8809 23.3016 58.7667 23.4296V25.6328H58.241Z" fill="#8181A5"/>
<path d="M18.0671 13.0147C18.0393 13.0704 18.0063 13.1096 17.9684 13.1324C17.9329 13.1552 17.8899 13.1666 17.8393 13.1666C17.7886 13.1666 17.7317 13.1476 17.6684 13.1096C17.6051 13.0691 17.5304 13.0248 17.4444 12.9767C17.3583 12.9286 17.257 12.8856 17.1406 12.8476C17.0267 12.8071 16.8912 12.7868 16.7343 12.7868C16.5925 12.7868 16.4685 12.8046 16.3621 12.84C16.2583 12.8729 16.1697 12.9197 16.0963 12.9805C16.0254 13.0413 15.9723 13.1147 15.9368 13.2007C15.9014 13.2843 15.8837 13.3767 15.8837 13.4779C15.8837 13.607 15.9191 13.7146 15.99 13.8007C16.0634 13.8868 16.1596 13.9602 16.2786 14.021C16.3976 14.0817 16.533 14.1361 16.6849 14.1842C16.8368 14.2323 16.9912 14.2842 17.1482 14.3399C17.3076 14.3931 17.4633 14.4564 17.6152 14.5298C17.7671 14.6007 17.9026 14.6918 18.0215 14.8032C18.1405 14.912 18.2354 15.0462 18.3063 15.2057C18.3797 15.3652 18.4164 15.5588 18.4164 15.7867C18.4164 16.0348 18.3734 16.2677 18.2873 16.4854C18.2038 16.7006 18.0798 16.8891 17.9152 17.0512C17.7532 17.2106 17.5545 17.3372 17.319 17.4309C17.0836 17.522 16.814 17.5676 16.5102 17.5676C16.3356 17.5676 16.1634 17.5499 15.9938 17.5144C15.8242 17.4815 15.6609 17.4334 15.504 17.3701C15.3495 17.3068 15.204 17.2309 15.0673 17.1423C14.9331 17.0537 14.8128 16.955 14.7065 16.8461L15.0027 16.3563C15.0306 16.3208 15.0635 16.2917 15.1014 16.2689C15.1419 16.2436 15.1862 16.231 15.2343 16.231C15.2976 16.231 15.366 16.2575 15.4394 16.3107C15.5128 16.3613 15.5989 16.4183 15.6976 16.4816C15.7989 16.5449 15.9166 16.6031 16.0508 16.6562C16.1875 16.7069 16.3507 16.7322 16.5406 16.7322C16.8317 16.7322 17.057 16.6638 17.2165 16.5271C17.376 16.3879 17.4557 16.1892 17.4557 15.931C17.4557 15.7867 17.419 15.669 17.3456 15.5778C17.2747 15.4867 17.1798 15.4107 17.0608 15.35C16.9418 15.2867 16.8064 15.2335 16.6545 15.1905C16.5026 15.1475 16.3482 15.1006 16.1913 15.05C16.0343 14.9994 15.8799 14.9386 15.728 14.8677C15.5761 14.7969 15.4407 14.7045 15.3217 14.5905C15.2027 14.4766 15.1065 14.3349 15.0331 14.1652C14.9622 13.9931 14.9268 13.7817 14.9268 13.5311C14.9268 13.3311 14.966 13.1362 15.0445 12.9463C15.1255 12.7565 15.2419 12.5881 15.3938 12.4413C15.5483 12.2945 15.7368 12.1767 15.9596 12.0881C16.1824 11.9995 16.4368 11.9552 16.7229 11.9552C17.0469 11.9552 17.3456 12.0059 17.619 12.1071C17.8924 12.2084 18.1253 12.3502 18.3177 12.5324L18.0671 13.0147ZM22.1957 17.5068H21.7742C21.6856 17.5068 21.616 17.4942 21.5654 17.4689C21.5148 17.441 21.4768 17.3866 21.4515 17.3056L21.3679 17.0284C21.2692 17.117 21.1717 17.1955 21.0755 17.2638C20.9819 17.3296 20.8844 17.3853 20.7832 17.4309C20.6819 17.4765 20.5743 17.5106 20.4604 17.5334C20.3465 17.5562 20.2199 17.5676 20.0807 17.5676C19.9161 17.5676 19.7642 17.5461 19.625 17.503C19.4858 17.4575 19.3655 17.3904 19.2642 17.3018C19.1655 17.2132 19.0883 17.1031 19.0326 16.9714C18.9769 16.8398 18.9491 16.6866 18.9491 16.512C18.9491 16.3651 18.987 16.2208 19.063 16.0791C19.1415 15.9348 19.2706 15.8057 19.4503 15.6917C19.63 15.5753 19.8693 15.4791 20.168 15.4032C20.4667 15.3272 20.8376 15.2842 21.2806 15.274V15.0462C21.2806 14.7855 21.2249 14.5931 21.1135 14.469C21.0047 14.3425 20.8452 14.2792 20.6351 14.2792C20.4832 14.2792 20.3566 14.2969 20.2553 14.3323C20.1541 14.3678 20.0655 14.4083 19.9895 14.4538C19.9161 14.4969 19.8478 14.5361 19.7845 14.5716C19.7212 14.607 19.6516 14.6247 19.5756 14.6247C19.5123 14.6247 19.4579 14.6083 19.4123 14.5754C19.3668 14.5424 19.3301 14.5019 19.3022 14.4538L19.1313 14.1539C19.5794 13.7438 20.1199 13.5387 20.7528 13.5387C20.9806 13.5387 21.1831 13.5767 21.3603 13.6526C21.5401 13.726 21.692 13.8298 21.816 13.964C21.94 14.0956 22.0337 14.2538 22.097 14.4386C22.1628 14.6234 22.1957 14.826 22.1957 15.0462V17.5068ZM20.373 16.9221C20.4692 16.9221 20.5578 16.9132 20.6389 16.8955C20.7199 16.8778 20.7958 16.8512 20.8667 16.8157C20.9401 16.7803 21.0097 16.7373 21.0755 16.6866C21.1439 16.6335 21.2122 16.5714 21.2806 16.5006V15.8436C21.0072 15.8563 20.7781 15.8803 20.5933 15.9158C20.411 15.9487 20.2642 15.9917 20.1528 16.0449C20.0414 16.0981 19.9617 16.1601 19.9136 16.231C19.868 16.3018 19.8452 16.379 19.8452 16.4626C19.8452 16.6271 19.8933 16.7449 19.9895 16.8157C20.0883 16.8866 20.2161 16.9221 20.373 16.9221ZM24.1167 11.8641V17.5068H23.1787V11.8641H24.1167ZM26.7898 13.5501C27.0354 13.5501 27.2607 13.5893 27.4657 13.6678C27.6733 13.7463 27.8518 13.8615 28.0011 14.0134C28.1505 14.1627 28.267 14.3475 28.3505 14.5678C28.434 14.7855 28.4758 15.0348 28.4758 15.3158C28.4758 15.3867 28.472 15.4462 28.4644 15.4943C28.4594 15.5399 28.448 15.5766 28.4302 15.6044C28.4151 15.6297 28.3935 15.6487 28.3657 15.6614C28.3378 15.6715 28.3024 15.6766 28.2594 15.6766H25.8519C25.8797 16.0765 25.9873 16.3702 26.1747 16.5575C26.362 16.7449 26.6101 16.8385 26.9189 16.8385C27.0708 16.8385 27.2012 16.8208 27.31 16.7854C27.4214 16.7499 27.5176 16.7107 27.5986 16.6676C27.6822 16.6246 27.7543 16.5854 27.8151 16.5499C27.8784 16.5145 27.9391 16.4968 27.9974 16.4968C28.0353 16.4968 28.0682 16.5044 28.0961 16.5195C28.1239 16.5347 28.148 16.5563 28.1682 16.5841L28.4416 16.9259C28.3378 17.0474 28.2214 17.1499 28.0923 17.2334C27.9632 17.3144 27.8277 17.3803 27.686 17.4309C27.5467 17.479 27.4037 17.5132 27.2569 17.5334C27.1126 17.5537 26.9721 17.5638 26.8354 17.5638C26.5645 17.5638 26.3126 17.5195 26.0797 17.4309C25.8468 17.3398 25.6443 17.2069 25.4722 17.0322C25.3 16.855 25.1646 16.6373 25.0659 16.379C24.9671 16.1183 24.9178 15.8171 24.9178 15.4753C24.9178 15.2095 24.9608 14.9601 25.0469 14.7272C25.133 14.4918 25.2557 14.288 25.4152 14.1159C25.5772 13.9412 25.7734 13.8032 26.0038 13.702C26.2367 13.6007 26.4987 13.5501 26.7898 13.5501ZM26.8088 14.2222C26.5354 14.2222 26.3215 14.2994 26.1671 14.4538C26.0127 14.6083 25.9139 14.8272 25.8709 15.1108H27.6328C27.6328 14.9893 27.6164 14.8753 27.5835 14.769C27.5505 14.6602 27.4999 14.5652 27.4316 14.4842C27.3632 14.4032 27.2771 14.3399 27.1733 14.2944C27.0696 14.2463 26.948 14.2222 26.8088 14.2222ZM31.5492 14.3703C31.5238 14.4108 31.4973 14.4399 31.4694 14.4576C31.4416 14.4728 31.4061 14.4804 31.3631 14.4804C31.3175 14.4804 31.2682 14.4678 31.215 14.4424C31.1644 14.4171 31.1049 14.3893 31.0365 14.3589C30.9682 14.326 30.8897 14.2969 30.8011 14.2716C30.715 14.2463 30.6125 14.2336 30.4935 14.2336C30.3087 14.2336 30.1632 14.2728 30.0568 14.3513C29.9505 14.4298 29.8973 14.5323 29.8973 14.6589C29.8973 14.7424 29.9239 14.8133 29.9771 14.8715C30.0328 14.9272 30.1049 14.9766 30.1935 15.0196C30.2847 15.0627 30.3872 15.1019 30.5011 15.1373C30.615 15.1703 30.7315 15.207 30.8505 15.2475C30.9694 15.288 31.0859 15.3348 31.1998 15.388C31.3137 15.4386 31.415 15.5044 31.5036 15.5854C31.5947 15.6639 31.6669 15.7588 31.72 15.8702C31.7757 15.9816 31.8036 16.1158 31.8036 16.2727C31.8036 16.4601 31.7694 16.6335 31.701 16.793C31.6327 16.9499 31.5327 17.0866 31.4011 17.2031C31.2694 17.317 31.1061 17.4068 30.9112 17.4727C30.7188 17.5359 30.4973 17.5676 30.2467 17.5676C30.1125 17.5676 29.9809 17.5549 29.8518 17.5296C29.7252 17.5068 29.6024 17.4739 29.4834 17.4309C29.367 17.3879 29.2581 17.3372 29.1569 17.279C29.0582 17.2208 28.9708 17.1575 28.8949 17.0891L29.1113 16.7322C29.1392 16.6892 29.1721 16.6562 29.21 16.6335C29.248 16.6107 29.2961 16.5993 29.3543 16.5993C29.4126 16.5993 29.467 16.6157 29.5176 16.6487C29.5708 16.6816 29.6315 16.717 29.6999 16.755C29.7682 16.793 29.848 16.8284 29.9391 16.8613C30.0328 16.8942 30.1505 16.9107 30.2923 16.9107C30.4036 16.9107 30.4986 16.898 30.5771 16.8727C30.6581 16.8448 30.7239 16.8094 30.7745 16.7664C30.8277 16.7233 30.8656 16.674 30.8884 16.6183C30.9137 16.5601 30.9264 16.5006 30.9264 16.4398C30.9264 16.3487 30.8986 16.274 30.8429 16.2158C30.7897 16.1575 30.7176 16.1069 30.6264 16.0639C30.5378 16.0208 30.4353 15.9829 30.3188 15.95C30.2049 15.9145 30.0872 15.8765 29.9657 15.836C29.8467 15.7955 29.729 15.7487 29.6126 15.6955C29.4986 15.6398 29.3961 15.5702 29.305 15.4867C29.2164 15.4032 29.1442 15.3006 29.0885 15.1791C29.0354 15.0576 29.0088 14.9108 29.0088 14.7386C29.0088 14.5791 29.0404 14.4273 29.1037 14.283C29.167 14.1387 29.2594 14.0134 29.3809 13.907C29.505 13.7982 29.6581 13.7121 29.8404 13.6488C30.0252 13.583 30.2378 13.5501 30.4783 13.5501C30.7467 13.5501 30.991 13.5944 31.2112 13.683C31.4314 13.7716 31.615 13.888 31.7618 14.0323L31.5492 14.3703Z" fill="#1C1D21"/>
<rect x="14.3589" y="33.8218" width="133.326" height="1.68767" rx="0.843836" fill="#F0F0F3"/>
<path d="M14.3589 34.6656C14.3589 34.1996 14.7367 33.8218 15.2027 33.8218H124.836C125.302 33.8218 125.68 34.1996 125.68 34.6656C125.68 35.1317 125.302 35.5094 124.836 35.5094H15.2027C14.7367 35.5094 14.3589 35.1317 14.3589 34.6656Z" fill="#7CE7AC"/>
</g>
<defs>
<filter id="filter0_d_562_10720" x="-2.40803e-05" y="9.78708e-05" width="161.2" height="48.5481" filterUnits="userSpaceOnUse" color-interpolation-filters="sRGB">
<feFlood flood-opacity="0" result="BackgroundImageFix"/>
<feColorMatrix in="SourceAlpha" type="matrix" values="0 0 0 0 0 0 0 0 0 0 0 0 0 0 0 0 0 0 127 0" result="hardAlpha"/>
<feOffset dy="1"/>
<feGaussianBlur stdDeviation="1.8"/>
<feComposite in2="hardAlpha" operator="out"/>
<feColorMatrix type="matrix" values="0 0 0 0 0 0 0 0 0 0 0 0 0 0 0 0 0 0 0.25 0"/>
<feBlend mode="normal" in2="BackgroundImageFix" result="effect1_dropShadow_562_10720"/>
<feBlend mode="normal" in="SourceGraphic" in2="effect1_dropShadow_562_10720" result="shape"/>
</filter>
</defs>
</svg>
